{"glyphs":{"0":{"ha":760,"x_min":49,"x_max":711,"o":"m 380 747 q 318 747 380 747 q 256 458 256 747 q 380 169 256 169 q 504 458 504 169 q 380 747 504 747 m 379 -11 q 297 -11 379 -11 q 132 116 215 -11 q 49 459 49 243 q 132 801 49 675 q 379 928 215 928 q 627 801 543 928 q 711 460 711 675 q 627 117 711 244 q 379 -11 543 -11 z "},"1":{"ha":528,"x_min":14,"x_max":444,"o":"m 444 908 l 444 0 l 243 0 l 243 690 l 14 553 l 14 760 l 269 908 l 444 908 z "},"2":{"ha":696,"x_min":42,"x_max":647,"o":"m 647 172 l 647 0 l 42 0 l 42 157 q 306 385 192 260 q 421 606 421 510 q 386 698 421 664 q 281 732 351 732 q 57 644 163 732 l 57 840 q 176 897 103 874 q 321 921 250 921 q 547 847 463 921 q 631 639 631 772 q 325 172 631 399 l 647 172 z "},"3":{"ha":671,"x_min":42,"x_max":622,"o":"m 285 921 q 518 851 432 921 q 604 668 604 781 q 464 456 604 514 q 622 250 622 418 q 534 63 622 133 q 292 -7 446 -7 q 42 40 139 -7 l 42 235 q 271 174 153 174 q 377 203 339 174 q 415 276 415 232 q 228 378 415 378 l 179 378 l 179 544 l 228 544 q 349 569 301 544 q 396 644 396 594 q 271 740 396 740 q 78 681 175 740 l 78 869 q 285 921 181 921 z "},"4":{"ha":781,"x_min":42,"x_max":753,"o":"m 753 365 l 753 193 l 642 193 l 642 0 l 440 0 l 440 193 l 42 193 l 42 365 l 319 911 l 642 911 l 642 365 l 753 365 m 440 365 l 440 776 l 240 365 l 440 365 z "},"5":{"ha":694,"x_min":49,"x_max":653,"o":"m 285 739 l 285 585 q 346 589 315 589 q 574 513 494 589 q 653 299 653 436 q 559 77 653 163 q 303 -8 465 -8 q 49 40 142 -8 l 49 232 q 260 174 143 174 q 446 307 446 174 q 408 386 446 357 q 278 415 369 415 q 88 369 186 415 l 88 911 l 597 911 l 597 739 l 285 739 z "},"6":{"ha":746,"x_min":49,"x_max":711,"o":"m 514 744 q 352 684 415 744 q 267 522 289 624 q 453 586 342 586 q 638 507 565 586 q 711 292 711 428 q 624 65 711 157 q 378 -28 538 -28 q 134 92 219 -28 q 49 415 49 213 q 176 786 49 647 q 497 925 303 925 q 640 903 571 925 l 640 715 q 514 744 586 744 m 389 153 q 474 190 443 153 q 504 288 504 228 q 474 381 504 347 q 390 415 444 415 q 258 356 315 415 q 389 153 274 153 z "},"7":{"ha":667,"x_min":28,"x_max":639,"o":"m 28 910 l 639 910 l 639 738 l 286 0 l 72 0 l 426 738 l 28 738 l 28 910 z "},"8":{"ha":757,"x_min":49,"x_max":708,"o":"m 708 253 q 616 60 708 133 q 374 -14 524 -14 q 137 56 225 -14 q 49 246 49 126 q 181 458 49 393 q 63 654 63 526 q 151 853 63 782 q 378 925 239 925 q 605 857 517 925 q 693 659 693 789 q 579 463 693 529 q 708 253 708 403 m 375 764 q 293 733 319 764 q 267 653 267 701 q 299 575 267 604 q 378 546 331 546 q 458 575 426 546 q 490 657 490 604 q 375 764 490 764 m 251 253 q 251 231 251 253 q 281 178 251 208 q 376 147 311 147 q 473 178 440 147 q 506 257 506 210 q 472 336 506 304 q 376 368 438 368 q 283 333 314 368 q 251 253 251 299 z "},"9":{"ha":740,"x_min":28,"x_max":692,"o":"m 236 172 q 404 222 344 172 q 482 376 464 271 q 301 317 422 317 q 103 395 179 317 q 28 607 28 474 q 113 831 28 740 q 353 921 199 921 q 599 803 507 921 q 692 483 692 686 q 574 112 692 235 q 258 -11 456 -11 q 93 15 164 -11 l 93 207 q 236 172 165 172 m 353 481 q 488 543 436 481 q 354 740 471 740 q 267 706 300 740 q 235 612 235 671 q 267 517 235 553 q 353 481 299 481 z "},"\u0000":{"ha":0,"x_min":0,"x_max":0,"o":""},"\r":{"ha":0,"x_min":0,"x_max":0,"o":""}," ":{"ha":347,"x_min":0,"x_max":0,"o":""},"!":{"ha":401,"x_min":72,"x_max":325,"o":"m 109 26 q 91 44 109 26 q 72 115 72 63 q 109 205 72 168 q 199 242 146 242 q 288 205 251 242 q 325 115 325 168 q 288 26 325 63 q 199 -11 251 -11 q 109 26 146 -11 m 104 328 l 104 936 l 297 936 l 297 328 l 104 328 z "},"\"":{"ha":538,"x_min":56,"x_max":482,"o":"m 313 583 l 313 946 l 482 946 l 482 583 l 313 583 m 56 583 l 56 946 l 225 946 l 225 583 l 56 583 z "},"#":{"ha":1051,"x_min":63,"x_max":989,"o":"m 989 556 l 807 556 l 767 368 l 942 368 l 942 214 l 735 214 l 689 0 l 518 0 l 563 214 l 374 214 l 328 0 l 157 0 l 201 214 l 63 214 l 63 368 l 235 368 l 274 556 l 110 556 l 110 717 l 308 717 l 354 935 l 526 935 l 481 717 l 669 717 l 715 935 l 888 935 l 842 717 l 989 717 l 989 556 m 596 368 l 635 556 l 446 556 l 406 368 l 596 368 z "},"$":{"ha":714,"x_min":47,"x_max":665,"o":"m 390 760 q 308 738 336 760 q 279 681 279 715 q 314 619 279 646 q 405 567 349 592 q 490 527 461 542 q 555 487 518 513 q 614 433 592 461 q 665 265 665 364 q 598 93 665 167 q 415 -3 531 19 l 415 -164 l 247 -164 l 247 -7 q 56 47 132 4 l 56 263 q 325 171 182 171 q 406 197 374 171 q 438 264 438 222 q 422 310 438 294 q 397 333 407 325 q 366 351 386 340 q 332 368 346 361 q 247 407 289 390 q 102 510 157 449 q 47 675 47 571 q 118 851 47 779 q 315 938 189 922 l 315 1097 l 485 1097 l 485 935 q 624 894 558 924 l 624 694 q 390 760 511 760 z "},"%":{"ha":1351,"x_min":63,"x_max":1289,"o":"m 953 324 q 939 309 953 324 q 924 253 924 294 q 953 181 924 211 q 1025 151 983 151 q 1097 181 1067 151 q 1126 253 1126 211 q 1097 324 1126 294 q 1025 354 1067 354 q 953 324 983 354 m 255 810 q 240 795 255 810 q 225 739 225 781 q 255 667 225 697 q 326 638 285 638 q 398 667 368 638 q 428 739 428 697 q 398 810 428 781 q 326 840 368 840 q 255 810 285 840 m 140 552 q 101 591 140 552 q 63 739 63 629 q 140 926 63 849 q 326 1003 217 1003 q 513 926 436 1003 q 590 739 590 849 q 513 552 590 629 q 326 475 436 475 q 140 552 217 475 m 838 66 q 800 105 838 66 q 761 253 761 143 q 838 440 761 363 q 1025 517 915 517 q 1212 440 1135 517 q 1289 253 1289 363 q 1212 66 1289 143 q 1025 -11 1135 -11 q 838 66 915 -11 m 315 -1 l 842 982 l 1025 982 l 497 -1 l 315 -1 z "},"&":{"ha":1031,"x_min":69,"x_max":1024,"o":"m 465 -11 q 176 67 282 -11 q 69 256 69 144 q 267 492 69 428 q 172 697 172 596 q 257 888 172 821 q 479 956 342 956 q 699 887 617 956 q 782 694 782 818 q 735 549 782 613 q 585 433 689 486 l 721 300 q 746 418 746 354 l 928 418 q 850 171 928 279 l 1024 0 l 775 0 l 721 54 q 465 -11 608 -11 m 578 683 q 549 763 578 735 q 476 790 521 790 q 404 767 431 790 q 378 700 378 743 q 474 543 378 639 q 578 683 578 600 m 386 379 q 299 329 322 357 q 276 258 276 301 q 331 185 276 215 q 458 156 385 156 q 590 181 532 156 q 400 366 408 358 q 386 379 392 374 z "},"'":{"ha":281,"x_min":56,"x_max":225,"o":"m 56 583 l 56 946 l 225 946 l 225 583 l 56 583 z "},"(":{"ha":469,"x_min":56,"x_max":497,"o":"m 282 -272 q 56 365 56 10 q 274 982 56 721 l 483 982 q 326 682 382 858 q 269 356 269 506 q 328 35 269 207 q 497 -272 386 -136 l 282 -272 z "},")":{"ha":469,"x_min":-28,"x_max":414,"o":"m 196 982 q 414 365 414 721 q 188 -272 414 10 l -28 -272 q 142 35 83 -136 q 200 356 200 207 q 144 682 200 506 q -14 982 88 858 l 196 982 z "},"*":{"ha":706,"x_min":39,"x_max":668,"o":"m 471 594 l 468 594 q 518 544 497 572 l 599 433 l 465 338 l 386 447 q 356 507 364 478 q 322 449 344 481 l 240 338 l 108 435 l 189 544 q 238 593 210 572 q 169 606 206 593 l 39 649 l 90 804 l 219 763 q 282 731 256 750 q 272 800 272 764 l 272 936 l 436 936 l 436 800 q 426 731 436 764 q 488 761 451 749 l 618 803 l 668 647 l 540 606 q 471 594 506 594 z "},"+":{"ha":818,"x_min":63,"x_max":756,"o":"m 756 561 l 756 381 l 501 381 l 501 131 l 315 131 l 315 381 l 63 381 l 63 561 l 315 561 l 315 813 l 501 813 l 501 561 l 756 561 z "},",":{"ha":408,"x_min":-10,"x_max":354,"o":"m -10 -176 l 131 186 l 354 186 l 165 -176 l -10 -176 z "},"-":{"ha":496,"x_min":63,"x_max":433,"o":"m 63 281 l 63 447 l 433 447 l 433 281 l 63 281 z "},".":{"ha":358,"x_min":56,"x_max":303,"o":"m 92 25 q 74 43 92 25 q 56 113 56 61 q 92 200 56 164 q 179 236 128 236 q 267 200 231 236 q 303 113 303 164 q 267 25 303 61 q 179 -11 231 -11 q 92 25 128 -11 z "},"/":{"ha":644,"x_min":-3,"x_max":707,"o":"m -3 -143 l 496 982 l 707 982 l 207 -143 l -3 -143 z "},":":{"ha":397,"x_min":76,"x_max":321,"o":"m 112 35 q 94 53 112 35 q 76 122 76 71 q 112 209 76 174 q 199 244 147 244 q 285 209 250 244 q 321 122 321 174 q 285 35 321 71 q 199 0 250 0 q 112 35 147 0 m 112 495 q 94 513 112 495 q 76 582 76 531 q 112 669 76 633 q 199 704 147 704 q 285 669 250 704 q 321 582 321 633 q 285 495 321 531 q 199 460 250 460 q 112 495 147 460 z "},";":{"ha":408,"x_min":-10,"x_max":354,"o":"m -10 -176 l 131 186 l 354 186 l 165 -176 l -10 -176 m 137 495 q 119 513 137 495 q 101 582 101 531 q 137 669 101 633 q 224 704 172 704 q 310 669 275 704 q 346 582 346 633 q 310 495 346 531 q 224 460 275 460 q 137 495 172 460 z "},"<":{"ha":818,"x_min":63,"x_max":756,"o":"m 63 376 l 63 568 l 756 815 l 756 615 l 264 472 l 756 329 l 756 129 l 63 376 z "},"=":{"ha":818,"x_min":63,"x_max":756,"o":"m 63 231 l 63 397 l 756 397 l 756 231 l 63 231 m 63 547 l 63 714 l 756 714 l 756 547 l 63 547 z "},">":{"ha":818,"x_min":63,"x_max":756,"o":"m 756 568 l 756 376 l 63 129 l 63 329 l 554 472 l 63 615 l 63 815 l 756 568 z "},"?":{"ha":636,"x_min":90,"x_max":594,"o":"m 180 26 q 161 44 180 26 q 143 115 143 63 q 180 205 143 168 q 269 242 217 242 q 359 205 322 242 q 396 115 396 168 q 359 26 396 63 q 269 -11 322 -11 q 180 26 217 -11 m 90 908 q 303 947 174 947 q 514 878 433 947 q 594 693 594 810 q 569 580 594 631 q 507 500 544 529 q 368 442 429 442 l 364 328 l 179 328 l 175 538 q 389 668 389 538 q 359 748 389 718 q 271 778 329 778 q 90 718 181 778 l 90 908 z "},"@":{"ha":1357,"x_min":56,"x_max":1308,"o":"m 650 -300 q 326 -219 464 -300 q 122 -8 189 -137 q 56 289 56 121 q 146 608 56 457 q 389 846 236 760 q 709 932 542 932 q 1009 868 876 932 q 1225 677 1142 804 q 1308 385 1308 550 q 1226 110 1308 221 q 1026 0 1143 0 q 814 151 863 0 q 730 40 786 78 q 603 1 674 1 q 425 87 490 1 q 360 306 360 172 q 444 528 360 440 q 643 617 529 617 q 811 515 757 617 q 818 614 817 583 l 979 614 l 961 307 q 1032 157 961 157 q 1111 215 1081 157 q 1142 371 1142 272 q 1022 668 1142 568 q 714 768 901 768 q 459 697 571 768 q 290 513 347 625 q 233 272 233 400 q 353 -26 233 85 q 649 -136 472 -136 q 928 -72 794 -136 l 922 -243 q 650 -300 794 -300 m 800 283 l 801 339 q 758 438 793 404 q 672 472 724 472 q 578 424 619 472 q 538 299 538 375 q 574 185 538 224 q 659 146 611 146 q 747 181 707 146 q 800 283 786 217 z "},"A":{"ha":958,"x_min":32,"x_max":926,"o":"m 697 0 l 640 192 l 313 192 l 256 0 l 32 0 l 344 936 l 614 936 l 926 0 l 697 0 m 364 364 l 589 364 q 476 781 496 682 q 364 364 468 719 z "},"B":{"ha":840,"x_min":90,"x_max":792,"o":"m 90 936 l 454 936 q 689 863 608 936 q 769 678 769 790 q 731 549 769 604 q 629 474 692 493 q 792 254 792 425 q 712 72 792 143 q 494 0 632 0 l 90 0 l 90 936 m 304 765 l 304 556 l 383 556 q 509 586 467 556 q 551 667 551 617 q 418 765 551 765 l 304 765 m 304 171 l 417 171 q 575 279 575 171 q 418 388 575 388 l 304 388 l 304 171 z "},"C":{"ha":851,"x_min":56,"x_max":782,"o":"m 782 690 q 558 754 678 754 q 361 676 438 754 q 285 467 285 597 q 361 260 285 336 q 563 185 438 185 q 782 251 689 185 l 782 42 q 538 -11 697 -11 q 194 122 332 -11 q 56 467 56 254 q 190 814 56 679 q 539 949 324 949 q 782 896 697 949 l 782 690 z "},"D":{"ha":949,"x_min":90,"x_max":893,"o":"m 90 936 l 413 936 q 758 806 624 936 q 893 483 893 676 q 760 129 893 258 q 410 0 628 0 l 90 0 l 90 936 m 310 175 l 407 175 q 606 256 536 175 q 676 472 676 336 q 606 684 676 608 q 406 760 535 760 l 310 760 l 310 175 z "},"E":{"ha":756,"x_min":90,"x_max":672,"o":"m 306 171 l 672 171 l 672 0 l 90 0 l 90 936 l 667 936 l 667 765 l 306 765 l 306 553 l 628 553 l 628 383 l 306 383 l 306 171 z "},"F":{"ha":703,"x_min":90,"x_max":661,"o":"m 661 765 l 306 765 l 306 524 l 615 524 l 615 353 l 306 353 l 306 0 l 90 0 l 90 936 l 661 936 l 661 765 z "},"G":{"ha":981,"x_min":56,"x_max":897,"o":"m 897 558 l 897 86 q 550 -11 764 -11 q 196 118 336 -11 q 56 468 56 247 q 202 821 56 689 q 574 953 349 953 q 847 894 732 953 l 847 681 q 578 757 714 757 q 364 678 442 757 q 286 469 286 600 q 363 260 286 338 q 571 182 439 182 q 689 200 631 182 l 689 376 l 538 376 l 538 558 l 897 558 z "},"H":{"ha":953,"x_min":90,"x_max":863,"o":"m 647 936 l 863 936 l 863 0 l 647 0 l 647 374 l 304 374 l 304 0 l 90 0 l 90 936 l 304 936 l 304 556 l 647 556 l 647 936 z "},"I":{"ha":422,"x_min":104,"x_max":318,"o":"m 104 0 l 104 936 l 318 936 l 318 0 l 104 0 z "},"J":{"ha":544,"x_min":42,"x_max":461,"o":"m 149 183 q 247 289 247 183 l 247 935 l 461 935 l 461 283 q 390 74 461 149 q 190 -1 318 -1 q 42 26 94 -1 l 42 215 q 149 183 93 183 z "},"K":{"ha":919,"x_min":90,"x_max":896,"o":"m 564 468 l 896 0 l 628 0 l 314 465 l 617 936 l 871 936 l 564 468 m 90 0 l 90 936 l 304 936 l 304 0 l 90 0 z "},"L":{"ha":678,"x_min":90,"x_max":650,"o":"m 304 188 l 650 188 l 650 0 l 90 0 l 90 936 l 304 936 l 304 188 z "},"M":{"ha":1240,"x_min":69,"x_max":1171,"o":"m 69 0 l 150 936 l 385 936 q 574 435 553 499 q 610 314 596 371 q 707 597 632 406 l 839 936 l 1074 936 l 1171 0 l 957 0 l 922 363 l 904 636 q 672 10 875 551 l 546 10 q 325 636 354 526 q 313 363 325 538 l 283 0 l 69 0 z "},"N":{"ha":968,"x_min":90,"x_max":878,"o":"m 90 0 l 90 936 l 325 936 l 543 549 q 678 264 638 381 q 664 549 664 367 l 664 936 l 878 936 l 878 0 l 643 0 l 419 388 q 294 643 332 536 l 283 678 q 304 388 304 553 l 304 0 l 90 0 z "},"O":{"ha":1022,"x_min":56,"x_max":967,"o":"m 346 680 q 315 641 346 680 q 285 471 285 603 q 346 262 285 339 q 511 185 407 185 q 676 262 615 185 q 738 471 738 339 q 676 680 738 603 q 511 757 615 757 q 346 680 407 757 m 510 -10 q 407 -10 510 -10 q 179 122 303 -10 q 56 470 56 254 q 180 819 56 686 q 512 951 304 951 q 843 819 719 951 q 967 472 967 688 q 842 123 967 256 q 510 -10 718 -10 z "},"P":{"ha":782,"x_min":90,"x_max":761,"o":"m 90 936 l 413 936 q 665 849 568 936 q 761 617 761 761 q 660 388 761 472 q 413 303 560 303 l 304 303 l 304 0 l 90 0 l 90 936 m 304 472 l 410 472 q 510 523 475 481 q 544 622 544 565 q 508 719 544 678 q 410 765 472 761 l 304 765 l 304 472 z "},"Q":{"ha":1029,"x_min":56,"x_max":1025,"o":"m 178 124 q 117 190 178 124 q 56 471 56 256 q 180 819 56 686 q 512 951 304 951 q 843 819 719 951 q 967 471 967 688 q 907 213 967 324 q 739 43 847 101 l 1025 -117 l 782 -210 l 506 -10 q 178 124 300 -8 m 346 680 q 315 641 346 680 q 285 471 285 603 q 346 262 285 339 q 511 185 407 185 q 676 262 615 185 q 738 471 738 339 q 676 680 738 603 q 511 757 615 757 q 346 680 407 757 z "},"R":{"ha":853,"x_min":90,"x_max":828,"o":"m 304 325 l 304 0 l 90 0 l 90 936 l 414 936 q 666 853 571 936 q 761 636 761 769 q 590 360 761 436 l 828 0 l 572 0 l 369 325 l 304 325 m 304 763 l 304 499 l 406 499 q 544 635 544 499 q 508 728 544 694 q 410 763 472 763 l 304 763 z "},"S":{"ha":714,"x_min":54,"x_max":672,"o":"m 397 760 q 315 738 343 760 q 286 681 286 715 q 321 619 286 646 q 412 567 356 592 q 497 527 468 542 q 562 487 525 513 q 619 433 599 461 q 672 272 672 364 q 579 67 672 146 q 326 -11 486 -11 q 63 47 167 -11 l 63 263 q 332 171 189 171 q 413 197 381 171 q 444 264 444 222 q 429 310 444 294 q 403 333 414 325 q 373 351 393 340 q 339 368 353 361 q 254 407 296 389 q 109 510 164 449 q 54 682 54 571 q 143 867 54 793 q 381 942 232 942 q 631 894 529 942 l 631 694 q 397 760 518 760 z "},"T":{"ha":756,"x_min":42,"x_max":714,"o":"m 714 936 l 714 764 l 486 764 l 486 0 l 271 0 l 271 764 l 42 764 l 42 936 l 714 936 z "},"U":{"ha":928,"x_min":83,"x_max":844,"o":"m 631 361 l 631 936 l 844 936 l 844 363 q 742 83 844 179 q 465 -14 639 -14 q 188 82 292 -14 q 83 353 83 178 l 83 936 l 297 936 l 297 354 q 464 181 297 181 q 631 361 631 181 z "},"V":{"ha":915,"x_min":26,"x_max":889,"o":"m 889 936 l 574 0 l 338 0 l 26 936 l 257 936 l 369 563 q 458 193 431 363 q 549 563 481 338 l 661 936 l 889 936 z "},"W":{"ha":1349,"x_min":26,"x_max":1322,"o":"m 599 922 l 757 922 q 940 233 910 374 q 1018 593 958 357 l 1104 936 l 1322 936 l 1072 0 l 833 0 q 678 592 690 517 q 603 296 674 535 l 517 0 l 278 0 l 26 936 l 251 936 q 383 391 365 481 q 411 233 401 301 q 599 922 433 335 z "},"X":{"ha":921,"x_min":38,"x_max":883,"o":"m 460 292 l 296 0 l 38 0 l 333 475 l 51 936 l 300 936 l 456 663 l 604 936 l 865 936 l 582 474 l 883 0 l 629 0 l 460 292 z "},"Y":{"ha":893,"x_min":18,"x_max":875,"o":"m 551 0 l 338 0 l 338 343 l 18 936 l 268 936 q 443 500 408 600 q 565 800 457 563 l 626 936 l 875 936 l 551 344 l 551 0 z "},"Z":{"ha":863,"x_min":83,"x_max":779,"o":"m 763 936 l 763 785 l 340 172 l 779 172 l 779 0 l 83 0 l 83 157 l 503 764 l 92 764 l 92 936 l 763 936 z "},"[":{"ha":504,"x_min":90,"x_max":483,"o":"m 483 806 l 282 806 l 282 -94 l 483 -94 l 483 -272 l 90 -272 l 90 982 l 483 982 l 483 806 z "},"\\":{"ha":644,"x_min":-62,"x_max":647,"o":"m 149 982 l 647 -143 l 438 -143 l -62 982 l 149 982 z "},"]":{"ha":504,"x_min":21,"x_max":414,"o":"m 414 982 l 414 -272 l 21 -272 l 21 -94 l 222 -94 l 222 806 l 21 806 l 21 982 l 414 982 z "},"^":{"ha":682,"x_min":46,"x_max":636,"o":"m 636 461 l 449 461 l 342 664 l 233 461 l 46 461 l 256 825 l 426 825 l 636 461 z "},"_":{"ha":758,"x_min":28,"x_max":731,"o":"m 28 -231 l 28 -62 l 731 -62 l 731 -231 l 28 -231 z "},"`":{"ha":694,"x_min":186,"x_max":508,"o":"m 389 1108 l 508 863 l 340 863 l 186 1108 l 389 1108 z "},"a":{"ha":717,"x_min":49,"x_max":640,"o":"m 103 669 q 340 717 186 717 q 567 652 493 717 q 640 451 640 588 l 640 0 l 442 0 l 442 86 q 267 -4 397 -4 q 106 54 164 -4 q 49 207 49 113 q 123 358 49 301 q 343 414 197 414 l 432 414 l 432 463 q 316 551 432 551 q 103 488 200 551 l 103 669 m 432 289 l 367 289 q 288 267 315 289 q 260 210 260 244 q 342 139 260 139 q 408 165 385 139 q 432 238 432 192 l 432 289 z "},"b":{"ha":849,"x_min":83,"x_max":800,"o":"m 286 982 l 286 596 q 493 713 358 713 q 714 617 628 713 q 800 363 800 521 q 717 99 800 206 q 496 -8 635 -8 q 286 110 357 -8 l 286 0 l 83 0 l 83 982 l 286 982 m 286 358 q 286 314 286 358 q 329 215 286 269 q 439 161 372 161 q 550 213 506 161 q 594 353 594 265 q 551 493 594 442 q 443 544 507 544 q 333 496 379 544 q 286 358 286 447 z "},"c":{"ha":651,"x_min":49,"x_max":610,"o":"m 254 350 q 310 206 260 257 q 444 154 360 154 q 610 203 529 154 l 610 33 q 413 -11 528 -11 q 151 90 254 -11 q 49 350 49 190 q 151 612 51 508 q 425 715 251 715 q 610 675 532 715 l 610 501 q 449 547 536 547 q 308 497 361 547 q 254 350 256 446 z "},"d":{"ha":849,"x_min":49,"x_max":765,"o":"m 563 982 l 765 982 l 765 0 l 563 0 l 563 110 q 353 -8 492 -8 q 131 99 214 -8 q 49 363 49 206 q 135 617 49 521 q 356 713 221 713 q 563 596 490 713 l 563 982 m 254 353 q 254 309 254 353 q 299 213 254 265 q 410 161 343 161 q 519 215 476 161 q 563 358 563 269 q 516 496 563 447 q 406 544 469 544 q 298 493 342 544 q 254 353 254 442 z "},"e":{"ha":740,"x_min":49,"x_max":679,"o":"m 636 40 q 403 -7 564 -7 q 145 94 242 -7 q 49 358 49 194 q 142 616 49 521 q 376 711 236 711 q 597 628 515 711 q 679 382 679 546 q 668 272 679 350 l 254 272 q 326 182 275 214 q 450 150 378 150 q 636 210 557 150 l 636 40 m 490 417 l 490 433 q 382 557 481 557 q 296 522 333 557 q 246 417 258 486 l 490 417 z "},"f":{"ha":481,"x_min":42,"x_max":508,"o":"m 508 822 q 428 838 469 838 q 335 731 335 838 l 335 704 l 467 704 l 467 556 l 335 556 l 335 0 l 133 0 l 133 556 l 42 556 l 42 704 l 133 704 l 133 731 q 205 929 133 858 q 403 1000 276 1000 q 508 986 468 1000 l 508 822 z "},"g":{"ha":813,"x_min":56,"x_max":736,"o":"m 535 704 l 736 704 l 736 68 q 635 -187 736 -101 q 383 -272 533 -272 q 121 -219 232 -272 l 121 -12 q 360 -90 218 -90 q 493 -51 451 -90 q 535 71 535 -12 l 535 118 q 349 24 474 24 q 140 110 224 24 q 56 356 56 196 q 137 613 56 515 q 347 711 218 711 q 535 611 475 711 l 535 704 m 267 362 q 267 319 267 362 q 300 231 267 276 q 397 185 333 185 q 498 234 461 185 q 535 353 535 283 q 397 542 535 542 q 301 494 336 542 q 267 362 267 447 z "},"h":{"ha":806,"x_min":83,"x_max":729,"o":"m 286 982 l 286 585 q 497 711 340 711 q 665 646 600 711 q 729 449 729 581 l 729 0 l 526 0 l 526 417 q 496 513 526 478 q 417 547 465 547 q 336 519 376 547 q 286 372 286 483 l 286 0 l 83 0 l 83 982 l 286 982 z "},"i":{"ha":383,"x_min":74,"x_max":310,"o":"m 108 825 q 91 842 108 825 q 74 908 74 860 q 108 992 74 957 q 192 1026 143 1026 q 275 992 240 1026 q 310 908 310 957 q 275 825 310 860 q 192 790 240 790 q 108 825 143 790 m 90 0 l 90 704 l 293 704 l 293 0 l 90 0 z "},"j":{"ha":381,"x_min":-56,"x_max":314,"o":"m 113 825 q 95 842 113 825 q 78 908 78 860 q 113 992 78 957 q 196 1026 147 1026 q 279 992 244 1026 q 314 908 314 957 q 279 825 314 860 q 196 790 244 790 q 113 825 147 790 m 24 -119 q 96 -26 96 -119 l 96 704 l 297 704 l 297 -29 q 235 -208 297 -140 q 54 -275 172 -275 q -56 -253 6 -275 l -56 -99 q 24 -119 -10 -119 z "},"k":{"ha":761,"x_min":83,"x_max":746,"o":"m 286 0 l 83 0 l 83 958 l 286 958 l 286 389 l 508 704 l 742 704 l 497 367 l 746 0 l 511 0 l 286 346 l 286 0 z "},"l":{"ha":383,"x_min":90,"x_max":293,"o":"m 90 0 l 90 982 l 293 982 l 293 0 l 90 0 z "},"m":{"ha":1193,"x_min":83,"x_max":1117,"o":"m 286 704 l 286 594 q 489 711 344 711 q 682 578 633 711 q 761 676 706 640 q 892 711 817 711 q 1056 645 996 711 q 1117 451 1117 579 l 1117 0 l 914 0 l 914 418 q 890 513 914 478 q 821 547 867 547 q 738 509 775 547 q 701 372 701 471 l 701 0 l 499 0 l 499 418 q 475 513 499 478 q 406 547 451 547 q 323 509 360 547 q 286 372 286 471 l 286 0 l 83 0 l 83 704 l 286 704 z "},"n":{"ha":806,"x_min":83,"x_max":729,"o":"m 286 704 l 286 585 q 367 677 313 643 q 499 711 422 711 q 668 647 607 711 q 729 457 729 582 l 729 0 l 526 0 l 526 419 q 497 515 526 482 q 414 547 468 547 q 323 503 360 547 q 286 372 286 460 l 286 0 l 83 0 l 83 704 l 286 704 z "},"o":{"ha":788,"x_min":49,"x_max":739,"o":"m 393 556 q 293 499 326 556 q 260 351 260 442 q 294 203 260 261 q 395 146 328 146 q 495 202 463 146 q 528 349 528 258 q 393 556 528 556 m 739 354 q 739 275 739 354 q 648 92 739 196 q 393 -11 557 -11 q 139 88 229 -11 q 49 347 49 188 q 143 610 49 506 q 398 715 238 715 q 649 614 558 715 q 739 354 739 513 z "},"p":{"ha":849,"x_min":83,"x_max":800,"o":"m 286 704 l 286 596 q 497 713 360 713 q 717 616 635 713 q 800 358 800 519 q 720 94 800 197 q 498 -8 640 -8 q 286 104 356 -8 l 286 -260 l 83 -260 l 83 704 l 286 704 m 286 358 q 286 314 286 358 q 331 215 286 269 q 443 161 375 161 q 553 212 511 161 q 594 354 594 263 q 552 495 594 446 q 445 544 510 544 q 333 496 381 544 q 286 358 286 447 z "},"q":{"ha":849,"x_min":49,"x_max":765,"o":"m 563 704 l 765 704 l 765 -260 l 563 -260 l 563 110 q 351 -8 492 -8 q 129 94 210 -8 q 49 358 49 197 q 132 616 49 519 q 353 713 215 713 q 563 596 490 713 l 563 704 m 254 353 q 254 309 254 353 q 299 213 254 265 q 410 161 343 161 q 519 215 476 161 q 563 358 563 269 q 516 496 563 447 q 406 544 469 544 q 298 493 342 544 q 254 353 254 442 z "},"r":{"ha":514,"x_min":82,"x_max":507,"o":"m 285 704 l 285 574 q 349 672 304 635 q 454 708 394 708 q 507 703 488 708 l 507 511 q 431 526 474 526 q 325 478 365 526 q 285 351 285 431 l 285 0 l 82 0 l 83 704 l 285 704 z "},"s":{"ha":606,"x_min":74,"x_max":564,"o":"m 356 553 q 300 538 319 553 q 281 506 281 524 q 288 478 281 489 q 310 457 294 467 q 341 440 326 447 q 381 421 356 432 q 519 331 475 381 q 564 213 564 281 q 489 51 564 108 q 288 -6 414 -6 q 76 38 163 -6 l 76 218 q 279 151 172 151 q 356 200 356 151 q 325 244 356 226 q 265 273 303 257 q 214 296 228 289 q 74 496 74 363 q 152 656 74 599 q 343 713 231 713 q 528 683 456 713 l 528 510 q 356 553 454 553 z "},"t":{"ha":536,"x_min":14,"x_max":494,"o":"m 318 556 l 318 232 q 340 175 318 194 q 406 156 361 156 q 494 183 451 156 l 494 15 q 356 -7 443 -7 q 115 233 115 -7 l 115 556 l 14 556 l 14 704 l 115 704 l 115 871 l 318 871 l 318 704 l 482 704 l 482 556 l 318 556 z "},"u":{"ha":806,"x_min":76,"x_max":722,"o":"m 519 704 l 722 704 l 722 0 l 519 0 l 519 113 q 306 -6 464 -6 q 137 55 197 -6 q 76 233 76 115 l 76 704 l 279 704 l 279 279 q 388 156 279 156 q 519 332 519 156 l 519 704 z "},"v":{"ha":744,"x_min":7,"x_max":738,"o":"m 267 0 l 7 704 l 219 704 q 347 276 331 342 q 372 157 363 211 q 435 404 385 247 l 529 704 l 738 704 l 475 0 l 267 0 z "},"w":{"ha":1119,"x_min":7,"x_max":1113,"o":"m 233 0 l 7 704 l 217 704 q 338 192 324 299 q 406 472 347 275 l 474 704 l 649 704 q 782 192 764 303 q 847 472 792 274 l 913 704 l 1113 704 l 888 0 l 679 0 q 561 492 578 385 q 503 231 547 399 l 442 0 l 233 0 z "},"x":{"ha":731,"x_min":22,"x_max":725,"o":"m 472 351 l 707 0 l 486 0 l 368 211 l 242 0 l 22 0 l 274 353 l 38 704 l 263 704 l 376 494 l 503 704 l 725 704 l 472 351 z "},"y":{"ha":739,"x_min":7,"x_max":732,"o":"m 143 -275 q 65 -268 100 -275 l 65 -107 q 113 -112 88 -112 q 279 11 228 -112 l 7 704 l 228 704 q 379 239 363 318 q 524 704 397 307 l 732 704 l 478 21 q 143 -275 368 -275 z "},"z":{"ha":665,"x_min":56,"x_max":610,"o":"m 593 704 l 593 564 l 285 157 l 610 157 l 610 0 l 56 0 l 56 146 l 364 549 l 68 549 l 68 704 l 593 704 z "},"{":{"ha":528,"x_min":56,"x_max":493,"o":"m 56 451 l 79 451 q 165 492 133 451 q 197 585 197 532 q 189 660 197 607 q 181 743 181 713 q 242 922 181 851 q 401 993 304 993 q 493 976 444 993 l 493 789 q 447 801 472 801 q 400 780 421 801 q 379 733 379 758 q 388 653 379 708 q 396 565 396 599 q 348 422 396 481 q 235 354 300 363 q 348 286 300 346 q 396 142 396 226 q 388 53 396 108 q 379 -26 379 -1 q 400 -73 379 -51 q 447 -94 421 -94 q 493 -82 472 -94 l 493 -269 q 401 -286 444 -286 q 242 -215 304 -286 q 181 -36 181 -144 q 189 47 181 -6 q 197 122 197 100 q 165 216 197 175 q 79 257 133 257 l 56 256 l 56 451 z "},"|":{"ha":389,"x_min":97,"x_max":292,"o":"m 97 -269 l 97 965 l 292 965 l 292 -269 l 97 -269 z "},"}":{"ha":528,"x_min":35,"x_max":472,"o":"m 449 451 l 472 451 l 472 256 q 449 257 463 257 q 363 216 394 257 q 331 122 331 175 q 339 47 331 100 q 347 -36 347 -6 q 285 -215 347 -144 q 126 -286 224 -286 q 35 -269 83 -286 l 35 -82 q 81 -94 56 -94 q 128 -73 107 -94 q 149 -26 149 -51 q 140 53 149 -1 q 132 142 132 108 q 180 286 132 226 q 293 354 228 346 q 180 422 228 363 q 132 565 132 481 q 140 653 132 599 q 149 733 149 708 q 128 780 149 758 q 81 801 107 801 q 35 789 56 801 l 35 976 q 126 993 83 993 q 285 922 224 993 q 347 743 347 851 q 339 660 347 713 q 331 585 331 607 q 363 492 331 532 q 449 451 394 451 z "},"~":{"ha":908,"x_min":39,"x_max":868,"o":"m 628 263 q 459 297 549 263 q 323 331 369 331 q 246 311 276 331 q 179 250 215 292 l 39 361 q 144 467 82 422 q 288 513 207 513 q 460 478 369 513 q 591 444 551 444 q 661 464 631 444 q 728 526 692 483 l 868 414 q 628 263 761 263 z "}," ":{"ha":347,"x_min":0,"x_max":0,"o":""},"¡":{"ha":401,"x_min":72,"x_max":325,"o":"m 104 -229 l 104 379 l 297 379 l 297 -229 l 104 -229 m 109 502 q 91 520 109 502 q 72 592 72 539 q 109 681 72 644 q 199 718 146 718 q 288 681 251 718 q 325 592 325 644 q 288 502 325 539 q 199 465 251 465 q 109 502 146 465 z "},"¢":{"ha":664,"x_min":42,"x_max":608,"o":"m 608 501 q 447 547 535 547 q 303 496 358 547 q 247 350 249 444 q 305 206 253 258 q 442 154 357 154 q 608 203 528 154 l 608 33 q 499 -3 560 8 l 499 -154 l 331 -154 l 331 -4 q 122 117 203 21 q 42 350 42 213 q 120 582 44 485 q 329 706 196 679 l 329 861 l 499 861 l 499 708 q 608 671 558 697 l 608 501 z "},"£":{"ha":750,"x_min":61,"x_max":704,"o":"m 704 171 l 704 0 l 63 0 l 63 168 q 164 349 164 221 l 164 371 l 61 371 l 61 518 l 144 518 q 140 583 140 551 q 222 828 140 740 q 465 917 304 917 q 656 872 583 917 l 656 681 q 511 726 592 726 q 365 575 365 726 q 368 518 365 557 l 599 518 l 599 371 l 383 371 l 383 347 q 299 171 383 225 l 704 171 z "},"¤":{"ha":793,"x_min":39,"x_max":754,"o":"m 292 537 q 271 515 292 537 q 250 432 250 493 q 292 327 250 371 q 397 283 333 283 q 503 327 461 283 q 544 432 544 371 q 503 537 544 493 q 397 581 461 581 q 292 537 333 581 m 121 276 q 81 431 81 349 q 119 585 81 514 l 39 664 l 157 778 l 238 699 q 396 738 308 738 q 556 700 483 738 l 636 778 l 754 664 l 674 585 q 714 431 714 511 q 672 276 714 350 l 754 197 l 636 83 l 554 161 q 397 125 485 125 q 238 163 308 125 l 157 83 l 39 197 l 121 276 z "},"¥":{"ha":882,"x_min":13,"x_max":869,"o":"m 789 501 l 789 376 l 561 376 l 546 350 l 546 288 l 789 288 l 789 163 l 546 163 l 546 0 l 332 0 l 332 163 l 92 163 l 92 288 l 332 288 l 332 350 l 317 376 l 92 376 l 92 501 l 246 501 l 13 910 l 263 910 l 438 568 l 621 910 l 869 910 l 633 501 l 789 501 z "},"¦":{"ha":389,"x_min":97,"x_max":292,"o":"m 292 -162 l 97 -162 l 97 307 l 292 307 l 292 -162 m 292 513 l 97 513 l 97 982 l 292 982 l 292 513 z "},"§":{"ha":832,"x_min":79,"x_max":738,"o":"m 665 696 q 438 763 550 763 q 325 694 325 763 q 339 658 325 669 q 363 638 353 646 q 395 619 374 631 q 435 597 417 607 q 488 571 454 588 q 549 539 521 554 q 691 431 644 489 q 738 278 738 372 q 679 114 738 183 q 722 -11 722 57 q 633 -193 722 -126 q 383 -260 543 -260 q 119 -201 224 -260 l 119 14 q 389 -78 246 -78 q 503 -11 503 -78 q 461 52 503 25 q 247 154 419 79 q 79 408 79 229 q 143 571 79 494 q 101 693 101 624 q 187 876 101 807 q 416 944 272 944 q 665 896 560 944 l 665 696 m 300 456 q 285 397 285 429 q 321 336 285 365 q 426 277 357 307 q 521 233 496 247 q 532 276 532 256 q 524 313 532 297 q 506 341 517 329 q 473 367 496 353 q 432 389 450 381 q 300 456 367 422 z "},"¨":{"ha":694,"x_min":46,"x_max":649,"o":"m 533 872 q 508 872 533 872 q 451 905 483 872 q 418 985 418 938 q 451 1066 418 1033 q 533 1099 483 1099 q 615 1066 582 1099 q 649 985 649 1033 q 615 905 649 938 q 533 872 582 872 m 160 872 q 136 872 160 872 q 78 905 111 872 q 46 985 46 938 q 78 1066 46 1033 q 160 1099 111 1099 q 242 1066 210 1099 q 275 985 275 1033 q 242 905 275 938 q 160 872 210 872 z "},"©":{"ha":1057,"x_min":49,"x_max":1008,"o":"m 464 468 q 495 392 467 419 q 573 365 524 365 q 676 399 622 365 l 676 267 q 535 238 622 238 q 377 301 447 238 q 308 469 307 365 q 374 638 308 572 q 551 703 440 703 q 676 672 619 703 l 676 542 q 577 572 628 572 q 496 546 526 572 q 464 468 465 519 m 528 813 q 454 813 528 813 q 281 715 379 813 q 183 467 183 617 q 281 219 183 317 q 528 122 379 122 q 776 219 678 122 q 874 467 874 317 q 776 715 874 617 q 528 813 678 813 m 190 130 q 119 200 190 130 q 49 469 49 271 q 190 808 49 668 q 529 949 331 949 q 868 808 728 949 q 1008 469 1008 667 q 868 130 1008 271 q 529 -11 728 -11 q 190 130 331 -11 z "},"ª":{"ha":556,"x_min":14,"x_max":514,"o":"m 58 1111 q 260 1150 131 1150 q 452 1096 390 1150 q 514 928 514 1042 l 514 544 l 347 544 l 347 617 q 197 540 311 540 q 63 589 111 540 q 14 718 14 638 q 76 847 14 799 q 263 896 139 896 l 339 896 l 339 935 q 240 1010 339 1010 q 58 957 142 1010 l 58 1111 m 339 789 l 282 789 q 215 770 239 789 q 192 721 192 751 q 263 661 192 661 q 318 684 297 661 q 339 744 339 707 l 339 789 z "},"«":{"ha":822,"x_min":36,"x_max":764,"o":"m 764 576 l 561 351 l 764 126 l 553 126 l 342 351 l 553 576 l 764 576 m 458 576 l 256 351 l 458 126 l 247 126 l 36 351 l 247 576 l 458 576 z "},"¬":{"ha":838,"x_min":63,"x_max":775,"o":"m 775 189 l 608 189 l 608 418 l 63 418 l 63 579 l 775 579 l 775 189 z "},"­":{"ha":496,"x_min":63,"x_max":433,"o":"m 63 281 l 63 447 l 433 447 l 433 281 l 63 281 z "},"®":{"ha":683,"x_min":14,"x_max":669,"o":"m 14 765 q 14 837 14 765 q 106 1000 14 908 q 341 1092 199 1092 q 576 999 483 1092 q 669 765 669 907 q 576 532 669 624 q 341 440 483 440 q 106 531 199 440 q 14 765 14 622 m 100 765 q 100 710 100 765 q 166 589 100 656 q 342 522 232 522 q 519 589 453 522 q 585 765 585 656 q 519 943 585 875 q 342 1011 453 1011 q 166 943 232 1011 q 100 765 100 875 m 242 940 l 339 940 q 465 836 465 940 q 413 744 465 769 l 496 611 l 404 611 l 335 731 l 317 731 l 317 611 l 242 611 l 242 940 m 317 878 l 317 793 l 347 793 q 376 806 365 793 q 386 836 386 818 q 342 878 386 878 l 317 878 z "},"¯":{"ha":694,"x_min":100,"x_max":594,"o":"m 594 904 l 100 904 l 100 1042 l 594 1042 l 594 904 z "},"°":{"ha":611,"x_min":42,"x_max":569,"o":"m 219 774 q 201 756 219 774 q 183 688 183 738 q 219 601 183 638 q 306 565 256 565 q 392 601 356 565 q 428 688 428 638 q 392 774 428 738 q 306 810 356 810 q 219 774 256 810 m 119 501 q 80 539 119 501 q 42 688 42 578 q 119 874 42 797 q 306 951 196 951 q 492 874 415 951 q 569 688 569 797 q 492 501 569 578 q 306 424 415 424 q 119 501 196 424 z "},"±":{"ha":818,"x_min":63,"x_max":756,"o":"m 501 619 l 756 619 l 756 453 l 501 453 l 501 258 l 315 258 l 315 453 l 63 453 l 63 619 l 315 619 l 315 813 l 501 813 l 501 619 m 63 39 l 63 206 l 756 206 l 756 39 l 63 39 z "},"²":{"ha":507,"x_min":49,"x_max":458,"o":"m 49 544 l 49 651 q 217 801 149 724 q 285 940 285 879 q 200 1011 285 1011 q 63 960 135 1011 l 63 1106 q 228 1151 135 1151 q 380 1101 321 1151 q 439 961 439 1050 q 233 669 439 801 l 458 669 l 458 544 l 49 544 z "},"³":{"ha":490,"x_min":49,"x_max":442,"o":"m 151 908 l 171 908 q 278 965 278 908 q 206 1022 278 1022 q 71 974 135 1022 l 71 1114 q 227 1151 136 1151 q 375 1105 318 1151 q 432 983 432 1058 q 402 894 432 929 q 319 847 372 858 q 407 806 372 842 q 442 701 442 769 q 384 585 442 632 q 222 539 326 539 q 49 576 118 539 l 49 707 q 206 665 128 665 q 267 683 244 665 q 290 728 290 701 q 172 785 290 785 l 151 785 l 151 908 z "},"´":{"ha":694,"x_min":186,"x_max":508,"o":"m 186 863 l 306 1108 l 508 1108 l 354 863 l 186 863 z "},"µ":{"ha":813,"x_min":83,"x_max":729,"o":"m 526 704 l 729 704 l 729 0 l 526 0 l 526 83 q 382 -6 479 -6 q 286 14 332 -6 l 286 -250 l 83 -250 l 83 704 l 286 704 l 286 279 q 321 188 286 219 q 413 156 356 156 q 498 195 469 156 q 526 332 526 235 l 526 704 z "},"¶":{"ha":822,"x_min":14,"x_max":732,"o":"m 732 936 l 732 -206 l 578 -206 l 579 936 l 732 936 m 450 936 l 450 -206 l 296 -206 l 296 440 q 88 513 161 440 q 14 690 14 586 q 90 865 14 793 q 322 936 165 936 l 450 936 z "},"·":{"ha":372,"x_min":63,"x_max":310,"o":"m 99 263 q 81 281 99 263 q 63 350 63 299 q 99 438 63 401 q 186 474 135 474 q 274 438 238 474 q 310 350 310 401 q 274 263 310 299 q 186 226 238 226 q 99 263 135 226 z "},"¸":{"ha":694,"x_min":222,"x_max":471,"o":"m 471 -174 q 408 -317 471 -261 q 222 -372 344 -372 l 222 -246 q 299 -222 272 -246 q 326 -158 326 -199 q 290 -71 326 -118 l 447 -71 q 471 -174 471 -108 z "},"¹":{"ha":388,"x_min":14,"x_max":318,"o":"m 318 1146 l 318 544 l 175 544 l 175 990 l 14 904 l 14 1040 l 200 1146 l 318 1146 z "},"º":{"ha":614,"x_min":14,"x_max":600,"o":"m 306 1018 q 221 969 249 1018 q 193 844 193 921 q 222 718 193 767 q 309 669 251 669 q 394 717 367 669 q 421 840 421 764 q 306 1018 421 1018 m 600 846 q 600 778 600 846 q 523 624 600 711 q 306 536 446 536 q 90 621 167 536 q 14 840 14 706 q 94 1064 14 975 q 311 1153 174 1153 q 524 1067 449 1153 q 600 846 600 981 z "},"»":{"ha":821,"x_min":57,"x_max":785,"o":"m 574 576 l 785 351 l 574 126 l 363 126 l 565 351 l 363 576 l 574 576 m 268 576 l 479 351 l 268 126 l 57 126 l 260 351 l 57 576 l 268 576 z "},"¿":{"ha":636,"x_min":90,"x_max":594,"o":"m 505 683 q 523 664 505 683 q 542 593 542 646 q 505 503 542 540 q 415 467 468 467 q 326 503 363 467 q 289 593 289 540 q 326 683 289 646 q 415 719 363 719 q 505 683 468 719 m 594 -200 q 381 -239 511 -239 q 171 -170 251 -239 q 90 15 90 -101 q 115 128 90 78 q 178 208 140 179 q 317 267 256 267 l 321 381 l 506 381 l 510 171 q 296 40 296 171 q 326 -40 296 -10 q 414 -69 356 -69 q 594 -10 504 -69 l 594 -200 z "},"À":{"ha":958,"x_min":32,"x_max":926,"o":"m 697 0 l 640 192 l 313 192 l 256 0 l 32 0 l 344 936 l 614 936 l 926 0 l 697 0 m 364 364 l 589 364 q 476 781 496 682 q 364 364 468 719 m 564 1001 l 396 1001 l 242 1247 l 444 1247 l 564 1001 z "},"Á":{"ha":958,"x_min":32,"x_max":926,"o":"m 697 0 l 640 192 l 313 192 l 256 0 l 32 0 l 344 936 l 614 936 l 926 0 l 697 0 m 364 364 l 589 364 q 476 781 496 682 q 364 364 468 719 m 732 1247 l 578 1001 l 410 1001 l 529 1247 l 732 1247 z "},"Â":{"ha":958,"x_min":32,"x_max":926,"o":"m 697 0 l 640 192 l 313 192 l 256 0 l 32 0 l 344 936 l 614 936 l 926 0 l 697 0 m 364 364 l 589 364 q 476 781 496 682 q 364 364 468 719 m 481 1135 l 371 1001 l 178 1001 l 394 1247 l 567 1247 l 783 1001 l 590 1001 l 481 1135 z "},"Ã":{"ha":958,"x_min":32,"x_max":926,"o":"m 697 0 l 640 192 l 313 192 l 256 0 l 32 0 l 344 936 l 614 936 l 926 0 l 697 0 m 364 364 l 589 364 q 476 781 496 682 q 364 364 468 719 m 568 1029 q 472 1053 522 1029 q 394 1078 422 1078 q 347 1066 367 1078 q 297 1018 328 1054 l 207 1107 q 273 1188 229 1154 q 367 1221 317 1221 q 474 1197 418 1221 q 557 1172 531 1172 q 654 1232 625 1172 l 757 1147 q 568 1029 697 1029 z "},"Ä":{"ha":958,"x_min":32,"x_max":926,"o":"m 697 0 l 640 192 l 313 192 l 256 0 l 32 0 l 344 936 l 614 936 l 926 0 l 697 0 m 364 364 l 589 364 q 476 781 496 682 q 364 364 468 719 m 417 1124 q 417 1100 417 1124 q 384 1044 417 1076 q 302 1011 351 1011 q 220 1044 253 1011 q 188 1124 188 1076 q 220 1205 188 1172 q 302 1238 253 1238 q 384 1205 351 1238 q 417 1124 417 1172 m 790 1124 q 790 1100 790 1124 q 757 1044 790 1076 q 674 1011 724 1011 q 592 1044 625 1011 q 560 1124 560 1076 q 592 1205 560 1172 q 674 1238 625 1238 q 757 1205 724 1238 q 790 1124 790 1172 z "},"Å":{"ha":958,"x_min":32,"x_max":926,"o":"m 697 0 l 640 192 l 313 192 l 256 0 l 32 0 l 344 936 l 614 936 l 926 0 l 697 0 m 364 364 l 589 364 q 476 781 496 682 q 364 364 468 719 m 618 1042 q 590 1014 618 1042 q 485 986 563 986 q 351 1042 407 986 q 296 1175 296 1097 q 351 1308 296 1253 q 485 1364 407 1364 q 618 1308 563 1364 q 674 1175 674 1253 q 618 1042 674 1097 m 538 1234 q 527 1245 538 1234 q 485 1257 517 1257 q 432 1234 453 1257 q 411 1179 411 1211 q 432 1124 411 1147 q 485 1101 453 1101 q 538 1124 517 1101 q 558 1179 558 1147 q 538 1234 558 1211 z "},"Æ":{"ha":1306,"x_min":11,"x_max":1222,"o":"m 856 171 l 1222 171 l 1222 0 l 649 0 l 649 192 l 331 192 l 235 0 l 11 0 l 463 936 l 1217 936 l 1217 765 l 856 765 l 856 553 l 1178 553 l 1178 383 l 856 383 l 856 171 m 649 364 l 649 853 q 418 364 601 731 l 649 364 z "},"Ç":{"ha":851,"x_min":56,"x_max":782,"o":"m 782 690 q 558 754 678 754 q 361 676 438 754 q 285 467 285 597 q 361 260 285 336 q 563 185 438 185 q 782 251 689 185 l 782 42 q 538 -11 697 -11 q 194 122 332 -11 q 56 467 56 254 q 190 814 56 679 q 539 949 324 949 q 782 896 697 949 l 782 690 m 622 -174 q 559 -317 622 -261 q 374 -372 496 -372 l 374 -246 q 451 -222 424 -246 q 478 -158 478 -199 q 442 -71 478 -118 l 599 -71 q 622 -174 622 -108 z "},"È":{"ha":756,"x_min":90,"x_max":672,"o":"m 306 171 l 672 171 l 672 0 l 90 0 l 90 936 l 667 936 l 667 765 l 306 765 l 306 553 l 628 553 l 628 383 l 306 383 l 306 171 m 481 1001 l 313 1001 l 158 1247 l 361 1247 l 481 1001 z "},"É":{"ha":756,"x_min":90,"x_max":672,"o":"m 306 171 l 672 171 l 672 0 l 90 0 l 90 936 l 667 936 l 667 765 l 306 765 l 306 553 l 628 553 l 628 383 l 306 383 l 306 171 m 631 1247 l 476 1001 l 308 1001 l 428 1247 l 631 1247 z "},"Ê":{"ha":756,"x_min":75,"x_max":681,"o":"m 306 383 l 306 171 l 672 171 l 672 0 l 90 0 l 90 936 l 667 936 l 667 765 l 306 765 l 306 553 l 628 553 l 628 383 l 306 383 m 378 1135 l 268 1001 l 75 1001 l 292 1247 l 464 1247 l 681 1001 l 488 1001 l 378 1135 z "},"Ë":{"ha":756,"x_min":76,"x_max":679,"o":"m 306 383 l 306 171 l 672 171 l 672 0 l 90 0 l 90 936 l 667 936 l 667 765 l 306 765 l 306 553 l 628 553 l 628 383 l 306 383 m 306 1123 q 306 1099 306 1123 q 273 1042 306 1075 q 191 1010 240 1010 q 109 1042 142 1010 q 76 1123 76 1075 q 109 1203 76 1171 q 191 1236 142 1236 q 273 1203 240 1236 q 306 1123 306 1171 m 679 1123 q 679 1099 679 1123 q 646 1042 679 1075 q 563 1010 613 1010 q 481 1042 514 1010 q 449 1123 449 1075 q 481 1203 449 1171 q 563 1236 514 1236 q 646 1203 613 1236 q 679 1123 679 1171 z "},"Ì":{"ha":422,"x_min":-33,"x_max":318,"o":"m 169 1247 l 289 1001 l 121 1001 l -33 1247 l 169 1247 m 104 0 l 104 936 l 318 936 l 318 0 l 104 0 z "},"Í":{"ha":422,"x_min":104,"x_max":453,"o":"m 131 1001 l 250 1247 l 453 1247 l 299 1001 l 131 1001 m 104 0 l 104 936 l 318 936 l 318 0 l 104 0 z "},"Î":{"ha":422,"x_min":-89,"x_max":517,"o":"m 104 0 l 104 936 l 318 936 l 318 0 l 104 0 m 128 1247 l 300 1247 l 517 1001 l 324 1001 l 214 1135 l 104 1001 l -89 1001 l 128 1247 z "},"Ï":{"ha":422,"x_min":-82,"x_max":521,"o":"m 405 1011 q 380 1011 405 1011 q 323 1044 356 1011 q 290 1124 290 1076 q 323 1205 290 1172 q 405 1238 356 1238 q 488 1205 454 1238 q 521 1124 521 1172 q 488 1044 521 1076 q 405 1011 454 1011 m 33 1011 q 8 1011 33 1011 q -49 1044 -17 1011 q -82 1124 -82 1076 q -49 1205 -82 1172 q 33 1238 -17 1238 q 115 1205 82 1238 q 147 1124 147 1172 q 115 1044 147 1076 q 33 1011 82 1011 m 104 0 l 104 936 l 318 936 l 318 0 l 104 0 z "},"Ð":{"ha":1040,"x_min":90,"x_max":985,"o":"m 182 936 l 504 936 q 850 806 715 936 q 985 483 985 676 q 852 129 985 258 q 501 0 719 0 l 182 0 l 182 374 l 90 374 l 90 546 l 182 546 l 182 936 m 401 175 l 499 175 q 698 256 628 175 q 768 472 768 336 q 697 684 768 608 q 497 760 626 760 l 401 760 l 401 546 l 593 546 l 593 374 l 401 374 l 401 175 z "},"Ñ":{"ha":968,"x_min":90,"x_max":878,"o":"m 578 1029 q 482 1053 532 1029 q 404 1078 432 1078 q 357 1066 376 1078 q 307 1018 338 1054 l 217 1107 q 283 1188 239 1154 q 377 1221 326 1221 q 484 1197 428 1221 q 567 1172 540 1172 q 664 1232 633 1172 l 767 1147 q 578 1029 708 1029 m 90 0 l 90 936 l 325 936 l 543 549 q 678 264 638 381 q 664 549 664 367 l 664 936 l 878 936 l 878 0 l 643 0 l 419 388 q 294 643 332 536 l 283 678 q 304 388 304 553 l 304 0 l 90 0 z "},"Ò":{"ha":1022,"x_min":56,"x_max":967,"o":"m 489 1247 l 608 1001 l 440 1001 l 286 1247 l 489 1247 m 346 680 q 315 641 346 680 q 285 471 285 603 q 346 262 285 339 q 511 185 407 185 q 676 262 615 185 q 738 471 738 339 q 676 680 738 603 q 511 757 615 757 q 346 680 407 757 m 510 -10 q 407 -10 510 -10 q 179 122 303 -10 q 56 470 56 254 q 180 819 56 686 q 512 951 304 951 q 843 819 719 951 q 967 472 967 688 q 842 123 967 256 q 510 -10 718 -10 z "},"Ó":{"ha":1022,"x_min":56,"x_max":967,"o":"m 346 680 q 315 641 346 680 q 285 471 285 603 q 346 262 285 339 q 511 185 407 185 q 676 262 615 185 q 738 471 738 339 q 676 680 738 603 q 511 757 615 757 q 346 680 407 757 m 510 -10 q 407 -10 510 -10 q 179 122 303 -10 q 56 470 56 254 q 180 819 56 686 q 512 951 304 951 q 843 819 719 951 q 967 472 967 688 q 842 123 967 256 q 510 -10 718 -10 m 432 1001 l 551 1247 l 754 1247 l 600 1001 l 432 1001 z "},"Ô":{"ha":1022,"x_min":56,"x_max":967,"o":"m 431 1247 l 603 1247 l 819 1001 l 626 1001 l 517 1135 l 407 1001 l 214 1001 l 431 1247 m 510 -10 q 407 -10 510 -10 q 179 122 303 -10 q 56 470 56 254 q 180 819 56 686 q 512 951 304 951 q 843 819 719 951 q 967 472 967 688 q 842 123 967 256 q 510 -10 718 -10 m 346 680 q 315 641 346 680 q 285 471 285 603 q 346 262 285 339 q 511 185 407 185 q 676 262 615 185 q 738 471 738 339 q 676 680 738 603 q 511 757 615 757 q 346 680 407 757 z "},"Õ":{"ha":1022,"x_min":56,"x_max":967,"o":"m 597 1028 q 501 1052 551 1028 q 424 1076 451 1076 q 376 1065 396 1076 q 326 1017 357 1053 l 236 1106 q 302 1186 258 1153 q 397 1219 346 1219 q 503 1195 447 1219 q 586 1171 560 1171 q 683 1231 653 1171 l 786 1146 q 597 1028 728 1028 m 346 680 q 315 641 346 680 q 285 471 285 603 q 346 262 285 339 q 511 185 407 185 q 676 262 615 185 q 738 471 738 339 q 676 680 738 603 q 511 757 615 757 q 346 680 407 757 m 510 -10 q 407 -10 510 -10 q 179 122 303 -10 q 56 470 56 254 q 180 819 56 686 q 512 951 304 951 q 843 819 719 951 q 967 472 967 688 q 842 123 967 256 q 510 -10 718 -10 z "},"Ö":{"ha":1022,"x_min":56,"x_max":967,"o":"m 346 680 q 315 641 346 680 q 285 471 285 603 q 346 262 285 339 q 511 185 407 185 q 676 262 615 185 q 738 471 738 339 q 676 680 738 603 q 511 757 615 757 q 346 680 407 757 m 510 -10 q 407 -10 510 -10 q 179 122 303 -10 q 56 470 56 254 q 180 819 56 686 q 512 951 304 951 q 843 819 719 951 q 967 472 967 688 q 842 123 967 256 q 510 -10 718 -10 m 709 1011 q 684 1011 709 1011 q 627 1044 660 1011 q 594 1124 594 1076 q 627 1205 594 1172 q 709 1238 660 1238 q 792 1205 758 1238 q 825 1124 825 1172 q 792 1044 825 1076 q 709 1011 758 1011 m 337 1011 q 312 1011 337 1011 q 255 1044 288 1011 q 222 1124 222 1076 q 255 1205 222 1172 q 337 1238 288 1238 q 419 1205 386 1238 q 451 1124 451 1172 q 419 1044 451 1076 q 337 1011 386 1011 z "},"×":{"ha":736,"x_min":58,"x_max":676,"o":"m 676 290 l 549 163 l 368 342 l 192 165 l 60 296 l 238 474 l 58 651 l 186 779 l 365 601 l 542 778 l 674 647 l 496 469 l 676 290 z "},"Ø":{"ha":992,"x_min":53,"x_max":965,"o":"m 856 801 q 964 465 964 674 q 840 123 964 256 q 508 -10 715 -10 q 292 38 389 -10 l 257 -10 l 54 -10 l 163 138 q 53 476 53 267 q 177 819 53 686 q 508 951 301 951 q 729 903 632 951 l 764 950 l 965 950 l 856 801 m 508 768 q 336 688 400 768 q 272 471 272 607 q 297 319 272 382 l 613 746 q 508 768 564 768 m 508 174 q 681 254 617 174 q 744 471 744 335 q 721 618 744 556 l 408 194 q 508 174 453 174 z "},"Ù":{"ha":928,"x_min":83,"x_max":844,"o":"m 439 1247 l 558 1001 l 390 1001 l 236 1247 l 439 1247 m 631 361 l 631 936 l 844 936 l 844 363 q 742 83 844 179 q 465 -14 639 -14 q 188 82 292 -14 q 83 353 83 178 l 83 936 l 297 936 l 297 354 q 464 181 297 181 q 631 361 631 181 z "},"Ú":{"ha":928,"x_min":83,"x_max":844,"o":"m 631 361 l 631 936 l 844 936 l 844 363 q 742 83 844 179 q 465 -14 639 -14 q 188 82 292 -14 q 83 353 83 178 l 83 936 l 297 936 l 297 354 q 464 181 297 181 q 631 361 631 181 m 399 1001 l 518 1247 l 721 1247 l 567 1001 l 399 1001 z "},"Û":{"ha":928,"x_min":83,"x_max":844,"o":"m 375 1247 l 547 1247 l 764 1001 l 571 1001 l 461 1135 l 351 1001 l 158 1001 l 375 1247 m 631 361 l 631 936 l 844 936 l 844 363 q 742 83 844 179 q 465 -14 639 -14 q 188 82 292 -14 q 83 353 83 178 l 83 936 l 297 936 l 297 354 q 464 181 297 181 q 631 361 631 181 z "},"Ü":{"ha":928,"x_min":83,"x_max":844,"o":"m 631 361 l 631 936 l 844 936 l 844 363 q 742 83 844 179 q 465 -14 639 -14 q 188 82 292 -14 q 83 353 83 178 l 83 936 l 297 936 l 297 354 q 464 181 297 181 q 631 361 631 181 m 656 1010 q 632 1010 656 1010 q 574 1042 607 1010 q 542 1123 542 1075 q 574 1203 542 1171 q 656 1236 607 1236 q 739 1203 706 1236 q 772 1123 772 1171 q 739 1042 772 1075 q 656 1010 706 1010 m 284 1010 q 259 1010 284 1010 q 202 1042 235 1010 q 169 1123 169 1075 q 202 1203 169 1171 q 284 1236 235 1236 q 366 1203 333 1236 q 399 1123 399 1171 q 366 1042 399 1075 q 284 1010 333 1010 z "},"Ý":{"ha":893,"x_min":18,"x_max":875,"o":"m 551 0 l 338 0 l 338 343 l 18 936 l 268 936 q 443 500 408 600 q 565 800 457 563 l 626 936 l 875 936 l 551 344 l 551 0 m 704 1247 l 550 1001 l 382 1001 l 501 1247 l 704 1247 z "},"Þ":{"ha":782,"x_min":90,"x_max":761,"o":"m 304 783 l 413 783 q 665 697 569 783 q 761 465 761 610 q 660 237 761 321 q 413 153 560 153 l 304 153 l 304 0 l 90 0 l 90 936 l 304 936 l 304 783 m 304 322 l 396 322 q 507 363 469 322 q 544 465 544 403 q 510 569 544 526 q 396 613 475 613 l 304 613 l 304 322 z "},"ß":{"ha":831,"x_min":83,"x_max":803,"o":"m 529 146 q 590 165 567 146 q 614 215 614 185 q 593 271 614 246 q 543 317 572 296 q 483 360 514 338 q 413 488 413 413 q 452 605 413 540 q 492 703 492 669 q 406 782 492 782 q 281 653 281 782 l 281 0 l 83 0 l 83 640 q 164 875 83 792 q 387 958 244 958 q 613 888 529 958 q 697 721 697 818 q 639 557 697 642 q 621 511 621 529 q 649 469 621 493 q 712 421 678 446 q 774 342 746 396 q 803 221 803 289 q 734 51 803 115 q 552 -12 665 -12 q 389 21 439 -12 l 389 192 q 529 146 460 146 z "},"à":{"ha":717,"x_min":49,"x_max":640,"o":"m 103 669 q 340 717 186 717 q 567 652 493 717 q 640 451 640 588 l 640 0 l 442 0 l 442 86 q 267 -4 397 -4 q 106 54 164 -4 q 49 207 49 113 q 123 358 49 301 q 343 414 197 414 l 432 414 l 432 463 q 316 551 432 551 q 103 488 200 551 l 103 669 m 432 289 l 367 289 q 288 267 315 289 q 260 210 260 244 q 342 139 260 139 q 408 165 385 139 q 432 238 432 192 l 432 289 m 453 769 l 285 769 l 131 1015 l 333 1015 l 453 769 z "},"á":{"ha":717,"x_min":49,"x_max":640,"o":"m 103 669 q 340 717 186 717 q 567 652 493 717 q 640 451 640 588 l 640 0 l 442 0 l 442 86 q 267 -4 397 -4 q 106 54 164 -4 q 49 207 49 113 q 123 358 49 301 q 343 414 197 414 l 432 414 l 432 463 q 316 551 432 551 q 103 488 200 551 l 103 669 m 432 289 l 367 289 q 288 267 315 289 q 260 210 260 244 q 342 139 260 139 q 408 165 385 139 q 432 238 432 192 l 432 289 m 592 1015 l 438 769 l 269 769 l 389 1015 l 592 1015 z "},"â":{"ha":717,"x_min":49,"x_max":658,"o":"m 103 669 q 340 717 186 717 q 567 652 493 717 q 640 451 640 588 l 640 0 l 442 0 l 442 86 q 267 -4 397 -4 q 106 54 164 -4 q 49 207 49 113 q 123 358 49 301 q 343 414 197 414 l 432 414 l 432 463 q 316 551 432 551 q 103 488 200 551 l 103 669 m 432 289 l 367 289 q 288 267 315 289 q 260 210 260 244 q 342 139 260 139 q 408 165 385 139 q 432 238 432 192 l 432 289 m 356 903 l 246 769 l 53 769 l 269 1015 l 442 1015 l 658 769 l 465 769 l 356 903 z "},"ã":{"ha":717,"x_min":49,"x_max":640,"o":"m 103 669 q 340 717 186 717 q 567 652 493 717 q 640 451 640 588 l 640 0 l 442 0 l 442 86 q 267 -4 397 -4 q 106 54 164 -4 q 49 207 49 113 q 123 358 49 301 q 343 414 197 414 l 432 414 l 432 463 q 316 551 432 551 q 103 488 200 551 l 103 669 m 432 289 l 367 289 q 288 267 315 289 q 260 210 260 244 q 342 139 260 139 q 408 165 385 139 q 432 238 432 192 l 432 289 m 442 797 q 346 822 396 797 q 268 846 296 846 q 221 834 240 846 q 171 786 201 822 l 81 875 q 147 956 103 922 q 241 989 190 989 q 348 965 292 989 q 431 940 404 940 q 528 1000 497 940 l 631 915 q 442 797 572 797 z "},"ä":{"ha":717,"x_min":49,"x_max":669,"o":"m 103 669 q 340 717 186 717 q 567 652 493 717 q 640 451 640 588 l 640 0 l 442 0 l 442 86 q 267 -4 397 -4 q 106 54 164 -4 q 49 207 49 113 q 123 358 49 301 q 343 414 197 414 l 432 414 l 432 463 q 316 551 432 551 q 103 488 200 551 l 103 669 m 432 289 l 367 289 q 288 267 315 289 q 260 210 260 244 q 342 139 260 139 q 408 165 385 139 q 432 238 432 192 l 432 289 m 296 892 q 296 868 296 892 q 263 812 296 844 q 181 779 231 779 q 99 812 132 779 q 67 892 67 844 q 99 973 67 940 q 181 1006 132 1006 q 263 973 231 1006 q 296 892 296 940 m 669 892 q 669 868 669 892 q 636 812 669 844 q 553 779 603 779 q 472 812 504 779 q 439 892 439 844 q 472 973 439 940 q 553 1006 504 1006 q 636 973 603 1006 q 669 892 669 940 z "},"å":{"ha":717,"x_min":49,"x_max":640,"o":"m 103 669 q 340 717 186 717 q 567 652 493 717 q 640 451 640 588 l 640 0 l 442 0 l 442 86 q 267 -4 397 -4 q 106 54 164 -4 q 49 207 49 113 q 123 358 49 301 q 343 414 197 414 l 432 414 l 432 463 q 316 551 432 551 q 103 488 200 551 l 103 669 m 432 289 l 367 289 q 288 267 315 289 q 260 210 260 244 q 342 139 260 139 q 408 165 385 139 q 432 238 432 192 l 432 289 m 494 810 q 467 782 494 810 q 361 754 439 754 q 228 810 283 754 q 172 943 172 865 q 228 1076 172 1021 q 361 1132 283 1132 q 494 1076 439 1132 q 550 943 550 1021 q 494 810 550 865 m 414 1002 q 403 1014 414 1002 q 361 1025 393 1025 q 308 1002 329 1025 q 288 947 288 979 q 308 892 288 915 q 361 869 329 869 q 414 892 393 869 q 435 947 435 915 q 414 1002 435 979 z "},"æ":{"ha":1122,"x_min":56,"x_max":1067,"o":"m 838 150 q 1024 210 944 150 l 1024 40 q 813 -7 950 -7 q 658 25 733 -7 q 544 122 583 57 q 463 32 522 69 q 294 -6 403 -6 q 120 50 185 -6 q 56 203 56 106 q 130 358 56 301 q 350 414 204 414 l 439 414 l 439 463 q 323 551 439 551 q 110 488 207 551 l 110 669 q 336 717 193 717 q 466 689 411 717 q 543 614 521 661 q 633 685 575 660 q 761 711 692 711 q 985 628 903 711 q 1067 382 1067 546 q 1056 272 1067 350 l 640 272 q 714 182 663 214 q 838 150 765 150 m 878 417 l 878 432 q 769 557 868 557 q 684 521 722 557 q 633 417 646 485 l 878 417 m 439 238 l 439 289 l 374 289 q 294 267 322 289 q 267 210 267 244 q 349 139 267 139 q 415 165 392 139 q 439 238 439 192 z "},"ç":{"ha":651,"x_min":49,"x_max":610,"o":"m 513 -174 q 449 -317 513 -261 q 264 -372 386 -372 l 264 -246 q 341 -222 314 -246 q 368 -158 368 -199 q 332 -71 368 -118 l 489 -71 q 513 -174 513 -108 m 254 350 q 310 206 260 257 q 444 154 360 154 q 610 203 529 154 l 610 33 q 413 -11 528 -11 q 151 90 254 -11 q 49 350 49 190 q 151 612 51 508 q 425 715 251 715 q 610 675 532 715 l 610 501 q 449 547 536 547 q 308 497 361 547 q 254 350 256 446 z "},"è":{"ha":740,"x_min":49,"x_max":679,"o":"m 636 40 q 403 -7 564 -7 q 145 94 242 -7 q 49 358 49 194 q 142 616 49 521 q 376 711 236 711 q 597 628 515 711 q 679 382 679 546 q 668 272 679 350 l 254 272 q 326 182 275 214 q 450 150 378 150 q 636 210 557 150 l 636 40 m 490 417 l 490 433 q 382 557 481 557 q 296 522 333 557 q 246 417 258 486 l 490 417 m 467 769 l 299 769 l 144 1015 l 347 1015 l 467 769 z "},"é":{"ha":740,"x_min":49,"x_max":679,"o":"m 636 40 q 403 -7 564 -7 q 145 94 242 -7 q 49 358 49 194 q 142 616 49 521 q 376 711 236 711 q 597 628 515 711 q 679 382 679 546 q 668 272 679 350 l 254 272 q 326 182 275 214 q 450 150 378 150 q 636 210 557 150 l 636 40 m 490 417 l 490 433 q 382 557 481 557 q 296 522 333 557 q 246 417 258 486 l 490 417 m 635 1014 l 481 768 l 313 768 l 432 1014 l 635 1014 z "},"ê":{"ha":740,"x_min":49,"x_max":679,"o":"m 636 40 q 403 -7 564 -7 q 145 94 242 -7 q 49 358 49 194 q 142 616 49 521 q 376 711 236 711 q 597 628 515 711 q 679 382 679 546 q 668 272 679 350 l 254 272 q 326 182 275 214 q 450 150 378 150 q 636 210 557 150 l 636 40 m 490 417 l 490 433 q 382 557 481 557 q 296 522 333 557 q 246 417 258 486 l 490 417 m 374 903 l 264 769 l 71 769 l 288 1015 l 460 1015 l 676 769 l 483 769 l 374 903 z "},"ë":{"ha":740,"x_min":49,"x_max":696,"o":"m 636 40 q 403 -7 564 -7 q 145 94 242 -7 q 49 358 49 194 q 142 616 49 521 q 376 711 236 711 q 597 628 515 711 q 679 382 679 546 q 668 272 679 350 l 254 272 q 326 182 275 214 q 450 150 378 150 q 636 210 557 150 l 636 40 m 490 417 l 490 433 q 382 557 481 557 q 296 522 333 557 q 246 417 258 486 l 490 417 m 322 892 q 322 868 322 892 q 290 812 322 844 q 208 779 257 779 q 126 812 158 779 q 93 892 93 844 q 126 973 93 940 q 208 1006 158 1006 q 290 973 257 1006 q 322 892 322 940 m 696 892 q 696 868 696 892 q 663 812 696 844 q 580 779 629 779 q 498 812 531 779 q 465 892 465 844 q 498 973 465 940 q 580 1006 531 1006 q 663 973 629 1006 q 696 892 696 940 z "},"ì":{"ha":383,"x_min":-60,"x_max":293,"o":"m 143 1015 l 263 769 l 94 769 l -60 1015 l 143 1015 m 90 0 l 90 704 l 293 704 l 293 0 l 90 0 z "},"í":{"ha":383,"x_min":90,"x_max":440,"o":"m 118 769 l 238 1015 l 440 1015 l 286 769 l 118 769 m 90 0 l 90 704 l 293 704 l 293 0 l 90 0 z "},"î":{"ha":383,"x_min":-110,"x_max":496,"o":"m 90 0 l 90 704 l 293 704 l 293 0 l 90 0 m 107 1015 l 279 1015 l 496 769 l 303 769 l 193 903 l 83 769 l -110 769 l 107 1015 z "},"ï":{"ha":383,"x_min":-108,"x_max":494,"o":"m 378 779 q 354 779 378 779 q 297 812 329 779 q 264 892 264 844 q 297 973 264 940 q 378 1006 329 1006 q 461 973 428 1006 q 494 892 494 940 q 461 812 494 844 q 378 779 428 779 m 6 779 q -18 779 6 779 q -76 812 -43 779 q -108 892 -108 844 q -76 973 -108 940 q 6 1006 -43 1006 q 88 973 56 1006 q 121 892 121 940 q 88 812 121 844 q 6 779 56 779 m 90 0 l 90 704 l 293 704 l 293 0 l 90 0 z "},"ð":{"ha":774,"x_min":49,"x_max":708,"o":"m 708 401 q 622 100 708 214 q 378 -14 536 -14 q 135 72 221 -14 q 49 283 49 158 q 123 483 49 407 q 313 558 197 558 q 503 488 428 558 q 417 711 485 607 l 218 614 l 218 726 l 353 792 q 178 936 283 867 l 433 936 q 513 871 472 908 l 669 947 l 669 835 l 579 790 q 675 599 642 703 q 708 401 708 496 m 287 195 q 302 181 287 195 q 371 167 318 167 q 458 201 424 167 q 504 326 493 236 q 369 388 446 388 q 285 356 315 388 q 256 274 256 325 q 287 195 256 224 z "},"ñ":{"ha":806,"x_min":83,"x_max":729,"o":"m 286 704 l 286 585 q 367 677 313 643 q 499 711 422 711 q 668 647 607 711 q 729 457 729 582 l 729 0 l 526 0 l 526 419 q 497 515 526 482 q 414 547 468 547 q 323 503 360 547 q 286 372 286 460 l 286 0 l 83 0 l 83 704 l 286 704 m 492 797 q 396 822 446 797 q 318 846 346 846 q 271 834 290 846 q 221 786 251 822 l 131 875 q 197 956 153 922 q 291 989 240 989 q 398 965 342 989 q 481 940 454 940 q 578 1000 547 940 l 681 915 q 492 797 622 797 z "},"ò":{"ha":788,"x_min":49,"x_max":739,"o":"m 372 1014 l 492 768 l 324 768 l 169 1014 l 372 1014 m 393 556 q 293 499 326 556 q 260 351 260 442 q 294 203 260 261 q 395 146 328 146 q 495 202 463 146 q 528 349 528 258 q 393 556 528 556 m 739 354 q 739 275 739 354 q 648 92 739 196 q 393 -11 557 -11 q 139 88 229 -11 q 49 347 49 188 q 143 610 49 506 q 398 715 238 715 q 649 614 558 715 q 739 354 739 513 z "},"ó":{"ha":788,"x_min":49,"x_max":739,"o":"m 393 556 q 293 499 326 556 q 260 351 260 442 q 294 203 260 261 q 395 146 328 146 q 495 202 463 146 q 528 349 528 258 q 393 556 528 556 m 739 354 q 739 275 739 354 q 648 92 739 196 q 393 -11 557 -11 q 139 88 229 -11 q 49 347 49 188 q 143 610 49 506 q 398 715 238 715 q 649 614 558 715 q 739 354 739 513 m 326 768 l 446 1014 l 649 1014 l 494 768 l 326 768 z "},"ô":{"ha":788,"x_min":49,"x_max":739,"o":"m 313 1014 l 485 1014 l 701 768 l 508 768 l 399 901 l 289 768 l 96 768 l 313 1014 m 739 354 q 739 275 739 354 q 648 92 739 196 q 393 -11 557 -11 q 139 88 229 -11 q 49 347 49 188 q 143 610 49 506 q 398 715 238 715 q 649 614 558 715 q 739 354 739 513 m 393 556 q 293 499 326 556 q 260 351 260 442 q 294 203 260 261 q 395 146 328 146 q 495 202 463 146 q 528 349 528 258 q 393 556 528 556 z "},"õ":{"ha":788,"x_min":49,"x_max":739,"o":"m 485 797 q 389 822 439 797 q 311 846 339 846 q 264 834 283 846 q 214 786 244 822 l 124 875 q 190 956 146 922 q 284 989 233 989 q 391 965 335 989 q 474 940 447 940 q 571 1000 542 940 l 674 915 q 485 797 614 797 m 393 556 q 293 499 326 556 q 260 351 260 442 q 294 203 260 261 q 395 146 328 146 q 495 202 463 146 q 528 349 528 258 q 393 556 528 556 m 739 354 q 739 275 739 354 q 648 92 739 196 q 393 -11 557 -11 q 139 88 229 -11 q 49 347 49 188 q 143 610 49 506 q 398 715 238 715 q 649 614 558 715 q 739 354 739 513 z "},"ö":{"ha":788,"x_min":49,"x_max":739,"o":"m 393 556 q 293 499 326 556 q 260 351 260 442 q 294 203 260 261 q 395 146 328 146 q 495 202 463 146 q 528 349 528 258 q 393 556 528 556 m 739 354 q 739 275 739 354 q 648 92 739 196 q 393 -11 557 -11 q 139 88 229 -11 q 49 347 49 188 q 143 610 49 506 q 398 715 238 715 q 649 614 558 715 q 739 354 739 513 m 595 781 q 570 781 595 781 q 513 813 546 781 q 481 894 481 846 q 513 974 481 942 q 595 1007 546 1007 q 678 974 644 1007 q 711 894 711 942 q 678 813 711 846 q 595 781 644 781 m 223 781 q 198 781 223 781 q 141 813 174 781 q 108 894 108 846 q 141 974 108 942 q 223 1007 174 1007 q 305 974 272 1007 q 338 894 338 942 q 305 813 338 846 q 223 781 272 781 z "},"÷":{"ha":818,"x_min":63,"x_max":756,"o":"m 328 153 q 313 169 328 153 q 297 228 297 185 q 328 302 297 271 q 403 333 360 333 q 477 302 446 333 q 508 228 508 271 q 477 153 508 185 q 403 122 446 122 q 328 153 360 122 m 63 382 l 63 563 l 756 563 l 756 382 l 63 382 m 328 642 q 313 658 328 642 q 297 717 297 674 q 328 791 297 760 q 403 822 360 822 q 477 791 446 822 q 508 717 508 760 q 477 642 508 674 q 403 611 446 611 q 328 642 360 611 z "},"ø":{"ha":781,"x_min":49,"x_max":739,"o":"m 658 603 q 739 352 739 508 q 648 92 739 196 q 394 -11 557 -11 q 239 19 307 -11 l 217 -11 l 49 -11 l 128 100 q 49 351 49 196 q 143 610 49 506 q 394 715 238 715 q 549 686 476 715 l 569 715 l 739 715 l 658 603 m 393 578 q 275 515 315 578 q 235 351 235 451 q 244 263 235 301 l 461 564 q 393 578 429 578 m 396 124 q 514 186 475 124 q 553 349 553 249 q 543 443 553 403 l 326 140 q 396 124 356 124 z "},"ù":{"ha":806,"x_min":76,"x_max":722,"o":"m 519 704 l 722 704 l 722 0 l 519 0 l 519 113 q 306 -6 464 -6 q 137 55 197 -6 q 76 233 76 115 l 76 704 l 279 704 l 279 279 q 388 156 279 156 q 519 332 519 156 l 519 704 m 488 768 l 319 768 l 165 1014 l 368 1014 l 488 768 z "},"ú":{"ha":806,"x_min":76,"x_max":722,"o":"m 519 704 l 722 704 l 722 0 l 519 0 l 519 113 q 306 -6 464 -6 q 137 55 197 -6 q 76 233 76 115 l 76 704 l 279 704 l 279 279 q 388 156 279 156 q 519 332 519 156 l 519 704 m 653 1014 l 499 768 l 331 768 l 450 1014 l 653 1014 z "},"û":{"ha":806,"x_min":76,"x_max":722,"o":"m 519 704 l 722 704 l 722 0 l 519 0 l 519 113 q 306 -6 464 -6 q 137 55 197 -6 q 76 233 76 115 l 76 704 l 279 704 l 279 279 q 388 156 279 156 q 519 332 519 156 l 519 704 m 400 903 l 290 769 l 97 769 l 314 1015 l 486 1015 l 703 769 l 510 769 l 400 903 z "},"ü":{"ha":806,"x_min":76,"x_max":722,"o":"m 519 704 l 722 704 l 722 0 l 519 0 l 519 113 q 306 -6 464 -6 q 137 55 197 -6 q 76 233 76 115 l 76 704 l 279 704 l 279 279 q 388 156 279 156 q 519 332 519 156 l 519 704 m 326 892 q 326 868 326 892 q 294 812 326 844 q 212 779 261 779 q 130 812 163 779 q 97 892 97 844 q 130 973 97 940 q 212 1006 163 1006 q 294 973 261 1006 q 326 892 326 940 m 700 892 q 700 868 700 892 q 667 812 700 844 q 584 779 633 779 q 502 812 535 779 q 469 892 469 844 q 502 973 469 940 q 584 1006 535 1006 q 667 973 633 1006 q 700 892 700 940 z "},"ý":{"ha":739,"x_min":7,"x_max":732,"o":"m 143 -275 q 65 -268 100 -275 l 65 -107 q 113 -112 88 -112 q 279 11 228 -112 l 7 704 l 228 704 q 379 239 363 318 q 524 704 397 307 l 732 704 l 478 21 q 143 -275 368 -275 m 311 769 l 431 1015 l 633 1015 l 479 769 l 311 769 z "},"þ":{"ha":849,"x_min":83,"x_max":800,"o":"m 286 982 l 286 596 q 497 713 360 713 q 717 616 635 713 q 800 358 800 519 q 720 94 800 197 q 498 -8 640 -8 q 286 104 356 -8 l 286 -260 l 83 -260 l 83 982 l 286 982 m 286 358 q 286 314 286 358 q 331 215 286 269 q 443 161 375 161 q 553 212 511 161 q 594 354 594 263 q 552 495 594 446 q 445 544 510 544 q 333 496 381 544 q 286 358 286 447 z "},"ÿ":{"ha":739,"x_min":7,"x_max":732,"o":"m 143 -275 q 65 -268 100 -275 l 65 -107 q 113 -112 88 -112 q 279 11 228 -112 l 7 704 l 228 704 q 379 239 363 318 q 524 704 397 307 l 732 704 l 478 21 q 143 -275 368 -275 m 197 779 q 172 779 197 779 q 115 812 147 779 q 82 892 82 844 q 115 973 82 940 q 197 1006 147 1006 q 278 973 246 1006 q 311 892 311 940 q 278 812 311 844 q 197 779 246 779 m 569 779 q 544 779 569 779 q 487 812 519 779 q 454 892 454 844 q 487 973 454 940 q 569 1006 519 1006 q 651 973 618 1006 q 685 892 685 940 q 651 812 685 844 q 569 779 618 779 z "},"Ā":{"ha":958,"x_min":32,"x_max":926,"o":"m 697 0 l 640 192 l 313 192 l 256 0 l 32 0 l 344 936 l 614 936 l 926 0 l 697 0 m 364 364 l 589 364 q 476 781 496 682 q 364 364 468 719 m 732 1194 l 732 1057 l 238 1057 l 238 1194 l 732 1194 z "},"ā":{"ha":717,"x_min":49,"x_max":640,"o":"m 103 669 q 340 717 186 717 q 567 652 493 717 q 640 451 640 588 l 640 0 l 442 0 l 442 86 q 267 -4 397 -4 q 106 54 164 -4 q 49 207 49 113 q 123 358 49 301 q 343 414 197 414 l 432 414 l 432 463 q 316 551 432 551 q 103 488 200 551 l 103 669 m 432 289 l 367 289 q 288 267 315 289 q 260 210 260 244 q 342 139 260 139 q 408 165 385 139 q 432 238 432 192 l 432 289 m 606 961 l 606 824 l 111 824 l 111 961 l 606 961 z "},"Ă":{"ha":958,"x_min":32,"x_max":926,"o":"m 697 0 l 640 192 l 313 192 l 256 0 l 32 0 l 344 936 l 614 936 l 926 0 l 697 0 m 364 364 l 589 364 q 476 781 496 682 q 364 364 468 719 m 594 1247 l 750 1247 q 674 1057 750 1118 q 475 996 599 996 q 276 1057 351 996 q 200 1247 200 1118 l 356 1247 q 388 1156 356 1189 q 475 1124 421 1124 q 562 1156 529 1124 q 594 1247 594 1189 z "},"ă":{"ha":717,"x_min":49,"x_max":640,"o":"m 103 669 q 340 717 186 717 q 567 652 493 717 q 640 451 640 588 l 640 0 l 442 0 l 442 86 q 267 -4 397 -4 q 106 54 164 -4 q 49 207 49 113 q 123 358 49 301 q 343 414 197 414 l 432 414 l 432 463 q 316 551 432 551 q 103 488 200 551 l 103 669 m 432 289 l 367 289 q 288 267 315 289 q 260 210 260 244 q 342 139 260 139 q 408 165 385 139 q 432 238 432 192 l 432 289 m 476 1014 l 632 1014 q 556 824 632 885 q 357 763 481 763 q 158 824 233 763 q 82 1014 82 885 l 238 1014 q 270 923 238 956 q 357 890 303 890 q 444 923 411 890 q 476 1014 476 956 z "},"Ą":{"ha":944,"x_min":25,"x_max":936,"o":"m 756 -181 q 816 -228 756 -228 q 936 -186 876 -228 l 936 -326 q 778 -361 869 -361 q 641 -315 688 -361 q 594 -199 594 -269 q 690 0 594 -89 l 633 192 l 306 192 l 249 0 l 25 0 l 338 936 l 607 936 l 919 0 q 756 -181 756 -101 m 357 364 l 582 364 q 469 781 489 682 q 357 364 461 719 z "},"ą":{"ha":710,"x_min":49,"x_max":657,"o":"m 640 451 l 640 0 q 476 -181 476 -101 q 537 -228 476 -228 q 657 -186 597 -228 l 657 -326 q 499 -361 590 -361 q 362 -315 408 -361 q 315 -199 315 -269 q 442 14 315 -81 l 442 86 q 267 -4 397 -4 q 106 54 164 -4 q 49 207 49 113 q 123 358 49 301 q 343 414 197 414 l 432 414 l 432 463 q 316 551 432 551 q 103 488 200 551 l 103 669 q 340 717 186 717 q 567 652 493 717 q 640 451 640 588 m 432 289 l 367 289 q 288 267 315 289 q 260 210 260 244 q 342 139 260 139 q 408 165 385 139 q 432 238 432 192 l 432 289 z "},"Ć":{"ha":851,"x_min":56,"x_max":782,"o":"m 422 1001 l 542 1247 l 744 1247 l 590 1001 l 422 1001 m 782 690 q 558 754 678 754 q 361 676 438 754 q 285 467 285 597 q 361 260 285 336 q 563 185 438 185 q 782 251 689 185 l 782 42 q 538 -11 697 -11 q 194 122 332 -11 q 56 467 56 254 q 190 814 56 679 q 539 949 324 949 q 782 896 697 949 l 782 690 z "},"ć":{"ha":651,"x_min":49,"x_max":651,"o":"m 254 350 q 310 206 260 257 q 444 154 360 154 q 610 203 529 154 l 610 33 q 413 -11 528 -11 q 151 90 254 -11 q 49 350 49 190 q 151 612 51 508 q 425 715 251 715 q 610 675 532 715 l 610 501 q 449 547 536 547 q 308 497 361 547 q 254 350 256 446 m 329 768 l 449 1014 l 651 1014 l 497 768 l 329 768 z "},"Ĉ":{"ha":851,"x_min":56,"x_max":786,"o":"m 397 1247 l 569 1247 l 786 1001 l 593 1001 l 483 1135 l 374 1001 l 181 1001 l 397 1247 m 782 690 q 558 754 678 754 q 361 676 438 754 q 285 467 285 597 q 361 260 285 336 q 563 185 438 185 q 782 251 689 185 l 782 42 q 538 -11 697 -11 q 194 122 332 -11 q 56 467 56 254 q 190 814 56 679 q 539 949 324 949 q 782 896 697 949 l 782 690 z "},"ĉ":{"ha":651,"x_min":49,"x_max":678,"o":"m 289 1015 l 461 1015 l 678 769 l 485 769 l 375 903 l 265 769 l 72 769 l 289 1015 m 610 501 q 449 547 536 547 q 308 497 361 547 q 254 350 256 446 q 310 206 260 257 q 444 154 360 154 q 610 203 529 154 l 610 33 q 413 -11 528 -11 q 151 90 254 -11 q 49 350 49 190 q 151 612 51 508 q 425 715 251 715 q 610 675 532 715 l 610 501 z "},"Ċ":{"ha":851,"x_min":56,"x_max":782,"o":"m 782 690 q 558 754 678 754 q 361 676 438 754 q 285 467 285 597 q 361 260 285 336 q 563 185 438 185 q 782 251 689 185 l 782 42 q 538 -11 697 -11 q 194 122 332 -11 q 56 467 56 254 q 190 814 56 679 q 539 949 324 949 q 782 896 697 949 l 782 690 m 520 1013 q 495 1013 520 1013 q 438 1045 471 1013 q 406 1126 406 1078 q 438 1206 406 1174 q 520 1239 471 1239 q 602 1206 569 1239 q 635 1126 635 1174 q 602 1045 635 1078 q 520 1013 569 1013 z "},"ċ":{"ha":651,"x_min":49,"x_max":610,"o":"m 399 779 q 375 779 399 779 q 317 812 350 779 q 285 892 285 844 q 317 973 285 940 q 399 1006 350 1006 q 481 973 449 1006 q 514 892 514 940 q 481 812 514 844 q 399 779 449 779 m 254 350 q 310 206 260 257 q 444 154 360 154 q 610 203 529 154 l 610 33 q 413 -11 528 -11 q 151 90 254 -11 q 49 350 49 190 q 151 612 51 508 q 425 715 251 715 q 610 675 532 715 l 610 501 q 449 547 536 547 q 308 497 361 547 q 254 350 256 446 z "},"Č":{"ha":851,"x_min":56,"x_max":803,"o":"m 586 1001 l 414 1001 l 197 1247 l 390 1247 l 500 1114 l 610 1247 l 803 1247 l 586 1001 m 782 690 q 558 754 678 754 q 361 676 438 754 q 285 467 285 597 q 361 260 285 336 q 563 185 438 185 q 782 251 689 185 l 782 42 q 538 -11 697 -11 q 194 122 332 -11 q 56 467 56 254 q 190 814 56 679 q 539 949 324 949 q 782 896 697 949 l 782 690 z "},"č":{"ha":651,"x_min":49,"x_max":685,"o":"m 468 768 l 296 768 l 79 1014 l 272 1014 l 382 881 l 492 1014 l 685 1014 l 468 768 m 610 501 q 449 547 536 547 q 308 497 361 547 q 254 350 256 446 q 310 206 260 257 q 444 154 360 154 q 610 203 529 154 l 610 33 q 413 -11 528 -11 q 151 90 254 -11 q 49 350 49 190 q 151 612 51 508 q 425 715 251 715 q 610 675 532 715 l 610 501 z "},"Ď":{"ha":949,"x_min":90,"x_max":893,"o":"m 90 936 l 413 936 q 758 806 624 936 q 893 483 893 676 q 760 129 893 258 q 410 0 628 0 l 90 0 l 90 936 m 310 175 l 407 175 q 606 256 536 175 q 676 472 676 336 q 606 684 676 608 q 406 760 535 760 l 310 760 l 310 175 m 531 1001 l 358 1001 l 142 1247 l 335 1247 l 444 1114 l 554 1247 l 747 1247 l 531 1001 z "},"ď":{"ha":1035,"x_min":49,"x_max":1140,"o":"m 931 983 l 1140 983 l 979 690 l 832 690 l 931 983 m 563 982 l 765 982 l 765 0 l 563 0 l 563 110 q 353 -8 492 -8 q 131 99 214 -8 q 49 363 49 206 q 135 617 49 521 q 356 713 221 713 q 563 596 490 713 l 563 982 m 254 353 q 254 309 254 353 q 299 213 254 265 q 410 161 343 161 q 519 215 476 161 q 563 358 563 269 q 516 496 563 447 q 406 544 469 544 q 298 493 342 544 q 254 353 254 442 z "},"Đ":{"ha":1040,"x_min":90,"x_max":985,"o":"m 182 936 l 504 936 q 850 806 715 936 q 985 483 985 676 q 852 129 985 258 q 501 0 719 0 l 182 0 l 182 374 l 90 374 l 90 546 l 182 546 l 182 936 m 401 175 l 499 175 q 698 256 628 175 q 768 472 768 336 q 697 684 768 608 q 497 760 626 760 l 401 760 l 401 546 l 593 546 l 593 374 l 401 374 l 401 175 z "},"đ":{"ha":849,"x_min":49,"x_max":844,"o":"m 844 897 l 844 783 l 765 783 l 765 0 l 563 0 l 563 110 q 353 -8 492 -8 q 131 99 214 -8 q 49 363 49 206 q 135 617 49 521 q 356 713 221 713 q 563 596 490 713 l 563 783 l 353 783 l 353 897 l 563 897 l 563 982 l 765 982 l 765 897 l 844 897 m 254 353 q 254 309 254 353 q 299 213 254 265 q 410 161 343 161 q 519 215 476 161 q 563 358 563 269 q 516 496 563 447 q 406 544 469 544 q 298 493 342 544 q 254 353 254 442 z "},"Ē":{"ha":756,"x_min":90,"x_max":672,"o":"m 306 171 l 672 171 l 672 0 l 90 0 l 90 936 l 667 936 l 667 765 l 306 765 l 306 553 l 628 553 l 628 383 l 306 383 l 306 171 m 625 1199 l 625 1061 l 131 1061 l 131 1199 l 625 1199 z "},"ē":{"ha":740,"x_min":49,"x_max":679,"o":"m 636 40 q 403 -7 564 -7 q 145 94 242 -7 q 49 358 49 194 q 142 616 49 521 q 376 711 236 711 q 597 628 515 711 q 679 382 679 546 q 668 272 679 350 l 254 272 q 326 182 275 214 q 450 150 378 150 q 636 210 557 150 l 636 40 m 490 417 l 490 433 q 382 557 481 557 q 296 522 333 557 q 246 417 258 486 l 490 417 m 622 961 l 622 824 l 128 824 l 128 961 l 622 961 z "},"Ĕ":{"ha":756,"x_min":90,"x_max":672,"o":"m 306 171 l 672 171 l 672 0 l 90 0 l 90 936 l 667 936 l 667 765 l 306 765 l 306 553 l 628 553 l 628 383 l 306 383 l 306 171 m 514 1247 l 669 1247 q 594 1057 669 1118 q 394 996 518 996 q 195 1057 271 996 q 119 1247 119 1118 l 275 1247 q 308 1156 275 1189 q 394 1124 340 1124 q 481 1156 449 1124 q 514 1247 514 1189 z "},"ĕ":{"ha":740,"x_min":49,"x_max":679,"o":"m 636 40 q 403 -7 564 -7 q 145 94 242 -7 q 49 358 49 194 q 142 616 49 521 q 376 711 236 711 q 597 628 515 711 q 679 382 679 546 q 668 272 679 350 l 254 272 q 326 182 275 214 q 450 150 378 150 q 636 210 557 150 l 636 40 m 490 417 l 490 433 q 382 557 481 557 q 296 522 333 557 q 246 417 258 486 l 490 417 m 494 1015 l 650 1015 q 574 825 650 886 q 375 764 499 764 q 176 825 251 764 q 100 1015 100 886 l 256 1015 q 288 924 256 957 q 375 892 321 892 q 462 924 429 892 q 494 1015 494 957 z "},"Ė":{"ha":756,"x_min":90,"x_max":672,"o":"m 306 171 l 672 171 l 672 0 l 90 0 l 90 936 l 667 936 l 667 765 l 306 765 l 306 553 l 628 553 l 628 383 l 306 383 l 306 171 m 506 1124 q 506 1100 506 1124 q 473 1044 506 1076 q 391 1011 440 1011 q 309 1044 342 1011 q 276 1124 276 1076 q 309 1205 276 1172 q 391 1238 342 1238 q 473 1205 440 1238 q 506 1124 506 1172 z "},"ė":{"ha":740,"x_min":49,"x_max":679,"o":"m 636 40 q 403 -7 564 -7 q 145 94 242 -7 q 49 358 49 194 q 142 616 49 521 q 376 711 236 711 q 597 628 515 711 q 679 382 679 546 q 668 272 679 350 l 254 272 q 326 182 275 214 q 450 150 378 150 q 636 210 557 150 l 636 40 m 490 417 l 490 433 q 382 557 481 557 q 296 522 333 557 q 246 417 258 486 l 490 417 m 503 892 q 503 868 503 892 q 470 812 503 844 q 388 779 438 779 q 306 812 339 779 q 274 892 274 844 q 306 973 274 940 q 388 1006 339 1006 q 470 973 438 1006 q 503 892 503 940 z "},"Ę":{"ha":756,"x_min":90,"x_max":689,"o":"m 672 171 l 672 0 q 508 -181 508 -101 q 569 -228 508 -228 q 689 -186 629 -228 l 689 -326 q 531 -361 622 -361 q 394 -315 440 -361 q 347 -199 347 -269 q 457 0 347 -89 l 90 0 l 90 936 l 667 936 l 667 765 l 306 765 l 306 553 l 628 553 l 628 383 l 306 383 l 306 171 l 672 171 z "},"ę":{"ha":740,"x_min":49,"x_max":679,"o":"m 635 -296 q 477 -331 568 -331 q 340 -285 386 -331 q 293 -160 293 -239 q 365 -4 293 -81 q 131 108 214 10 q 49 364 49 207 q 142 616 49 521 q 376 711 236 711 q 597 628 515 711 q 679 382 679 546 q 668 272 679 350 l 254 272 q 326 182 275 214 q 450 150 378 150 q 636 210 557 150 l 636 40 q 615 29 626 33 q 454 -150 454 -72 q 515 -197 454 -197 q 635 -156 575 -197 l 635 -296 m 490 417 l 490 433 q 382 557 481 557 q 296 522 333 557 q 246 417 258 486 l 490 417 z "},"Ě":{"ha":756,"x_min":85,"x_max":690,"o":"m 306 383 l 306 171 l 672 171 l 672 0 l 90 0 l 90 936 l 667 936 l 667 765 l 306 765 l 306 553 l 628 553 l 628 383 l 306 383 m 474 1001 l 301 1001 l 85 1247 l 278 1247 l 388 1114 l 497 1247 l 690 1247 l 474 1001 z "},"ě":{"ha":740,"x_min":49,"x_max":681,"o":"m 636 40 q 403 -7 564 -7 q 145 94 242 -7 q 49 358 49 194 q 142 616 49 521 q 376 711 236 711 q 597 628 515 711 q 679 382 679 546 q 668 272 679 350 l 254 272 q 326 182 275 214 q 450 150 378 150 q 636 210 557 150 l 636 40 m 490 417 l 490 433 q 382 557 481 557 q 296 522 333 557 q 246 417 258 486 l 490 417 m 464 768 l 292 768 l 75 1014 l 268 1014 l 378 881 l 488 1014 l 681 1014 l 464 768 z "},"Ĝ":{"ha":981,"x_min":56,"x_max":897,"o":"m 897 558 l 897 86 q 550 -11 764 -11 q 196 118 336 -11 q 56 468 56 247 q 202 821 56 689 q 574 953 349 953 q 847 894 732 953 l 847 681 q 578 757 714 757 q 364 678 442 757 q 286 469 286 600 q 363 260 286 338 q 571 182 439 182 q 689 200 631 182 l 689 376 l 538 376 l 538 558 l 897 558 m 535 1135 l 425 1001 l 232 1001 l 449 1247 l 621 1247 l 838 1001 l 644 1001 l 535 1135 z "},"ĝ":{"ha":813,"x_min":56,"x_max":736,"o":"m 535 704 l 736 704 l 736 68 q 635 -187 736 -101 q 383 -272 533 -272 q 121 -219 232 -272 l 121 -12 q 360 -90 218 -90 q 493 -51 451 -90 q 535 71 535 -12 l 535 118 q 349 24 474 24 q 140 110 224 24 q 56 356 56 196 q 137 613 56 515 q 347 711 218 711 q 535 611 475 711 l 535 704 m 267 362 q 267 319 267 362 q 300 231 267 276 q 397 185 333 185 q 498 234 461 185 q 535 353 535 283 q 397 542 535 542 q 301 494 336 542 q 267 362 267 447 m 429 903 l 319 769 l 126 769 l 343 1015 l 515 1015 l 732 769 l 539 769 l 429 903 z "},"Ğ":{"ha":981,"x_min":56,"x_max":897,"o":"m 897 558 l 897 86 q 550 -11 764 -11 q 196 118 336 -11 q 56 468 56 247 q 202 821 56 689 q 574 953 349 953 q 847 894 732 953 l 847 681 q 578 757 714 757 q 364 678 442 757 q 286 469 286 600 q 363 260 286 338 q 571 182 439 182 q 689 200 631 182 l 689 376 l 538 376 l 538 558 l 897 558 m 644 1247 l 800 1247 q 724 1057 800 1118 q 525 996 649 996 q 326 1057 401 996 q 250 1247 250 1118 l 406 1247 q 438 1156 406 1189 q 525 1124 471 1124 q 612 1156 579 1124 q 644 1247 644 1189 z "},"ğ":{"ha":813,"x_min":56,"x_max":736,"o":"m 535 704 l 736 704 l 736 68 q 635 -187 736 -101 q 383 -272 533 -272 q 121 -219 232 -272 l 121 -12 q 360 -90 218 -90 q 493 -51 451 -90 q 535 71 535 -12 l 535 118 q 349 24 474 24 q 140 110 224 24 q 56 356 56 196 q 137 613 56 515 q 347 711 218 711 q 535 611 475 711 l 535 704 m 267 362 q 267 319 267 362 q 300 231 267 276 q 397 185 333 185 q 498 234 461 185 q 535 353 535 283 q 397 542 535 542 q 301 494 336 542 q 267 362 267 447 m 551 1015 l 707 1015 q 631 825 707 886 q 432 764 556 764 q 233 825 308 764 q 157 1015 157 886 l 313 1015 q 345 924 313 957 q 432 892 378 892 q 519 924 486 892 q 551 1015 551 957 z "},"Ġ":{"ha":981,"x_min":56,"x_max":897,"o":"m 897 558 l 897 86 q 550 -11 764 -11 q 196 118 336 -11 q 56 468 56 247 q 202 821 56 689 q 574 953 349 953 q 847 894 732 953 l 847 681 q 578 757 714 757 q 364 678 442 757 q 286 469 286 600 q 363 260 286 338 q 571 182 439 182 q 689 200 631 182 l 689 376 l 538 376 l 538 558 l 897 558 m 650 1124 q 650 1100 650 1124 q 617 1044 650 1076 q 535 1011 585 1011 q 453 1044 486 1011 q 421 1124 421 1076 q 453 1205 421 1172 q 535 1238 486 1238 q 617 1205 585 1238 q 650 1124 650 1172 z "},"ġ":{"ha":813,"x_min":56,"x_max":736,"o":"m 535 704 l 736 704 l 736 68 q 635 -187 736 -101 q 383 -272 533 -272 q 121 -219 232 -272 l 121 -12 q 360 -90 218 -90 q 493 -51 451 -90 q 535 71 535 -12 l 535 118 q 349 24 474 24 q 140 110 224 24 q 56 356 56 196 q 137 613 56 515 q 347 711 218 711 q 535 611 475 711 l 535 704 m 267 362 q 267 319 267 362 q 300 231 267 276 q 397 185 333 185 q 498 234 461 185 q 535 353 535 283 q 397 542 535 542 q 301 494 336 542 q 267 362 267 447 m 560 892 q 560 868 560 892 q 527 812 560 844 q 445 779 494 779 q 363 812 396 779 q 331 892 331 844 q 363 973 331 940 q 445 1006 396 1006 q 527 973 494 1006 q 560 892 560 940 z "},"Ģ":{"ha":981,"x_min":56,"x_max":897,"o":"m 897 558 l 897 86 q 550 -11 764 -11 q 196 118 336 -11 q 56 468 56 247 q 202 821 56 689 q 574 953 349 953 q 847 894 732 953 l 847 681 q 578 757 714 757 q 364 678 442 757 q 286 469 286 600 q 363 260 286 338 q 571 182 439 182 q 689 200 631 182 l 689 376 l 538 376 l 538 558 l 897 558 m 318 -364 l 417 -71 l 626 -71 l 465 -364 l 318 -364 z "},"ģ":{"ha":813,"x_min":56,"x_max":736,"o":"m 535 704 l 736 704 l 736 68 q 635 -187 736 -101 q 383 -272 533 -272 q 121 -219 232 -272 l 121 -12 q 360 -90 218 -90 q 493 -51 451 -90 q 535 71 535 -12 l 535 118 q 349 24 474 24 q 140 110 224 24 q 56 356 56 196 q 137 613 56 515 q 347 711 218 711 q 535 611 475 711 l 535 704 m 267 362 q 267 319 267 362 q 300 231 267 276 q 397 185 333 185 q 498 234 461 185 q 535 353 535 283 q 397 542 535 542 q 301 494 336 542 q 267 362 267 447 m 654 1063 l 556 769 l 346 769 l 507 1063 l 654 1063 z "},"Ĥ":{"ha":953,"x_min":90,"x_max":863,"o":"m 647 936 l 863 936 l 863 0 l 647 0 l 647 374 l 304 374 l 304 0 l 90 0 l 90 936 l 304 936 l 304 556 l 647 556 l 647 936 m 474 1135 l 364 1001 l 171 1001 l 388 1247 l 560 1247 l 776 1001 l 583 1001 l 474 1135 z "},"ĥ":{"ha":806,"x_min":-115,"x_max":729,"o":"m 286 982 l 286 585 q 497 711 340 711 q 665 646 600 711 q 729 449 729 581 l 729 0 l 526 0 l 526 417 q 496 513 526 478 q 417 547 465 547 q 336 519 376 547 q 286 372 286 483 l 286 0 l 83 0 l 83 982 l 286 982 m 297 1047 l 188 1181 l 78 1047 l -115 1047 l 101 1293 l 274 1293 l 490 1047 l 297 1047 z "},"Ħ":{"ha":1103,"x_min":63,"x_max":1040,"o":"m 1040 801 l 1040 688 l 938 688 l 938 0 l 722 0 l 722 374 l 379 374 l 379 0 l 165 0 l 165 688 l 63 688 l 63 801 l 165 801 l 165 936 l 379 936 l 379 801 l 722 801 l 722 936 l 938 936 l 938 801 l 1040 801 m 722 556 l 722 688 l 379 688 l 379 556 l 722 556 z "},"ħ":{"ha":806,"x_min":4,"x_max":729,"o":"m 286 783 l 286 585 q 497 711 340 711 q 665 646 600 711 q 729 449 729 581 l 729 0 l 526 0 l 526 417 q 496 513 526 478 q 417 547 465 547 q 336 519 376 547 q 286 372 286 483 l 286 0 l 83 0 l 83 783 l 4 783 l 4 897 l 83 897 l 83 982 l 286 982 l 286 897 l 496 897 l 496 783 l 286 783 z "},"Ĩ":{"ha":422,"x_min":-72,"x_max":478,"o":"m 289 1029 q 193 1053 243 1029 q 115 1078 143 1078 q 68 1066 88 1078 q 18 1018 49 1054 l -72 1107 q -6 1188 -50 1154 q 88 1221 38 1221 q 195 1197 139 1221 q 278 1172 251 1172 q 375 1232 344 1172 l 478 1147 q 289 1029 419 1029 m 104 0 l 104 936 l 318 936 l 318 0 l 104 0 z "},"ĩ":{"ha":383,"x_min":-85,"x_max":465,"o":"m 276 796 q 181 820 231 796 q 103 844 131 844 q 56 833 75 844 q 6 785 36 821 l -85 874 q -19 954 -62 921 q 76 988 25 988 q 183 963 126 988 q 265 939 239 939 q 363 999 333 939 l 465 914 q 276 796 406 796 m 90 0 l 90 704 l 293 704 l 293 0 l 90 0 z "},"Ī":{"ha":422,"x_min":-36,"x_max":458,"o":"m 458 1056 l -36 1056 l -36 1193 l 458 1193 l 458 1056 m 104 0 l 104 936 l 318 936 l 318 0 l 104 0 z "},"ī":{"ha":383,"x_min":-56,"x_max":439,"o":"m 439 824 l -56 824 l -56 961 l 439 961 l 439 824 m 90 0 l 90 704 l 293 704 l 293 0 l 90 0 z "},"Ĭ":{"ha":422,"x_min":-61,"x_max":489,"o":"m 104 0 l 104 936 l 318 936 l 318 0 l 104 0 m -61 1247 l 94 1247 q 127 1156 94 1189 q 214 1124 160 1124 q 301 1156 268 1124 q 333 1247 333 1189 l 489 1247 q 413 1057 489 1118 q 214 996 338 996 q 15 1057 90 996 q -61 1247 -61 1118 z "},"ĭ":{"ha":383,"x_min":-83,"x_max":467,"o":"m 90 0 l 90 704 l 293 704 l 293 0 l 90 0 m -83 1014 l 72 1014 q 105 923 72 956 q 192 890 138 890 q 278 923 246 890 q 311 1014 311 956 l 467 1014 q 391 824 467 885 q 192 763 315 763 q -8 824 68 763 q -83 1014 -83 885 z "},"Į":{"ha":422,"x_min":-7,"x_max":335,"o":"m 318 936 l 318 0 q 154 -181 154 -101 q 215 -228 154 -228 q 335 -186 275 -228 l 335 -326 q 177 -361 268 -361 q 40 -315 86 -361 q -7 -199 -7 -269 q 104 1 -7 -89 l 104 936 l 318 936 z "},"į":{"ha":383,"x_min":-32,"x_max":310,"o":"m 293 704 l 293 0 q 129 -181 129 -101 q 190 -228 129 -228 q 310 -186 250 -228 l 310 -326 q 152 -361 243 -361 q 15 -315 61 -361 q -32 -199 -32 -269 q 90 10 -32 -86 l 90 704 l 293 704 m 275 825 q 258 808 275 825 q 192 790 240 790 q 108 825 143 790 q 74 908 74 860 q 108 992 74 957 q 192 1026 143 1026 q 275 992 240 1026 q 310 908 310 957 q 275 825 310 860 z "},"İ":{"ha":422,"x_min":99,"x_max":328,"o":"m 213 1011 q 189 1011 213 1011 q 131 1044 164 1011 q 99 1124 99 1076 q 131 1205 99 1172 q 213 1238 164 1238 q 295 1205 263 1238 q 328 1124 328 1172 q 295 1044 328 1076 q 213 1011 263 1011 m 104 0 l 104 936 l 318 936 l 318 0 l 104 0 z "},"ı":{"ha":383,"x_min":90,"x_max":293,"o":"m 90 0 l 90 704 l 293 704 l 293 0 l 90 0 z "},"Ĳ":{"ha":933,"x_min":104,"x_max":850,"o":"m 538 183 q 636 289 636 183 l 636 935 l 850 935 l 850 283 q 778 74 850 149 q 579 -1 707 -1 q 431 26 483 -1 l 431 215 q 538 183 482 183 m 104 0 l 104 936 l 318 936 l 318 0 l 104 0 z "},"ĳ":{"ha":742,"x_min":74,"x_max":675,"o":"m 474 825 q 456 842 474 825 q 439 908 439 860 q 474 992 439 957 q 557 1026 508 1026 q 640 992 606 1026 q 675 908 675 957 q 640 825 675 860 q 557 790 606 790 q 474 825 508 790 m 385 -119 q 457 -26 457 -119 l 457 704 l 658 704 l 658 -29 q 596 -208 658 -140 q 415 -275 533 -275 q 306 -253 367 -275 l 306 -99 q 385 -119 351 -119 m 108 825 q 91 842 108 825 q 74 908 74 860 q 108 992 74 957 q 192 1026 143 1026 q 275 992 240 1026 q 310 908 310 957 q 275 825 310 860 q 192 790 240 790 q 108 825 143 790 m 90 0 l 90 704 l 293 704 l 293 0 l 90 0 z "},"Ĵ":{"ha":544,"x_min":42,"x_max":660,"o":"m 271 1247 l 443 1247 l 660 1001 l 467 1001 l 357 1135 l 247 1001 l 54 1001 l 271 1247 m 149 183 q 247 289 247 183 l 247 935 l 461 935 l 461 283 q 390 74 461 149 q 190 -1 318 -1 q 42 26 94 -1 l 42 215 q 149 183 93 183 z "},"ĵ":{"ha":381,"x_min":-106,"x_max":500,"o":"m 24 -119 q 96 -26 96 -119 l 96 704 l 297 704 l 297 -29 q 235 -208 297 -140 q 54 -275 172 -275 q -56 -253 6 -275 l -56 -99 q 24 -119 -10 -119 m 111 1014 l 283 1014 l 500 768 l 307 768 l 197 901 l 88 768 l -106 768 l 111 1014 z "},"Ķ":{"ha":919,"x_min":90,"x_max":896,"o":"m 564 468 l 896 0 l 628 0 l 314 465 l 617 936 l 871 936 l 564 468 m 263 -364 l 361 -71 l 571 -71 l 410 -364 l 263 -364 m 304 936 l 304 0 l 90 0 l 90 936 l 304 936 z "},"ķ":{"ha":761,"x_min":83,"x_max":746,"o":"m 206 -364 l 304 -71 l 514 -71 l 353 -364 l 206 -364 m 286 0 l 83 0 l 83 958 l 286 958 l 286 389 l 508 704 l 742 704 l 497 367 l 746 0 l 511 0 l 286 346 l 286 0 z "},"ĸ":{"ha":761,"x_min":83,"x_max":746,"o":"m 286 0 l 83 0 l 83 704 l 286 704 l 286 389 l 508 704 l 742 704 l 497 367 l 746 0 l 511 0 l 286 346 l 286 0 z "},"Ĺ":{"ha":678,"x_min":90,"x_max":678,"o":"m 304 936 l 304 188 l 650 188 l 650 0 l 90 0 l 90 936 l 304 936 m 678 1247 l 524 1001 l 356 1001 l 475 1247 l 678 1247 z "},"ĺ":{"ha":383,"x_min":90,"x_max":426,"o":"m 90 0 l 90 982 l 293 982 l 293 0 l 90 0 m 104 1047 l 224 1293 l 426 1293 l 272 1047 l 104 1047 z "},"Ļ":{"ha":678,"x_min":90,"x_max":650,"o":"m 304 188 l 650 188 l 650 0 l 90 0 l 90 936 l 304 936 l 304 188 m 193 -364 l 292 -71 l 501 -71 l 340 -364 l 193 -364 z "},"ļ":{"ha":383,"x_min":-15,"x_max":293,"o":"m -15 -364 l 83 -71 l 293 -71 l 132 -364 l -15 -364 m 90 0 l 90 982 l 293 982 l 293 0 l 90 0 z "},"Ľ":{"ha":678,"x_min":90,"x_max":696,"o":"m 304 936 l 304 188 l 650 188 l 650 0 l 90 0 l 90 936 l 304 936 m 696 971 l 535 678 l 388 678 l 486 971 l 696 971 z "},"ľ":{"ha":383,"x_min":90,"x_max":682,"o":"m 374 692 l 472 985 l 682 985 l 521 692 l 374 692 m 90 0 l 90 982 l 293 982 l 293 0 l 90 0 z "},"Ŀ":{"ha":703,"x_min":90,"x_max":654,"o":"m 304 936 l 304 188 l 650 188 l 650 0 l 90 0 l 90 936 l 304 936 m 654 547 q 654 523 654 547 q 622 466 654 499 q 540 433 589 433 q 458 466 490 433 q 425 547 425 499 q 458 627 425 594 q 540 660 490 660 q 622 627 589 660 q 654 547 654 594 z "},"ŀ":{"ha":696,"x_min":83,"x_max":654,"o":"m 540 401 q 515 401 540 401 q 458 434 490 401 q 425 515 425 467 q 458 595 425 563 q 540 628 490 628 q 622 595 589 628 q 654 515 654 563 q 622 434 654 467 q 540 401 589 401 m 83 0 l 83 982 l 286 982 l 286 0 l 83 0 z "},"Ł":{"ha":782,"x_min":63,"x_max":733,"o":"m 388 188 l 733 188 l 733 0 l 174 0 l 174 285 l 63 222 l 63 390 l 174 453 l 174 936 l 388 936 l 388 572 l 615 700 l 615 532 l 388 404 l 388 188 z "},"ł":{"ha":474,"x_min":35,"x_max":460,"o":"m 344 0 l 142 0 l 142 365 l 35 292 l 35 460 l 142 533 l 142 982 l 344 982 l 344 671 l 460 750 l 460 582 l 344 503 l 344 0 z "},"Ń":{"ha":968,"x_min":90,"x_max":878,"o":"m 90 0 l 90 936 l 325 936 l 543 549 q 678 264 638 381 q 664 549 664 367 l 664 936 l 878 936 l 878 0 l 643 0 l 419 388 q 294 643 332 536 l 283 678 q 304 388 304 553 l 304 0 l 90 0 m 419 1001 l 539 1247 l 742 1247 l 588 1001 l 419 1001 z "},"ń":{"ha":806,"x_min":83,"x_max":729,"o":"m 286 704 l 286 585 q 367 677 313 643 q 499 711 422 711 q 668 647 607 711 q 729 457 729 582 l 729 0 l 526 0 l 526 419 q 497 515 526 482 q 414 547 468 547 q 323 503 360 547 q 286 372 286 460 l 286 0 l 83 0 l 83 704 l 286 704 m 681 1015 l 526 769 l 358 769 l 478 1015 l 681 1015 z "},"Ņ":{"ha":968,"x_min":90,"x_max":878,"o":"m 90 0 l 90 936 l 325 936 l 543 549 q 678 264 638 381 q 664 549 664 367 l 664 936 l 878 936 l 878 0 l 643 0 l 419 388 q 294 643 332 536 l 283 678 q 304 388 304 553 l 304 0 l 90 0 m 290 -364 l 389 -71 l 599 -71 l 438 -364 l 290 -364 z "},"ņ":{"ha":806,"x_min":83,"x_max":729,"o":"m 286 704 l 286 585 q 367 677 313 643 q 499 711 422 711 q 668 647 607 711 q 729 457 729 582 l 729 0 l 526 0 l 526 419 q 497 515 526 482 q 414 547 468 547 q 323 503 360 547 q 286 372 286 460 l 286 0 l 83 0 l 83 704 l 286 704 m 207 -364 l 306 -71 l 515 -71 l 354 -364 l 207 -364 z "},"Ň":{"ha":968,"x_min":90,"x_max":878,"o":"m 576 1001 l 404 1001 l 188 1247 l 381 1247 l 490 1114 l 600 1247 l 793 1247 l 576 1001 m 90 0 l 90 936 l 325 936 l 543 549 q 678 264 638 381 q 664 549 664 367 l 664 936 l 878 936 l 878 0 l 643 0 l 419 388 q 294 643 332 536 l 283 678 q 304 388 304 553 l 304 0 l 90 0 z "},"ň":{"ha":806,"x_min":83,"x_max":729,"o":"m 286 704 l 286 585 q 367 677 313 643 q 499 711 422 711 q 668 647 607 711 q 729 457 729 582 l 729 0 l 526 0 l 526 419 q 497 515 526 482 q 414 547 468 547 q 323 503 360 547 q 286 372 286 460 l 286 0 l 83 0 l 83 704 l 286 704 m 501 769 l 329 769 l 113 1015 l 306 1015 l 415 882 l 525 1015 l 718 1015 l 501 769 z "},"ŉ":{"ha":928,"x_min":-29,"x_max":851,"o":"m 408 704 l 408 585 q 490 677 435 643 q 621 711 544 711 q 790 647 729 711 q 851 457 851 582 l 851 0 l 649 0 l 649 419 q 619 515 649 482 q 536 547 590 547 q 445 503 482 547 q 408 372 408 460 l 408 0 l 206 0 l 206 704 l 408 704 m 85 964 l 264 964 l 113 672 l -29 672 l 85 964 z "},"Ŋ":{"ha":968,"x_min":90,"x_max":878,"o":"m 664 936 l 878 936 l 878 0 q 803 -202 875 -131 q 607 -274 732 -274 q 458 -246 511 -274 l 458 -57 q 565 -89 510 -89 q 664 0 656 -89 l 643 0 l 419 388 q 294 643 332 536 l 283 678 q 304 388 304 553 l 304 0 l 90 0 l 90 936 l 325 936 l 543 549 q 678 264 638 381 q 664 549 664 367 l 664 936 z "},"ŋ":{"ha":806,"x_min":83,"x_max":729,"o":"m 286 704 l 286 585 q 367 677 313 643 q 499 711 422 711 q 668 647 607 711 q 729 457 729 582 l 729 -29 q 667 -208 729 -140 q 486 -275 604 -275 q 376 -253 438 -275 l 376 -99 q 456 -119 422 -119 q 526 -26 526 -119 l 526 419 q 497 515 526 482 q 414 547 468 547 q 323 503 360 547 q 286 372 286 460 l 286 0 l 83 0 l 83 704 l 286 704 z "},"Ō":{"ha":1022,"x_min":56,"x_max":967,"o":"m 346 680 q 315 641 346 680 q 285 471 285 603 q 346 262 285 339 q 511 185 407 185 q 676 262 615 185 q 738 471 738 339 q 676 680 738 603 q 511 757 615 757 q 346 680 407 757 m 510 -10 q 407 -10 510 -10 q 179 122 303 -10 q 56 470 56 254 q 180 819 56 686 q 512 951 304 951 q 843 819 719 951 q 967 472 967 688 q 842 123 967 256 q 510 -10 718 -10 m 757 1056 l 263 1056 l 263 1193 l 757 1193 l 757 1056 z "},"ō":{"ha":788,"x_min":49,"x_max":739,"o":"m 393 556 q 293 499 326 556 q 260 351 260 442 q 294 203 260 261 q 395 146 328 146 q 495 202 463 146 q 528 349 528 258 q 393 556 528 556 m 739 354 q 739 275 739 354 q 648 92 739 196 q 393 -11 557 -11 q 139 88 229 -11 q 49 347 49 188 q 143 610 49 506 q 398 715 238 715 q 649 614 558 715 q 739 354 739 513 m 642 824 l 147 824 l 147 961 l 642 961 l 642 824 z "},"Ŏ":{"ha":1022,"x_min":56,"x_max":967,"o":"m 510 -10 q 407 -10 510 -10 q 179 122 303 -10 q 56 470 56 254 q 180 819 56 686 q 512 951 304 951 q 843 819 719 951 q 967 472 967 688 q 842 123 967 256 q 510 -10 718 -10 m 346 680 q 315 641 346 680 q 285 471 285 603 q 346 262 285 339 q 511 185 407 185 q 676 262 615 185 q 738 471 738 339 q 676 680 738 603 q 511 757 615 757 q 346 680 407 757 m 254 1247 l 410 1247 q 442 1156 410 1189 q 529 1124 475 1124 q 616 1156 583 1124 q 649 1247 649 1189 l 804 1247 q 728 1057 804 1118 q 529 996 653 996 q 330 1057 406 996 q 254 1247 254 1118 z "},"ŏ":{"ha":788,"x_min":49,"x_max":739,"o":"m 739 354 q 739 275 739 354 q 648 92 739 196 q 393 -11 557 -11 q 139 88 229 -11 q 49 347 49 188 q 143 610 49 506 q 398 715 238 715 q 649 614 558 715 q 739 354 739 513 m 393 556 q 293 499 326 556 q 260 351 260 442 q 294 203 260 261 q 395 146 328 146 q 495 202 463 146 q 528 349 528 258 q 393 556 528 556 m 125 1015 l 281 1015 q 313 924 281 957 q 400 892 346 892 q 487 924 454 892 q 519 1015 519 957 l 675 1015 q 599 825 675 886 q 400 764 524 764 q 201 825 276 764 q 125 1015 125 886 z "},"Ő":{"ha":1022,"x_min":56,"x_max":967,"o":"m 346 680 q 315 641 346 680 q 285 471 285 603 q 346 262 285 339 q 511 185 407 185 q 676 262 615 185 q 738 471 738 339 q 676 680 738 603 q 511 757 615 757 q 346 680 407 757 m 510 -10 q 407 -10 510 -10 q 179 122 303 -10 q 56 470 56 254 q 180 819 56 686 q 512 951 304 951 q 843 819 719 951 q 967 472 967 688 q 842 123 967 256 q 510 -10 718 -10 m 317 1001 l 436 1247 l 621 1247 l 467 1001 l 317 1001 m 576 1001 l 707 1247 l 908 1247 l 726 1001 l 576 1001 z "},"ő":{"ha":788,"x_min":49,"x_max":801,"o":"m 393 556 q 293 499 326 556 q 260 351 260 442 q 294 203 260 261 q 395 146 328 146 q 495 202 463 146 q 528 349 528 258 q 393 556 528 556 m 739 354 q 739 275 739 354 q 648 92 739 196 q 393 -11 557 -11 q 139 88 229 -11 q 49 347 49 188 q 143 610 49 506 q 398 715 238 715 q 649 614 558 715 q 739 354 739 513 m 210 769 l 329 1015 l 514 1015 l 360 769 l 210 769 m 469 769 l 600 1015 l 801 1015 l 619 769 l 469 769 z "},"Œ":{"ha":1389,"x_min":56,"x_max":1306,"o":"m 925 171 l 1306 171 l 1306 0 l 724 0 l 724 61 q 504 -10 626 -10 q 176 122 297 -10 q 56 470 56 253 q 176 819 56 688 q 504 951 297 951 q 724 882 626 951 l 724 936 l 1300 936 l 1300 765 l 925 765 l 925 553 l 1261 553 l 1261 383 l 925 383 l 925 171 m 343 262 q 372 223 343 262 q 504 185 401 185 q 665 262 607 185 q 724 471 724 339 q 665 680 724 603 q 504 757 607 757 q 343 680 401 757 q 285 471 285 603 q 343 262 285 339 z "},"œ":{"ha":1221,"x_min":49,"x_max":1168,"o":"m 1125 40 q 897 -7 1053 -7 q 639 96 742 -7 q 388 -11 546 -11 q 139 88 229 -11 q 49 347 49 188 q 143 610 49 506 q 391 715 238 715 q 636 615 544 715 q 868 711 732 711 q 1086 628 1004 711 q 1168 382 1168 546 q 1157 272 1168 350 l 743 272 q 815 182 764 214 q 939 150 867 150 q 1125 210 1046 150 l 1125 40 m 294 203 q 311 175 294 203 q 396 146 328 146 q 501 203 464 146 q 538 349 538 260 q 501 497 538 439 q 396 556 465 556 q 293 499 326 556 q 260 351 260 442 q 294 203 260 261 m 979 417 l 978 446 q 871 557 965 557 q 785 522 822 557 q 735 417 747 486 l 979 417 z "},"Ŕ":{"ha":853,"x_min":90,"x_max":828,"o":"m 304 325 l 304 0 l 90 0 l 90 936 l 414 936 q 666 853 571 936 q 761 636 761 769 q 590 360 761 436 l 828 0 l 572 0 l 369 325 l 304 325 m 304 763 l 304 499 l 406 499 q 544 635 544 499 q 508 728 544 694 q 410 763 472 763 l 304 763 m 647 1247 l 493 1001 l 325 1001 l 444 1247 l 647 1247 z "},"ŕ":{"ha":514,"x_min":82,"x_max":543,"o":"m 285 704 l 285 574 q 349 672 304 635 q 454 708 394 708 q 507 703 488 708 l 507 511 q 431 526 474 526 q 325 478 365 526 q 285 351 285 431 l 285 0 l 82 0 l 83 704 l 285 704 m 543 1015 l 389 769 l 221 769 l 340 1015 l 543 1015 z "},"Ŗ":{"ha":853,"x_min":90,"x_max":828,"o":"m 304 325 l 304 0 l 90 0 l 90 936 l 414 936 q 666 853 571 936 q 761 636 761 769 q 590 360 761 436 l 828 0 l 572 0 l 369 325 l 304 325 m 304 763 l 304 499 l 406 499 q 544 635 544 499 q 508 728 544 694 q 410 763 472 763 l 304 763 m 229 -364 l 328 -71 l 538 -71 l 376 -364 l 229 -364 z "},"ŗ":{"ha":514,"x_min":-28,"x_max":507,"o":"m 285 704 l 285 574 q 349 672 304 635 q 454 708 394 708 q 507 703 488 708 l 507 511 q 431 526 474 526 q 325 478 365 526 q 285 351 285 431 l 285 0 l 82 0 l 83 704 l 285 704 m -28 -364 l 71 -71 l 281 -71 l 119 -364 l -28 -364 z "},"Ř":{"ha":853,"x_min":90,"x_max":828,"o":"m 304 325 l 304 0 l 90 0 l 90 936 l 414 936 q 666 853 571 936 q 761 636 761 769 q 590 360 761 436 l 828 0 l 572 0 l 369 325 l 304 325 m 304 763 l 304 499 l 406 499 q 544 635 544 499 q 508 728 544 694 q 410 763 472 763 l 304 763 m 525 1001 l 353 1001 l 136 1247 l 329 1247 l 439 1114 l 549 1247 l 742 1247 l 525 1001 z "},"ř":{"ha":514,"x_min":-8,"x_max":597,"o":"m 285 704 l 285 574 q 349 672 304 635 q 454 708 394 708 q 507 703 488 708 l 507 511 q 431 526 474 526 q 325 478 365 526 q 285 351 285 431 l 285 0 l 82 0 l 83 704 l 285 704 m 381 769 l 208 769 l -8 1015 l 185 1015 l 294 882 l 404 1015 l 597 1015 l 381 769 z "},"Ś":{"ha":714,"x_min":54,"x_max":672,"o":"m 397 760 q 315 738 343 760 q 286 681 286 715 q 321 619 286 646 q 412 567 356 592 q 497 527 468 542 q 562 487 525 513 q 619 433 599 461 q 672 272 672 364 q 579 67 672 146 q 326 -11 486 -11 q 63 47 167 -11 l 63 263 q 332 171 189 171 q 413 197 381 171 q 444 264 444 222 q 429 310 444 294 q 403 333 414 325 q 373 351 393 340 q 339 368 353 361 q 254 407 296 389 q 109 510 164 449 q 54 682 54 571 q 143 867 54 793 q 381 942 232 942 q 631 894 529 942 l 631 694 q 397 760 518 760 m 281 1001 l 400 1247 l 603 1247 l 449 1001 l 281 1001 z "},"ś":{"ha":606,"x_min":74,"x_max":574,"o":"m 356 553 q 300 538 319 553 q 281 506 281 524 q 288 478 281 489 q 310 457 294 467 q 341 440 326 447 q 381 421 356 432 q 519 331 475 381 q 564 213 564 281 q 489 51 564 108 q 288 -6 414 -6 q 76 38 163 -6 l 76 218 q 279 151 172 151 q 356 200 356 151 q 325 244 356 226 q 265 273 303 257 q 214 296 228 289 q 74 496 74 363 q 152 656 74 599 q 343 713 231 713 q 528 683 456 713 l 528 510 q 356 553 454 553 m 251 769 l 371 1015 l 574 1015 l 419 769 l 251 769 z "},"Ŝ":{"ha":714,"x_min":54,"x_max":679,"o":"m 290 1247 l 463 1247 l 679 1001 l 486 1001 l 376 1135 l 267 1001 l 74 1001 l 290 1247 m 397 760 q 315 738 343 760 q 286 681 286 715 q 321 619 286 646 q 412 567 356 592 q 497 527 468 542 q 562 487 525 513 q 619 433 599 461 q 672 272 672 364 q 579 67 672 146 q 326 -11 486 -11 q 63 47 167 -11 l 63 263 q 332 171 189 171 q 413 197 381 171 q 444 264 444 222 q 429 310 444 294 q 403 333 414 325 q 373 351 393 340 q 339 368 353 361 q 254 407 296 389 q 109 510 164 449 q 54 682 54 571 q 143 867 54 793 q 381 942 232 942 q 631 894 529 942 l 631 694 q 397 760 518 760 z "},"ŝ":{"ha":606,"x_min":31,"x_max":636,"o":"m 247 1015 l 419 1015 l 636 769 l 443 769 l 333 903 l 224 769 l 31 769 l 247 1015 m 356 553 q 300 538 319 553 q 281 506 281 524 q 288 478 281 489 q 310 457 294 467 q 341 440 326 447 q 381 421 356 432 q 519 331 475 381 q 564 213 564 281 q 489 51 564 108 q 288 -6 414 -6 q 76 38 163 -6 l 76 218 q 279 151 172 151 q 356 200 356 151 q 325 244 356 226 q 265 273 303 257 q 214 296 228 289 q 74 496 74 363 q 152 656 74 599 q 343 713 231 713 q 528 683 456 713 l 528 510 q 356 553 454 553 z "},"Ş":{"ha":714,"x_min":54,"x_max":672,"o":"m 471 -174 q 408 -317 471 -261 q 222 -372 344 -372 l 222 -246 q 299 -222 272 -246 q 326 -158 326 -199 q 290 -71 326 -118 l 447 -71 q 471 -174 471 -108 m 397 760 q 315 738 343 760 q 286 681 286 715 q 321 619 286 646 q 412 567 356 592 q 497 527 468 542 q 562 487 525 513 q 619 433 599 461 q 672 272 672 364 q 579 67 672 146 q 326 -11 486 -11 q 63 47 167 -11 l 63 263 q 332 171 189 171 q 413 197 381 171 q 444 264 444 222 q 429 310 444 294 q 403 333 414 325 q 373 351 393 340 q 339 368 353 361 q 254 407 296 389 q 109 510 164 449 q 54 682 54 571 q 143 867 54 793 q 381 942 232 942 q 631 894 529 942 l 631 694 q 397 760 518 760 z "},"ş":{"ha":606,"x_min":74,"x_max":564,"o":"m 415 -174 q 352 -317 415 -261 q 167 -372 289 -372 l 167 -246 q 244 -222 217 -246 q 271 -158 271 -199 q 235 -71 271 -118 l 392 -71 q 415 -174 415 -108 m 356 553 q 300 538 319 553 q 281 506 281 524 q 288 478 281 489 q 310 457 294 467 q 341 440 326 447 q 381 421 356 432 q 519 331 475 381 q 564 213 564 281 q 489 51 564 108 q 288 -6 414 -6 q 76 38 163 -6 l 76 218 q 279 151 172 151 q 356 200 356 151 q 325 244 356 226 q 265 273 303 257 q 214 296 228 289 q 74 496 74 363 q 152 656 74 599 q 343 713 231 713 q 528 683 456 713 l 528 510 q 356 553 454 553 z "},"Š":{"ha":714,"x_min":54,"x_max":672,"o":"m 456 1001 l 283 1001 l 67 1247 l 260 1247 l 369 1114 l 479 1247 l 672 1247 l 456 1001 m 397 760 q 315 738 343 760 q 286 681 286 715 q 321 619 286 646 q 412 567 356 592 q 497 527 468 542 q 562 487 525 513 q 619 433 599 461 q 672 272 672 364 q 579 67 672 146 q 326 -11 486 -11 q 63 47 167 -11 l 63 263 q 332 171 189 171 q 413 197 381 171 q 444 264 444 222 q 429 310 444 294 q 403 333 414 325 q 373 351 393 340 q 339 368 353 361 q 254 407 296 389 q 109 510 164 449 q 54 682 54 571 q 143 867 54 793 q 381 942 232 942 q 631 894 529 942 l 631 694 q 397 760 518 760 z "},"š":{"ha":606,"x_min":29,"x_max":635,"o":"m 418 768 l 246 768 l 29 1014 l 222 1014 l 332 881 l 442 1014 l 635 1014 l 418 768 m 356 553 q 300 538 319 553 q 281 506 281 524 q 288 478 281 489 q 310 457 294 467 q 341 440 326 447 q 381 421 356 432 q 519 331 475 381 q 564 213 564 281 q 489 51 564 108 q 288 -6 414 -6 q 76 38 163 -6 l 76 218 q 279 151 172 151 q 356 200 356 151 q 325 244 356 226 q 265 273 303 257 q 214 296 228 289 q 74 496 74 363 q 152 656 74 599 q 343 713 231 713 q 528 683 456 713 l 528 510 q 356 553 454 553 z "},"Ţ":{"ha":756,"x_min":42,"x_max":714,"o":"m 714 936 l 714 764 l 486 764 l 486 0 l 271 0 l 271 764 l 42 764 l 42 936 l 714 936 m 169 -364 l 268 -71 l 478 -71 l 317 -364 l 169 -364 z "},"ţ":{"ha":536,"x_min":14,"x_max":494,"o":"m 318 556 l 318 232 q 340 175 318 194 q 406 156 361 156 q 494 183 451 156 l 494 15 q 356 -7 443 -7 q 115 233 115 -7 l 115 556 l 14 556 l 14 704 l 115 704 l 115 871 l 318 871 l 318 704 l 482 704 l 482 556 l 318 556 m 118 -364 l 217 -71 l 426 -71 l 265 -364 l 118 -364 z "},"Ť":{"ha":756,"x_min":42,"x_max":714,"o":"m 714 936 l 714 764 l 486 764 l 486 0 l 271 0 l 271 764 l 42 764 l 42 936 l 714 936 m 464 1001 l 292 1001 l 75 1247 l 268 1247 l 378 1114 l 488 1247 l 681 1247 l 464 1001 z "},"ť":{"ha":536,"x_min":14,"x_max":697,"o":"m 488 1110 l 697 1110 l 536 817 l 389 817 l 488 1110 m 318 556 l 318 232 q 340 175 318 194 q 406 156 361 156 q 494 183 451 156 l 494 15 q 356 -7 443 -7 q 115 233 115 -7 l 115 556 l 14 556 l 14 704 l 115 704 l 115 871 l 318 871 l 318 704 l 482 704 l 482 556 l 318 556 z "},"Ŧ":{"ha":756,"x_min":42,"x_max":714,"o":"m 714 764 l 486 764 l 486 535 l 639 535 l 639 378 l 486 378 l 486 0 l 271 0 l 271 378 l 118 378 l 118 535 l 271 535 l 271 764 l 42 764 l 42 936 l 714 936 l 714 764 z "},"ŧ":{"ha":592,"x_min":42,"x_max":522,"o":"m 346 306 l 346 232 q 367 175 346 194 q 434 156 389 156 q 522 183 479 156 l 522 15 q 383 -7 471 -7 q 143 233 143 -7 l 143 306 l 42 306 l 42 447 l 143 447 l 143 563 l 42 563 l 42 704 l 143 704 l 143 871 l 346 871 l 346 704 l 510 704 l 510 563 l 346 563 l 346 447 l 510 447 l 510 306 l 346 306 z "},"Ũ":{"ha":928,"x_min":83,"x_max":844,"o":"m 561 1028 q 465 1052 515 1028 q 388 1076 415 1076 q 340 1065 360 1076 q 290 1017 321 1053 l 200 1106 q 266 1186 222 1153 q 360 1219 310 1219 q 467 1195 411 1219 q 550 1171 524 1171 q 647 1231 617 1171 l 750 1146 q 561 1028 692 1028 m 631 361 l 631 936 l 844 936 l 844 363 q 742 83 844 179 q 465 -14 639 -14 q 188 82 292 -14 q 83 353 83 178 l 83 936 l 297 936 l 297 354 q 464 181 297 181 q 631 361 631 181 z "},"ũ":{"ha":806,"x_min":76,"x_max":722,"o":"m 519 704 l 722 704 l 722 0 l 519 0 l 519 113 q 306 -6 464 -6 q 137 55 197 -6 q 76 233 76 115 l 76 704 l 279 704 l 279 279 q 388 156 279 156 q 519 332 519 156 l 519 704 m 494 796 q 399 820 449 796 q 321 844 349 844 q 274 833 293 844 q 224 785 254 821 l 133 874 q 199 954 156 921 q 294 988 243 988 q 401 963 344 988 q 483 939 457 939 q 581 999 550 939 l 683 914 q 494 796 625 796 z "},"Ū":{"ha":928,"x_min":83,"x_max":844,"o":"m 722 1056 l 228 1056 l 228 1193 l 722 1193 l 722 1056 m 631 361 l 631 936 l 844 936 l 844 363 q 742 83 844 179 q 465 -14 639 -14 q 188 82 292 -14 q 83 353 83 178 l 83 936 l 297 936 l 297 354 q 464 181 297 181 q 631 361 631 181 z "},"ū":{"ha":806,"x_min":76,"x_max":722,"o":"m 519 704 l 722 704 l 722 0 l 519 0 l 519 113 q 306 -6 464 -6 q 137 55 197 -6 q 76 233 76 115 l 76 704 l 279 704 l 279 279 q 388 156 279 156 q 519 332 519 156 l 519 704 m 644 961 l 644 824 l 150 824 l 150 961 l 644 961 z "},"Ŭ":{"ha":928,"x_min":83,"x_max":844,"o":"m 631 361 l 631 936 l 844 936 l 844 363 q 742 83 844 179 q 465 -14 639 -14 q 188 82 292 -14 q 83 353 83 178 l 83 936 l 297 936 l 297 354 q 464 181 297 181 q 631 361 631 181 m 183 1247 l 339 1247 q 372 1156 339 1189 q 458 1124 404 1124 q 545 1156 513 1124 q 578 1247 578 1189 l 733 1247 q 658 1057 733 1118 q 458 996 582 996 q 259 1057 335 996 q 183 1247 183 1118 z "},"ŭ":{"ha":806,"x_min":76,"x_max":722,"o":"m 519 704 l 722 704 l 722 0 l 519 0 l 519 113 q 306 -6 464 -6 q 137 55 197 -6 q 76 233 76 115 l 76 704 l 279 704 l 279 279 q 388 156 279 156 q 519 332 519 156 l 519 704 m 525 1015 l 681 1015 q 605 825 681 886 q 406 764 529 764 q 206 825 282 764 q 131 1015 131 886 l 286 1015 q 319 924 286 957 q 406 892 351 892 q 492 924 460 892 q 525 1015 525 957 z "},"Ů":{"ha":928,"x_min":83,"x_max":844,"o":"m 631 361 l 631 936 l 844 936 l 844 363 q 742 83 844 179 q 465 -14 639 -14 q 188 82 292 -14 q 83 353 83 178 l 83 936 l 297 936 l 297 354 q 464 181 297 181 q 631 361 631 181 m 414 1234 q 403 1223 414 1234 q 393 1179 393 1211 q 414 1124 393 1147 q 467 1101 435 1101 q 519 1124 499 1101 q 540 1179 540 1147 q 519 1234 540 1211 q 467 1257 499 1257 q 414 1234 435 1257 m 333 1042 q 306 1069 333 1042 q 278 1175 278 1097 q 333 1308 278 1253 q 467 1364 389 1364 q 600 1308 544 1364 q 656 1175 656 1253 q 600 1042 656 1097 q 467 986 544 986 q 333 1042 389 986 z "},"ů":{"ha":806,"x_min":76,"x_max":722,"o":"m 519 704 l 722 704 l 722 0 l 519 0 l 519 113 q 306 -6 464 -6 q 137 55 197 -6 q 76 233 76 115 l 76 704 l 279 704 l 279 279 q 388 156 279 156 q 519 332 519 156 l 519 704 m 538 810 q 510 782 538 810 q 404 754 482 754 q 271 810 326 754 q 215 943 215 865 q 271 1076 215 1021 q 404 1132 326 1132 q 538 1076 482 1132 q 593 943 593 1021 q 538 810 593 865 m 457 1002 q 447 1014 457 1002 q 404 1025 436 1025 q 351 1002 372 1025 q 331 947 331 979 q 351 892 331 915 q 404 869 372 869 q 457 892 436 869 q 478 947 478 915 q 457 1002 478 979 z "},"Ű":{"ha":928,"x_min":83,"x_max":856,"o":"m 264 1001 l 383 1247 l 568 1247 l 414 1001 l 264 1001 m 524 1001 l 654 1247 l 856 1247 l 674 1001 l 524 1001 m 631 361 l 631 936 l 844 936 l 844 363 q 742 83 844 179 q 465 -14 639 -14 q 188 82 292 -14 q 83 353 83 178 l 83 936 l 297 936 l 297 354 q 464 181 297 181 q 631 361 631 181 z "},"ű":{"ha":806,"x_min":76,"x_max":800,"o":"m 519 332 l 519 704 l 722 704 l 722 0 l 519 0 l 519 113 q 306 -6 464 -6 q 137 55 197 -6 q 76 233 76 115 l 76 704 l 279 704 l 279 279 q 388 156 279 156 q 519 332 519 156 m 513 1015 l 358 769 l 208 769 l 328 1015 l 513 1015 m 618 769 l 468 769 l 599 1015 l 800 1015 l 618 769 z "},"Ų":{"ha":928,"x_min":83,"x_max":844,"o":"m 631 936 l 844 936 l 844 363 q 785 137 844 226 q 622 11 726 47 q 458 -169 458 -90 q 519 -217 458 -217 q 639 -175 579 -217 l 639 -315 q 481 -350 572 -350 q 344 -304 390 -350 q 297 -187 297 -258 q 385 -8 297 -93 q 165 106 246 13 q 83 353 83 199 l 83 936 l 297 936 l 297 354 q 464 181 297 181 q 631 361 631 181 l 631 936 z "},"ų":{"ha":806,"x_min":76,"x_max":739,"o":"m 722 704 l 722 0 q 558 -181 558 -101 q 619 -228 558 -228 q 739 -186 679 -228 l 739 -326 q 581 -361 672 -361 q 444 -315 490 -361 q 397 -199 397 -269 q 519 10 397 -86 l 519 113 q 306 -6 464 -6 q 137 55 197 -6 q 76 233 76 115 l 76 704 l 279 704 l 279 279 q 388 156 279 156 q 519 332 519 156 l 519 704 l 722 704 z "},"Ŵ":{"ha":1349,"x_min":26,"x_max":1322,"o":"m 597 1247 l 769 1247 l 986 1001 l 793 1001 l 683 1135 l 574 1001 l 381 1001 l 597 1247 m 599 922 l 757 922 q 940 233 910 374 q 1018 593 958 357 l 1104 936 l 1322 936 l 1072 0 l 833 0 q 678 592 690 517 q 603 296 674 535 l 517 0 l 278 0 l 26 936 l 251 936 q 383 391 365 481 q 411 233 401 301 q 599 922 433 335 z "},"ŵ":{"ha":1119,"x_min":7,"x_max":1113,"o":"m 479 1015 l 651 1015 l 868 769 l 675 769 l 565 903 l 456 769 l 263 769 l 479 1015 m 233 0 l 7 704 l 217 704 q 338 192 324 299 q 406 472 347 275 l 474 704 l 649 704 q 782 192 764 303 q 847 472 792 274 l 913 704 l 1113 704 l 888 0 l 679 0 q 561 492 578 385 q 503 231 547 399 l 442 0 l 233 0 z "},"Ŷ":{"ha":893,"x_min":18,"x_max":875,"o":"m 551 0 l 338 0 l 338 343 l 18 936 l 268 936 q 443 500 408 600 q 565 800 457 563 l 626 936 l 875 936 l 551 344 l 551 0 m 446 1135 l 336 1001 l 143 1001 l 360 1247 l 532 1247 l 749 1001 l 556 1001 l 446 1135 z "},"ŷ":{"ha":739,"x_min":7,"x_max":732,"o":"m 143 -275 q 65 -268 100 -275 l 65 -107 q 113 -112 88 -112 q 279 11 228 -112 l 7 704 l 228 704 q 379 239 363 318 q 524 704 397 307 l 732 704 l 478 21 q 143 -275 368 -275 m 288 1015 l 460 1015 l 676 769 l 483 769 l 374 903 l 264 769 l 71 769 l 288 1015 z "},"Ÿ":{"ha":893,"x_min":18,"x_max":875,"o":"m 551 0 l 338 0 l 338 343 l 18 936 l 268 936 q 443 500 408 600 q 565 800 457 563 l 626 936 l 875 936 l 551 344 l 551 0 m 385 1123 q 385 1099 385 1123 q 352 1042 385 1075 q 270 1010 319 1010 q 188 1042 221 1010 q 156 1123 156 1075 q 188 1203 156 1171 q 270 1236 221 1236 q 352 1203 319 1236 q 385 1123 385 1171 m 758 1123 q 758 1099 758 1123 q 725 1042 758 1075 q 642 1010 692 1010 q 560 1042 593 1010 q 528 1123 528 1075 q 560 1203 528 1171 q 642 1236 593 1236 q 725 1203 692 1236 q 758 1123 758 1171 z "},"Ź":{"ha":863,"x_min":83,"x_max":779,"o":"m 763 936 l 763 785 l 340 172 l 779 172 l 779 0 l 83 0 l 83 157 l 503 764 l 92 764 l 92 936 l 763 936 m 378 1001 l 497 1247 l 700 1247 l 546 1001 l 378 1001 z "},"ź":{"ha":665,"x_min":56,"x_max":610,"o":"m 593 704 l 593 564 l 285 157 l 610 157 l 610 0 l 56 0 l 56 146 l 364 549 l 68 549 l 68 704 l 593 704 m 278 768 l 397 1014 l 600 1014 l 446 768 l 278 768 z "},"Ż":{"ha":863,"x_min":83,"x_max":779,"o":"m 456 1011 q 432 1011 456 1011 q 374 1044 407 1011 q 342 1124 342 1076 q 374 1205 342 1172 q 456 1238 407 1238 q 538 1205 506 1238 q 571 1124 571 1172 q 538 1044 571 1076 q 456 1011 506 1011 m 763 936 l 763 785 l 340 172 l 779 172 l 779 0 l 83 0 l 83 157 l 503 764 l 92 764 l 92 936 l 763 936 z "},"ż":{"ha":665,"x_min":56,"x_max":610,"o":"m 349 778 q 325 778 349 778 q 267 810 300 778 q 235 891 235 843 q 267 972 235 939 q 349 1004 300 1004 q 431 972 399 1004 q 464 891 464 939 q 431 810 464 843 q 349 778 399 778 m 593 704 l 593 564 l 285 157 l 610 157 l 610 0 l 56 0 l 56 146 l 364 549 l 68 549 l 68 704 l 593 704 z "},"Ž":{"ha":863,"x_min":83,"x_max":779,"o":"m 531 1001 l 358 1001 l 142 1247 l 335 1247 l 444 1114 l 554 1247 l 747 1247 l 531 1001 m 763 936 l 763 785 l 340 172 l 779 172 l 779 0 l 83 0 l 83 157 l 503 764 l 92 764 l 92 936 l 763 936 z "},"ž":{"ha":665,"x_min":56,"x_max":663,"o":"m 446 769 l 274 769 l 57 1015 l 250 1015 l 360 882 l 469 1015 l 663 1015 l 446 769 m 593 704 l 593 564 l 285 157 l 610 157 l 610 0 l 56 0 l 56 146 l 364 549 l 68 549 l 68 704 l 593 704 z "},"ſ":{"ha":424,"x_min":90,"x_max":465,"o":"m 465 892 q 385 907 428 907 q 292 800 292 907 l 292 0 l 90 0 l 90 800 q 162 999 90 928 q 360 1069 233 1069 q 465 1056 425 1069 l 465 892 z "},"ƒ":{"ha":725,"x_min":-42,"x_max":683,"o":"m 564 943 q 683 929 643 943 l 683 765 q 604 781 644 781 q 482 632 504 781 l 467 536 l 600 536 l 600 388 l 444 388 l 375 -58 q 283 -275 354 -194 q 92 -356 213 -356 q -42 -335 7 -356 l -42 -171 q 57 -193 3 -193 q 137 -156 111 -193 q 174 -44 163 -119 l 240 388 l 119 388 l 119 536 l 264 536 l 281 646 q 372 863 301 782 q 564 943 443 943 z "},"Ș":{"ha":714,"x_min":54,"x_max":672,"o":"m 165 -364 l 264 -71 l 474 -71 l 313 -364 l 165 -364 m 397 760 q 315 738 343 760 q 286 681 286 715 q 321 619 286 646 q 412 567 356 592 q 497 527 468 542 q 562 487 525 513 q 619 433 599 461 q 672 272 672 364 q 579 67 672 146 q 326 -11 486 -11 q 63 47 167 -11 l 63 263 q 332 171 189 171 q 413 197 381 171 q 444 264 444 222 q 429 310 444 294 q 403 333 414 325 q 373 351 393 340 q 339 368 353 361 q 254 407 296 389 q 109 510 164 449 q 54 682 54 571 q 143 867 54 793 q 381 942 232 942 q 631 894 529 942 l 631 694 q 397 760 518 760 z "},"ș":{"ha":606,"x_min":74,"x_max":564,"o":"m 356 553 q 300 538 319 553 q 281 506 281 524 q 288 478 281 489 q 310 457 294 467 q 341 440 326 447 q 381 421 356 432 q 519 331 475 381 q 564 213 564 281 q 489 51 564 108 q 288 -6 414 -6 q 76 38 163 -6 l 76 218 q 279 151 172 151 q 356 200 356 151 q 325 244 356 226 q 265 273 303 257 q 214 296 228 289 q 74 496 74 363 q 152 656 74 599 q 343 713 231 713 q 528 683 456 713 l 528 510 q 356 553 454 553 m 110 -364 l 208 -71 l 418 -71 l 257 -364 l 110 -364 z "},"Ț":{"ha":756,"x_min":42,"x_max":714,"o":"m 714 936 l 714 764 l 486 764 l 486 0 l 271 0 l 271 764 l 42 764 l 42 936 l 714 936 m 174 -364 l 272 -71 l 482 -71 l 321 -364 l 174 -364 z "},"ț":{"ha":536,"x_min":14,"x_max":494,"o":"m 318 556 l 318 232 q 340 175 318 194 q 406 156 361 156 q 494 183 451 156 l 494 15 q 356 -7 443 -7 q 115 233 115 -7 l 115 556 l 14 556 l 14 704 l 115 704 l 115 871 l 318 871 l 318 704 l 482 704 l 482 556 l 318 556 m 150 -364 l 249 -71 l 458 -71 l 297 -364 l 150 -364 z "},"ȷ":{"ha":381,"x_min":-56,"x_max":297,"o":"m 24 -119 q 96 -26 96 -119 l 96 704 l 297 704 l 297 -29 q 235 -208 297 -140 q 54 -275 172 -275 q -56 -253 6 -275 l -56 -99 q 24 -119 -10 -119 z "},"ʼ":{"ha":358,"x_min":25,"x_max":389,"o":"m 25 601 l 165 964 l 389 964 l 200 601 l 25 601 z "},"ˆ":{"ha":694,"x_min":44,"x_max":650,"o":"m 261 1108 l 433 1108 l 650 863 l 457 863 l 347 996 l 238 863 l 44 863 l 261 1108 z "},"ˇ":{"ha":694,"x_min":44,"x_max":650,"o":"m 433 863 l 261 863 l 44 1108 l 238 1108 l 347 975 l 457 1108 l 650 1108 l 433 863 z "},"ˉ":{"ha":694,"x_min":100,"x_max":594,"o":"m 594 904 l 100 904 l 100 1042 l 594 1042 l 594 904 z "},"˘":{"ha":694,"x_min":72,"x_max":622,"o":"m 72 1108 l 228 1108 q 260 1017 228 1050 q 347 985 293 985 q 434 1017 401 985 q 467 1108 467 1050 l 622 1108 q 547 918 622 979 q 347 857 471 857 q 148 918 224 857 q 72 1108 72 979 z "},"˙":{"ha":694,"x_min":232,"x_max":461,"o":"m 347 874 q 322 874 347 874 q 265 906 297 874 q 232 987 232 939 q 265 1067 232 1035 q 347 1100 297 1100 q 428 1067 396 1100 q 461 987 461 1035 q 428 906 461 939 q 347 874 396 874 z "},"˚":{"ha":694,"x_min":158,"x_max":536,"o":"m 294 1045 q 284 1034 294 1045 q 274 990 274 1022 q 294 935 274 958 q 347 913 315 913 q 400 935 379 913 q 421 990 421 958 q 400 1045 421 1022 q 347 1068 379 1068 q 294 1045 315 1068 m 214 853 q 186 881 214 853 q 158 986 158 908 q 214 1119 158 1064 q 347 1175 269 1175 q 481 1119 425 1175 q 536 986 536 1064 q 481 853 536 908 q 347 797 425 797 q 214 853 269 797 z "},"˛":{"ha":694,"x_min":176,"x_max":518,"o":"m 518 -307 q 360 -342 451 -342 q 223 -296 269 -342 q 176 -187 176 -250 q 204 -75 176 -125 q 276 11 232 -25 q 433 108 351 72 l 501 19 q 338 -161 338 -82 q 398 -208 338 -208 q 518 -167 458 -208 l 518 -307 z "},"˜":{"ha":694,"x_min":72,"x_max":622,"o":"m 433 863 q 338 887 388 863 q 260 911 288 911 q 213 899 232 911 q 163 851 193 888 l 72 940 q 138 1021 94 988 q 233 1054 182 1054 q 340 1030 283 1054 q 422 1006 396 1006 q 519 1065 489 1006 l 622 981 q 433 863 564 863 z "},"˝":{"ha":694,"x_min":51,"x_max":643,"o":"m 51 863 l 171 1108 l 356 1108 l 201 863 l 51 863 m 311 863 l 442 1108 l 643 1108 l 461 863 l 311 863 z "},"π":{"ha":842,"x_min":28,"x_max":828,"o":"m 828 704 l 828 556 l 717 556 l 717 0 l 514 0 l 514 556 l 342 556 l 342 300 q 274 66 342 132 q 54 0 207 0 l 54 165 q 120 188 101 165 q 139 279 139 211 l 139 556 l 28 556 l 28 704 l 828 704 z "},"ँ":{"ha":0,"x_min":-522,"x_max":131,"o":"m -263 1288 q -277 1302 -263 1288 q -292 1357 -292 1317 q -263 1426 -292 1397 q -194 1454 -235 1454 q -126 1426 -154 1454 q -97 1357 -97 1397 q -126 1288 -97 1317 q -194 1260 -154 1260 q -263 1288 -235 1260 m 131 1281 q 36 1089 131 1160 q -201 1018 -58 1018 q -433 1085 -343 1018 q -522 1281 -522 1153 l -333 1281 q -295 1192 -333 1226 q -194 1157 -257 1157 q -95 1192 -132 1157 q -58 1281 -58 1226 l 131 1281 z "},"ं":{"ha":0,"x_min":-308,"x_max":-81,"o":"m -275 1056 q -292 1072 -275 1056 q -308 1136 -308 1089 q -275 1217 -308 1183 q -194 1250 -242 1250 q -114 1217 -147 1250 q -81 1136 -81 1183 q -114 1056 -81 1089 q -194 1022 -147 1022 q -275 1056 -242 1022 z "},"ः":{"ha":396,"x_min":122,"x_max":350,"o":"m 156 131 q 139 148 156 131 q 122 213 122 164 q 156 294 122 261 q 236 326 189 326 q 317 294 283 326 q 350 213 350 261 q 317 131 350 164 q 236 99 283 99 q 156 131 189 99 m 156 592 q 139 608 156 592 q 122 672 122 625 q 156 753 122 719 q 236 786 189 786 q 317 753 283 786 q 350 672 350 719 q 317 592 350 625 q 236 558 283 558 q 156 592 189 558 z "},"अ":{"ha":975,"x_min":42,"x_max":1017,"o":"m 1017 932 l 1017 776 l 878 776 l 878 0 l 681 0 l 681 322 l 532 322 l 532 313 q 456 132 532 201 q 231 63 381 63 q 42 93 129 63 l 42 274 q 221 226 131 226 q 343 343 343 226 q 315 414 343 388 q 211 440 286 440 l 154 440 l 154 604 l 197 604 q 313 690 313 604 q 215 774 313 774 q 69 739 144 774 l 69 915 q 231 942 138 942 q 436 881 364 942 q 508 715 508 821 q 471 592 508 643 q 364 521 433 540 q 463 481 422 513 l 681 481 l 681 776 l 574 776 l 574 932 l 1017 932 z "},"आ":{"ha":1363,"x_min":42,"x_max":1404,"o":"m 1404 932 l 1404 776 l 1265 776 l 1265 0 l 1069 0 l 1069 776 l 878 776 l 878 0 l 681 0 l 681 322 l 532 322 l 532 313 q 456 132 532 201 q 231 63 381 63 q 42 93 129 63 l 42 274 q 221 226 131 226 q 343 343 343 226 q 315 414 343 388 q 211 440 286 440 l 154 440 l 154 604 l 197 604 q 313 690 313 604 q 215 774 313 774 q 69 739 144 774 l 69 915 q 231 942 138 942 q 436 881 364 942 q 508 715 508 821 q 471 592 508 643 q 364 521 433 540 q 463 481 422 513 l 681 481 l 681 776 l 574 776 l 574 932 l 1404 932 z "},"इ":{"ha":735,"x_min":-42,"x_max":776,"o":"m 631 776 l 631 563 l 629 563 l 631 558 l 350 558 q 279 508 279 558 q 379 457 279 457 q 619 401 544 457 q 693 238 693 344 q 620 64 693 132 q 442 -4 547 -4 q 264 35 338 -4 l 264 -99 l 69 -99 l 69 251 l 250 251 q 311 172 268 203 q 401 142 354 142 q 474 165 447 142 q 500 217 500 188 q 490 260 500 246 q 460 281 479 275 q 379 292 428 292 q 81 496 81 292 q 158 660 81 606 q 358 714 236 714 l 436 714 l 436 776 l -42 776 l -42 932 l 776 932 l 776 776 l 631 776 z "},"ई":{"ha":735,"x_min":-42,"x_max":776,"o":"m 617 776 l 617 563 l 615 563 l 617 558 l 350 558 q 279 508 279 558 q 379 457 279 457 q 619 401 544 457 q 693 238 693 344 q 620 64 693 132 q 442 -4 547 -4 q 264 35 338 -4 l 264 -99 l 69 -99 l 69 251 l 250 251 q 311 172 268 203 q 401 142 354 142 q 474 165 447 142 q 500 217 500 188 q 490 260 500 246 q 460 281 479 275 q 379 292 428 292 q 81 496 81 292 q 158 660 81 606 q 358 714 236 714 l 422 714 l 422 776 l -42 776 l -42 932 l 381 932 q 338 1067 338 993 q 411 1241 338 1181 q 588 1301 485 1301 q 763 1267 692 1301 l 763 1086 q 618 1129 703 1129 q 559 1106 581 1129 q 538 1039 538 1082 q 579 932 538 996 l 776 932 l 776 776 l 617 776 z "},"उ":{"ha":644,"x_min":-42,"x_max":686,"o":"m 686 932 l 686 776 l 511 776 q 547 658 547 729 q 499 541 547 588 q 364 483 450 494 q 535 419 475 472 q 596 276 596 365 q 503 82 596 150 q 244 14 410 14 q 42 44 129 14 l 42 225 q 226 178 131 178 q 360 206 322 178 q 399 294 399 235 q 211 401 399 401 l 154 401 l 154 565 l 197 565 q 311 588 272 565 q 350 672 350 611 q 307 776 350 733 l -42 776 l -42 932 l 686 932 z "},"ऊ":{"ha":1008,"x_min":-42,"x_max":1050,"o":"m 1050 932 l 1050 776 l 511 776 q 547 658 547 729 q 499 541 547 588 q 364 483 450 494 q 497 446 443 475 q 711 592 539 592 q 910 518 838 592 q 982 317 982 444 q 906 106 982 190 q 692 22 831 22 q 646 26 669 22 l 646 181 q 669 178 657 178 q 759 211 732 178 q 786 307 786 244 q 694 435 786 435 q 622 392 647 435 q 596 281 596 349 l 596 276 q 503 82 596 150 q 244 14 410 14 q 42 44 129 14 l 42 225 q 226 178 131 178 q 360 206 322 178 q 399 294 399 235 q 211 401 399 401 l 154 401 l 154 565 l 197 565 q 311 588 272 565 q 350 672 350 611 q 307 776 350 733 l -42 776 l -42 932 l 1050 932 z "},"ऋ":{"ha":1268,"x_min":-42,"x_max":1310,"o":"m 724 776 l 724 544 l 842 613 l 842 701 l 1029 701 l 1029 583 q 1052 499 1029 531 q 1121 468 1075 468 l 1168 468 l 1168 313 l 1104 313 q 985 242 985 313 q 1005 202 985 217 q 1054 188 1025 188 q 1199 225 1143 188 l 1199 61 q 1049 33 1150 33 q 872 81 949 33 q 794 226 794 129 q 931 390 794 350 q 869 451 893 414 l 724 368 l 724 0 l 525 0 l 525 271 l 104 36 l 104 221 l 333 346 q 194 508 331 508 q 103 489 149 508 l 103 660 q 214 676 153 676 q 488 431 453 676 l 525 451 l 525 776 l -42 776 l -42 932 l 1310 932 l 1310 776 l 724 776 z "},"ऌ":{"ha":1143,"x_min":-42,"x_max":1185,"o":"m 1017 776 l 1017 253 q 903 226 944 253 q 863 154 863 200 q 963 76 863 76 q 1101 108 1038 76 l 1101 -43 q 926 -74 1033 -74 q 742 -17 818 -74 q 667 143 667 39 q 706 258 667 206 q 818 331 746 310 l 818 514 q 753 524 786 524 q 656 490 686 524 q 626 383 626 457 l 626 293 l 428 293 l 428 386 q 335 504 428 504 q 243 367 243 504 q 460 163 243 163 q 519 167 489 163 l 519 7 q 438 1 482 1 q 154 101 260 1 q 49 369 49 201 q 119 586 49 506 q 314 667 189 667 q 456 631 399 667 q 526 543 514 594 q 742 678 565 678 q 818 664 774 678 l 818 776 l -42 776 l -42 932 l 1185 932 l 1185 776 l 1017 776 z "},"ऍ":{"ha":801,"x_min":-42,"x_max":843,"o":"m 843 932 l 843 776 l 739 776 l 739 608 q 673 431 739 490 q 506 372 607 372 q 413 382 451 372 l 413 535 q 461 529 451 529 q 525 551 504 529 q 546 625 546 572 l 546 776 l 286 776 l 286 365 q 341 244 286 286 q 501 203 396 203 q 710 249 606 203 l 710 72 q 476 35 603 35 q 197 118 303 35 q 90 367 90 201 l 90 776 l -42 776 l -42 932 l 843 932 m 553 1281 l 742 1281 q 653 1089 742 1160 q 424 1018 565 1018 q 200 1085 283 1018 q 117 1281 117 1151 l 306 1281 q 338 1190 306 1224 q 431 1157 369 1157 q 522 1190 492 1157 q 553 1281 553 1224 z "},"ऎ":{"ha":801,"x_min":-42,"x_max":843,"o":"m 843 932 l 843 776 l 739 776 l 739 608 q 673 431 739 490 q 506 372 607 372 q 413 382 451 372 l 413 535 q 461 529 451 529 q 525 551 504 529 q 546 625 546 572 l 546 776 l 286 776 l 286 365 q 341 244 286 286 q 501 203 396 203 q 710 249 606 203 l 710 72 q 476 35 603 35 q 197 118 303 35 q 90 367 90 201 l 90 776 l -42 776 l -42 932 l 544 932 q 526 998 542 981 q 469 1015 511 1015 l 432 1015 q 362 1017 390 1015 q 290 1033 333 1019 q 219 1072 246 1047 q 171 1144 192 1096 q 150 1261 150 1193 l 349 1261 q 372 1189 349 1206 q 457 1172 394 1172 l 492 1172 q 740 932 738 1172 l 843 932 z "},"ए":{"ha":801,"x_min":-42,"x_max":843,"o":"m 843 932 l 843 776 l 739 776 l 739 608 q 673 431 739 490 q 506 372 607 372 q 413 382 451 372 l 413 535 q 461 529 451 529 q 525 551 504 529 q 546 625 546 572 l 546 776 l 286 776 l 286 365 q 341 244 286 286 q 501 203 396 203 q 710 249 606 203 l 710 72 q 476 35 603 35 q 197 118 303 35 q 90 367 90 201 l 90 776 l -42 776 l -42 932 l 843 932 z "},"ऐ":{"ha":801,"x_min":-42,"x_max":843,"o":"m 843 932 l 843 776 l 739 776 l 739 608 q 673 431 739 490 q 506 372 607 372 q 413 382 451 372 l 413 535 q 461 529 451 529 q 525 551 504 529 q 546 625 546 572 l 546 776 l 286 776 l 286 365 q 341 244 286 286 q 501 203 396 203 q 710 249 606 203 l 710 72 q 476 35 603 35 q 197 118 303 35 q 90 367 90 201 l 90 776 l -42 776 l -42 932 l 529 932 l 436 1068 q 331 1125 399 1125 q 242 1111 288 1125 l 242 1275 q 361 1283 292 1285 q 593 1157 511 1282 l 739 932 l 843 932 z "},"ऑ":{"ha":1365,"x_min":42,"x_max":1407,"o":"m 1407 932 l 1407 776 l 1268 776 l 1268 0 l 1072 0 l 1072 776 l 878 776 l 878 0 l 681 0 l 681 322 l 532 322 l 532 313 q 456 132 532 201 q 231 63 381 63 q 42 93 129 63 l 42 274 q 221 226 131 226 q 343 343 343 226 q 315 414 343 388 q 211 440 286 440 l 154 440 l 154 604 l 197 604 q 313 690 313 604 q 215 774 313 774 q 69 739 144 774 l 69 915 q 231 942 138 942 q 436 881 364 942 q 508 715 508 821 q 471 592 508 643 q 364 521 433 540 q 463 481 422 513 l 681 481 l 681 776 l 574 776 l 574 932 l 1407 932 m 1114 1281 l 1303 1281 q 1215 1089 1303 1160 q 985 1018 1126 1018 q 761 1085 844 1018 q 678 1281 678 1151 l 867 1281 q 899 1190 867 1224 q 992 1157 931 1157 q 1083 1190 1053 1157 q 1114 1281 1114 1224 z "},"ऒ":{"ha":1365,"x_min":42,"x_max":1407,"o":"m 1407 932 l 1407 776 l 1268 776 l 1268 0 l 1072 0 l 1072 776 l 878 776 l 878 0 l 681 0 l 681 322 l 532 322 l 532 313 q 456 132 532 201 q 231 63 381 63 q 42 93 129 63 l 42 274 q 221 226 131 226 q 343 343 343 226 q 315 414 343 388 q 211 440 286 440 l 154 440 l 154 604 l 197 604 q 313 690 313 604 q 215 774 313 774 q 69 739 144 774 l 69 915 q 231 942 138 942 q 436 881 364 942 q 508 715 508 821 q 471 592 508 643 q 364 521 433 540 q 463 481 422 513 l 681 481 l 681 776 l 574 776 l 574 932 l 1072 932 q 1054 998 1069 981 q 997 1015 1039 1015 l 960 1015 q 890 1017 918 1015 q 817 1033 861 1019 q 747 1072 774 1047 q 699 1144 719 1096 q 678 1261 678 1193 l 876 1261 q 899 1189 876 1206 q 985 1172 922 1172 l 1019 1172 q 1268 932 1265 1172 l 1407 932 z "},"ओ":{"ha":1365,"x_min":42,"x_max":1407,"o":"m 1407 932 l 1407 776 l 1268 776 l 1268 0 l 1072 0 l 1072 776 l 878 776 l 878 0 l 681 0 l 681 322 l 532 322 l 532 313 q 456 132 532 201 q 231 63 381 63 q 42 93 129 63 l 42 274 q 221 226 131 226 q 343 343 343 226 q 315 414 343 388 q 211 440 286 440 l 154 440 l 154 604 l 197 604 q 313 690 313 604 q 215 774 313 774 q 69 739 144 774 l 69 915 q 231 942 138 942 q 436 881 364 942 q 508 715 508 821 q 471 592 508 643 q 364 521 433 540 q 463 481 422 513 l 681 481 l 681 776 l 574 776 l 574 932 l 1060 932 l 967 1068 q 861 1125 929 1125 q 772 1111 818 1125 l 772 1275 q 892 1283 822 1285 q 1124 1157 1042 1282 l 1269 932 l 1407 932 z "},"औ":{"ha":1365,"x_min":42,"x_max":1407,"o":"m 1407 932 l 1407 776 l 1268 776 l 1268 0 l 1072 0 l 1072 776 l 878 776 l 878 0 l 681 0 l 681 322 l 532 322 l 532 313 q 456 132 532 201 q 231 63 381 63 q 42 93 129 63 l 42 274 q 221 226 131 226 q 343 343 343 226 q 315 414 343 388 q 211 440 286 440 l 154 440 l 154 604 l 197 604 q 313 690 313 604 q 215 774 313 774 q 69 739 144 774 l 69 915 q 231 942 138 942 q 436 881 364 942 q 508 715 508 821 q 471 592 508 643 q 364 521 433 540 q 463 481 422 513 l 681 481 l 681 776 l 574 776 l 574 932 l 1022 932 q 782 1008 875 1008 q 704 999 740 1008 l 704 1138 q 804 1150 747 1150 q 924 1117 861 1150 q 1118 974 988 1085 l 986 1129 q 905 1200 944 1178 q 808 1222 865 1222 q 704 1208 750 1222 l 704 1354 q 819 1367 742 1367 q 1097 1197 994 1367 l 1258 932 l 1407 932 z "},"क":{"ha":1124,"x_min":-42,"x_max":1165,"o":"m 1165 776 l 660 776 l 660 625 q 807 679 721 679 q 1006 602 931 679 q 1082 401 1082 525 q 996 199 1082 276 q 775 122 910 122 q 743 124 754 122 l 743 281 q 765 279 751 279 q 853 314 822 279 q 885 401 885 349 q 856 488 885 453 q 774 524 826 524 q 691 488 722 524 q 660 394 660 453 l 660 0 l 463 0 l 463 161 q 315 108 403 108 q 116 185 192 108 q 40 387 40 263 q 126 588 40 511 q 347 665 213 665 q 379 664 367 665 l 379 507 q 357 508 371 508 q 269 474 300 508 q 238 387 238 439 q 267 299 238 335 q 348 264 296 264 q 431 299 400 264 q 463 393 463 335 l 463 776 l -42 776 l -42 932 l 1165 932 l 1165 776 z "},"ख":{"ha":1168,"x_min":-42,"x_max":1210,"o":"m 1210 932 l 1210 776 l 1071 776 l 1071 0 l 874 0 l 874 183 q 742 147 818 147 q 559 220 632 147 q 486 407 486 293 q 564 594 486 521 q 757 667 642 667 q 796 664 776 667 l 796 521 l 782 521 q 700 488 731 521 q 669 403 669 454 q 699 322 669 353 q 774 292 729 292 q 874 393 874 292 l 874 776 l 476 776 l 476 604 q 428 447 476 510 q 278 361 376 379 l 560 0 l 324 0 l 49 356 l 49 508 l 154 508 q 282 615 282 508 l 282 776 l -42 776 l -42 932 l 1210 932 z "},"ग":{"ha":813,"x_min":-42,"x_max":854,"o":"m -42 932 l 854 932 l 854 776 l 715 776 l 715 0 l 521 0 l 521 776 l 367 776 l 367 479 q 310 331 367 379 q 176 282 254 282 q 42 301 99 282 l 42 454 q 110 438 72 438 q 171 501 171 438 l 171 776 l -42 776 l -42 932 z "},"घ":{"ha":886,"x_min":-42,"x_max":928,"o":"m 928 932 l 928 776 l 789 776 l 789 0 l 594 0 l 594 194 q 492 121 560 146 q 350 96 424 96 q 134 158 221 96 q 47 329 47 221 q 106 465 47 413 q 265 525 165 518 q 119 566 171 528 q 67 668 67 604 q 108 776 67 732 l -42 776 l -42 932 l 928 932 m 594 474 l 594 776 l 307 776 q 264 692 264 740 q 388 607 264 607 l 443 607 l 443 443 l 376 443 q 280 417 315 443 q 244 348 244 392 q 280 281 244 304 q 372 258 315 258 q 533 313 472 258 q 594 474 594 368 z "},"ङ":{"ha":910,"x_min":-42,"x_max":951,"o":"m -42 932 l 951 932 l 951 776 l 601 776 l 601 565 l 600 565 l 601 561 l 311 561 q 240 507 240 561 q 278 465 240 474 q 401 456 315 456 q 679 243 679 456 q 588 69 676 138 q 340 0 500 0 q 49 72 179 0 l 49 253 q 350 163 196 163 q 450 182 415 163 q 485 235 485 201 q 453 281 485 269 q 351 293 421 293 q 234 303 282 293 q 142 335 186 313 q 73 400 99 357 q 47 503 47 443 q 126 663 47 610 q 313 717 204 717 l 407 717 l 407 776 l -42 776 l -42 932 m 692 573 q 707 589 692 573 q 767 604 722 604 q 842 573 811 604 q 872 499 872 542 q 842 424 872 456 q 767 393 811 393 q 692 424 722 393 q 661 499 661 456 q 692 573 661 542 z "},"च":{"ha":917,"x_min":-42,"x_max":958,"o":"m 958 932 l 958 776 l 819 776 l 819 0 l 625 0 l 625 233 q 374 126 549 126 q 181 192 253 126 q 110 354 110 257 q 183 499 110 451 l 28 499 l 28 658 l 526 658 l 526 499 q 297 379 297 499 q 332 308 297 333 q 426 283 367 283 q 571 340 517 283 q 625 449 625 397 l 625 776 l -42 776 l -42 932 l 958 932 z "},"छ":{"ha":913,"x_min":-42,"x_max":954,"o":"m 954 776 l 761 776 l 761 658 q 864 447 864 589 q 738 172 864 275 q 415 68 611 68 q 165 131 268 68 q 63 308 63 194 q 115 432 63 386 q 261 483 167 478 q 124 535 172 485 q 76 657 76 586 q 122 776 76 728 l -42 776 l -42 932 l 954 932 l 954 776 m 575 776 l 331 776 q 272 663 272 731 q 299 593 272 621 q 372 565 325 565 l 424 565 l 424 401 l 372 401 q 260 318 260 401 q 303 253 260 278 q 417 229 347 229 q 597 284 529 229 q 665 431 665 339 q 635 517 665 488 q 559 547 604 547 q 489 540 514 547 l 489 694 q 575 706 521 703 l 575 776 z "},"ज":{"ha":914,"x_min":-42,"x_max":957,"o":"m -42 932 l 957 932 l 957 776 l 817 776 l 817 0 l 619 0 l 619 483 l 424 483 q 504 318 504 431 q 426 141 504 206 q 235 76 349 76 q 42 106 121 76 l 42 278 q 182 243 107 243 q 319 357 319 243 q 269 450 319 417 q 121 483 219 483 l 121 643 l 619 643 l 619 776 l -42 776 l -42 932 z "},"झ":{"ha":1085,"x_min":-42,"x_max":1126,"o":"m 1126 932 l 1126 776 l 988 776 l 988 0 l 790 0 l 790 318 l 671 318 q 682 238 682 286 q 610 67 682 132 q 435 3 539 3 q 256 46 331 3 l 256 -71 l 61 -71 l 61 260 l 242 260 q 307 178 265 208 q 394 149 349 149 q 464 169 439 149 q 489 230 489 189 q 457 286 489 271 q 368 301 425 301 q 81 500 81 301 q 158 662 81 610 q 358 714 235 714 l 436 714 l 436 776 l -42 776 l -42 932 l 1126 932 m 368 467 l 790 467 l 790 776 l 631 776 l 631 563 l 629 563 l 631 558 l 367 558 q 279 511 279 558 q 368 467 279 467 z "},"ञ":{"ha":958,"x_min":-42,"x_max":1000,"o":"m 1000 932 l 1000 776 l 861 776 l 861 0 l 664 0 l 664 325 l 582 325 q 478 149 563 217 q 261 74 393 82 q 42 125 139 74 l 42 301 q 246 242 142 242 q 353 280 317 242 q 390 378 390 318 q 356 474 390 439 q 260 508 322 508 q 138 482 199 508 l 138 647 q 295 671 196 671 q 470 621 394 671 q 572 481 546 571 l 664 481 l 664 776 l -42 776 l -42 932 l 1000 932 z "},"ट":{"ha":722,"x_min":-42,"x_max":764,"o":"m 629 776 l 629 496 q 483 506 585 506 q 320 461 381 506 q 260 340 260 417 q 319 222 260 263 q 475 181 378 181 q 588 198 529 181 q 679 238 646 215 l 679 61 q 460 13 585 13 q 167 101 272 13 q 61 347 61 190 q 156 566 61 476 q 421 661 250 656 l 435 661 l 435 776 l -42 776 l -42 932 l 764 932 l 764 776 l 629 776 z "},"ठ":{"ha":799,"x_min":-42,"x_max":840,"o":"m 840 776 l 531 776 l 531 650 q 692 551 632 622 q 751 374 751 479 q 658 163 751 243 q 405 81 564 82 q 147 159 246 79 q 49 370 49 239 q 131 574 49 501 q 335 663 213 647 l 335 776 l -42 776 l -42 932 l 840 932 l 840 776 m 246 377 q 246 343 246 377 q 291 272 246 310 q 405 235 336 235 q 514 272 474 235 q 554 376 554 310 q 513 476 554 442 q 403 512 472 511 q 290 478 333 513 q 246 377 246 444 z "},"ड":{"ha":742,"x_min":-42,"x_max":783,"o":"m 601 776 l 601 565 l 600 565 l 601 561 l 311 561 q 240 507 240 561 q 278 465 240 474 q 401 456 315 456 q 679 243 679 456 q 588 69 676 138 q 340 0 500 0 q 49 72 179 0 l 49 253 q 350 163 196 163 q 450 182 415 163 q 485 235 485 201 q 453 281 485 269 q 351 293 421 293 q 234 303 282 293 q 142 335 186 313 q 73 400 99 357 q 47 503 47 443 q 126 663 47 610 q 313 717 204 717 l 407 717 l 407 776 l -42 776 l -42 932 l 783 932 l 783 776 l 601 776 z "},"ढ":{"ha":783,"x_min":-42,"x_max":825,"o":"m 369 415 q 521 447 431 447 q 673 396 611 447 q 735 245 735 344 q 649 79 735 146 q 406 13 564 13 q 145 109 249 13 q 42 358 42 206 q 151 592 42 511 q 438 675 261 672 l 450 675 l 450 776 l -42 776 l -42 932 l 825 932 l 825 776 l 644 776 l 644 510 q 506 525 579 525 q 377 510 433 525 q 281 453 321 494 q 240 344 240 411 q 292 223 240 276 q 425 169 343 169 q 513 190 478 169 q 549 244 549 211 q 469 308 549 308 q 369 278 411 308 l 369 415 z "},"ण":{"ha":1047,"x_min":-42,"x_max":1089,"o":"m 1089 932 l 1089 776 l 950 776 l 950 0 l 754 0 l 754 776 l 592 776 l 592 492 q 518 288 592 358 q 313 218 444 218 q 112 286 182 218 q 42 488 42 354 l 42 776 l -42 776 l -42 932 l 1089 932 m 399 475 l 399 776 l 236 776 l 236 474 q 317 382 236 382 q 399 475 399 382 z "},"त":{"ha":844,"x_min":-42,"x_max":886,"o":"m 886 932 l 886 776 l 747 776 l 747 0 l 550 0 l 550 500 l 453 500 q 309 458 358 500 q 260 335 260 415 q 406 165 260 165 q 429 167 421 165 l 429 4 q 374 1 396 1 q 144 94 226 1 q 63 335 63 186 q 160 571 63 483 q 447 658 257 658 l 550 658 l 550 776 l -42 776 l -42 932 l 886 932 z "},"थ":{"ha":936,"x_min":28,"x_max":964,"o":"m 568 704 q 253 401 568 500 q 322 322 274 351 q 441 293 369 293 q 577 338 513 293 q 642 488 642 383 l 642 932 l 964 932 l 964 776 l 839 776 l 839 0 l 642 0 l 642 208 q 548 148 613 171 q 408 125 483 125 q 149 231 260 125 q 28 508 39 338 q 305 601 224 558 q 386 713 386 643 q 326 783 386 783 q 264 711 264 783 q 281 635 264 672 l 94 635 q 79 728 79 679 q 144 884 79 822 q 321 946 208 946 q 501 882 433 946 q 568 704 568 818 z "},"द":{"ha":804,"x_min":-42,"x_max":846,"o":"m -42 932 l 846 932 l 846 776 l 690 776 l 690 532 l 401 532 q 284 493 328 532 q 240 388 240 454 q 278 285 240 322 q 376 249 315 249 q 529 388 507 249 l 721 388 l 721 -14 l 526 -14 l 526 160 q 447 105 501 124 q 342 86 392 86 q 124 172 206 86 q 42 389 42 257 q 133 604 42 521 q 393 688 224 688 l 492 688 l 492 776 l -42 776 l -42 932 z "},"ध":{"ha":893,"x_min":-42,"x_max":935,"o":"m 935 932 l 935 776 l 796 776 l 796 0 l 601 0 l 601 189 q 357 96 522 96 q 141 158 228 96 q 54 329 54 221 q 112 458 54 411 q 272 511 169 504 q 126 552 178 514 q 74 666 74 590 q 135 776 74 742 l -42 776 l -42 932 l 410 932 l 410 776 l 406 776 q 271 678 271 776 q 394 593 271 593 l 450 593 l 450 429 l 383 429 q 251 349 251 429 q 287 281 251 304 q 379 258 322 258 q 541 308 481 258 q 601 461 601 358 l 601 932 l 935 932 z "},"न":{"ha":735,"x_min":-42,"x_max":776,"o":"m -42 932 l 776 932 l 776 776 l 638 776 l 638 0 l 440 0 l 440 439 l 267 439 q 231 426 242 439 q 219 375 219 414 q 231 281 219 336 l 75 281 q 28 461 28 360 q 67 559 28 524 q 181 594 106 594 l 440 594 l 440 776 l -42 776 l -42 932 z "},"ऩ":{"ha":735,"x_min":-42,"x_max":776,"o":"m -42 932 l 776 932 l 776 776 l 638 776 l 638 0 l 440 0 l 440 439 l 267 439 q 231 426 242 439 q 219 375 219 414 q 231 281 219 336 l 75 281 q 28 461 28 360 q 67 559 28 524 q 181 594 106 594 l 440 594 l 440 776 l -42 776 l -42 932 m 131 162 q 146 177 131 162 q 206 193 161 193 q 281 162 250 193 q 311 88 311 131 q 281 13 311 44 q 206 -18 250 -18 q 131 13 161 -18 q 100 88 100 44 q 131 162 100 131 z "},"प":{"ha":801,"x_min":-42,"x_max":843,"o":"m 843 932 l 843 776 l 704 776 l 704 0 l 507 0 l 507 294 q 344 238 440 238 q 152 307 221 238 q 83 521 83 376 l 83 776 l -42 776 l -42 932 l 843 932 m 507 522 l 507 776 l 281 776 l 281 513 q 383 393 281 393 q 472 427 438 393 q 507 522 507 461 z "},"फ":{"ha":1172,"x_min":-42,"x_max":1214,"o":"m 1214 776 l 704 776 l 704 638 q 867 694 771 694 q 1056 616 988 694 q 1124 424 1124 538 q 1038 212 1124 285 q 821 139 951 139 q 786 140 797 139 l 786 297 q 808 296 794 296 q 928 422 928 296 q 901 505 928 471 q 824 539 874 539 q 739 505 774 539 q 704 410 704 471 l 704 0 l 507 0 l 507 294 q 344 238 440 238 q 152 307 221 238 q 83 521 83 376 l 83 776 l -42 776 l -42 932 l 1214 932 l 1214 776 m 507 522 l 507 776 l 281 776 l 281 513 q 383 393 281 393 q 472 427 438 393 q 507 522 507 461 z "},"ब":{"ha":878,"x_min":-42,"x_max":919,"o":"m 919 932 l 919 776 l 781 776 l 781 0 l 583 0 l 583 183 q 367 103 496 103 q 144 189 239 103 q 49 406 49 275 q 137 623 49 536 q 371 710 225 710 q 483 699 435 710 l 483 529 q 402 543 442 543 q 339 536 363 543 l 569 346 q 583 404 583 376 l 583 776 l -42 776 l -42 932 l 919 932 m 268 481 q 247 391 247 447 q 289 295 247 335 q 392 256 331 256 q 504 283 453 256 l 268 481 z "},"भ":{"ha":821,"x_min":-12,"x_max":863,"o":"m 532 525 l 532 932 l 863 932 l 863 776 l 724 776 l 724 0 l 532 0 l 532 369 l 319 369 l 319 196 l 150 196 l 100 303 q 63 425 63 382 q 126 515 63 497 l 126 714 q 63 779 126 779 q -12 760 26 779 l -12 911 q 107 939 40 939 q 319 738 319 939 l 319 525 l 532 525 z "},"म":{"ha":813,"x_min":-42,"x_max":854,"o":"m 524 776 l 304 776 l 304 518 l 524 518 l 524 776 m -42 776 l -42 932 l 854 932 l 854 776 l 715 776 l 715 0 l 524 0 l 524 363 l 304 363 l 304 193 l 139 193 l 89 304 q 49 432 49 396 q 111 508 49 492 l 111 776 l -42 776 z "},"य":{"ha":881,"x_min":-42,"x_max":922,"o":"m 417 319 q 542 365 496 319 q 588 503 588 411 l 588 776 l 407 776 q 436 649 436 732 q 385 509 436 567 q 254 425 335 451 q 417 319 286 319 m 383 147 q 147 247 246 147 q 26 522 47 347 q 243 667 243 553 q 203 776 243 736 l -42 776 l -42 932 l 922 932 l 922 776 l 783 776 l 783 0 l 588 0 l 588 236 q 508 172 564 196 q 383 147 453 147 z "},"र":{"ha":579,"x_min":-42,"x_max":621,"o":"m 49 508 l 154 508 q 282 614 282 508 l 282 776 l -42 776 l -42 932 l 621 932 l 621 776 l 476 776 l 476 603 q 430 447 476 510 q 296 367 383 383 q 275 364 285 364 l 560 0 l 324 0 l 49 356 l 49 508 z "},"ऱ":{"ha":579,"x_min":-56,"x_max":621,"o":"m 49 508 l 154 508 q 282 614 282 508 l 282 776 l -42 776 l -42 932 l 621 932 l 621 776 l 476 776 l 476 603 q 430 447 476 510 q 296 367 383 383 q 275 364 285 364 l 560 0 l 324 0 l 49 356 l 49 508 m -25 -33 q -40 -18 -25 -33 q -56 42 -56 -3 q -25 117 -56 86 q 50 147 6 147 q 125 117 94 147 q 156 42 156 86 q 125 -33 156 -3 q 50 -64 94 -64 q -25 -33 6 -64 z "},"ल":{"ha":1057,"x_min":-42,"x_max":1099,"o":"m 1099 932 l 1099 776 l 960 776 l 960 0 l 761 0 l 761 522 q 738 524 753 524 q 642 490 671 524 q 613 383 613 457 l 613 293 l 414 293 l 414 386 q 333 504 414 504 q 242 367 242 504 q 458 163 242 163 q 518 167 486 163 l 518 7 q 436 1 481 1 q 153 101 258 1 q 47 369 47 201 q 117 586 47 506 q 313 667 188 667 q 448 631 396 667 q 513 543 500 596 q 726 678 551 678 q 761 675 739 678 l 761 776 l -42 776 l -42 932 l 1099 932 z "},"ळ":{"ha":1114,"x_min":-42,"x_max":1156,"o":"m 1156 776 l 871 776 l 871 672 q 1017 574 963 646 q 1072 403 1072 503 q 985 199 1072 276 q 774 121 899 121 q 547 203 650 121 q 341 121 468 121 q 128 199 214 121 q 42 405 42 278 q 126 611 42 532 q 339 690 211 690 q 557 611 467 690 q 686 679 619 667 l 686 776 l -42 776 l -42 932 l 1156 932 l 1156 776 m 351 276 q 453 394 417 276 q 475 476 469 446 q 355 535 413 535 q 269 499 297 535 q 240 404 240 463 q 269 311 240 346 q 351 276 299 276 m 635 338 q 758 276 701 276 q 844 312 814 276 q 874 404 874 347 q 844 497 874 461 q 761 532 814 532 q 635 338 660 532 z "},"ऴ":{"ha":1114,"x_min":-42,"x_max":1156,"o":"m 1156 776 l 871 776 l 871 672 q 1017 574 963 646 q 1072 403 1072 503 q 985 199 1072 276 q 774 121 899 121 q 547 203 650 121 q 341 121 468 121 q 128 199 214 121 q 42 405 42 278 q 126 611 42 532 q 339 690 211 690 q 557 611 467 690 q 686 679 619 667 l 686 776 l -42 776 l -42 932 l 1156 932 l 1156 776 m 351 276 q 453 394 417 276 q 475 476 469 446 q 355 535 413 535 q 269 499 297 535 q 240 404 240 463 q 269 311 240 346 q 351 276 299 276 m 635 338 q 758 276 701 276 q 844 312 814 276 q 874 404 874 347 q 844 497 874 461 q 761 532 814 532 q 635 338 660 532 m 231 -25 q 246 -10 231 -25 q 306 6 261 6 q 381 -25 350 6 q 411 -100 411 -56 q 381 -175 411 -144 q 306 -206 350 -206 q 231 -175 261 -206 q 200 -100 200 -144 q 231 -25 200 -56 z "},"व":{"ha":838,"x_min":-42,"x_max":879,"o":"m 879 932 l 879 776 l 740 776 l 740 0 l 543 0 l 543 188 q 344 119 467 119 q 135 196 222 119 q 49 403 49 272 q 134 617 49 533 q 358 701 219 701 q 456 690 414 701 l 456 521 q 364 533 408 533 q 283 500 319 533 q 247 406 247 467 q 284 310 247 346 q 383 275 321 275 q 494 312 446 275 q 543 404 543 349 l 543 776 l -42 776 l -42 932 l 879 932 z "},"श":{"ha":1000,"x_min":42,"x_max":1042,"o":"m 706 932 l 1042 932 l 1042 776 l 903 776 l 903 0 l 706 0 l 706 932 m 79 713 q 149 874 79 807 q 340 940 219 940 q 538 863 461 940 q 614 665 614 786 q 513 425 614 510 q 269 332 411 340 l 599 0 l 349 0 l 42 325 l 42 488 l 197 488 q 363 535 304 488 q 421 667 421 582 q 336 778 421 778 q 285 754 303 778 q 268 692 268 731 q 292 610 268 654 l 104 610 q 79 713 79 658 z "},"ष":{"ha":847,"x_min":-42,"x_max":889,"o":"m 889 932 l 889 776 l 750 776 l 750 0 l 557 0 l 557 293 q 362 231 482 231 q 163 304 242 231 q 83 521 83 378 l 83 776 l -42 776 l -42 932 l 889 932 m 271 513 q 309 417 271 449 q 406 385 347 385 q 514 425 465 385 l 271 671 l 271 513 m 557 776 l 318 776 l 557 528 l 557 776 z "},"स":{"ha":947,"x_min":-42,"x_max":989,"o":"m 989 932 l 989 776 l 850 776 l 850 0 l 654 0 l 654 338 l 446 338 q 272 349 367 338 l 532 0 l 296 0 l 28 374 l 28 510 l 126 510 q 254 617 254 510 l 254 776 l -42 776 l -42 932 l 989 932 m 654 492 l 654 776 l 449 776 l 449 618 q 419 492 449 544 l 654 492 z "},"ह":{"ha":765,"x_min":-42,"x_max":807,"o":"m 671 557 l 317 557 q 265 520 265 557 q 304 453 265 483 q 418 464 357 464 q 624 404 544 464 q 703 254 703 344 q 690 174 703 201 l 499 174 q 513 235 513 200 q 485 287 513 269 q 399 304 457 304 q 303 278 340 304 q 265 208 265 251 q 454 96 265 96 q 646 122 525 96 l 646 -37 q 446 -61 535 -61 q 165 20 263 -61 q 68 210 68 101 q 160 390 68 319 q 63 535 63 447 q 122 667 63 624 q 276 710 182 710 l 476 710 l 476 776 l -42 776 l -42 932 l 807 932 l 807 776 l 671 776 l 671 557 z "},"़":{"ha":0,"x_min":-501,"x_max":-290,"o":"m -470 -258 q -486 -243 -470 -258 q -501 -183 -501 -228 q -470 -108 -501 -139 q -396 -78 -439 -78 q -322 -108 -353 -78 q -290 -183 -290 -139 q -322 -258 -290 -228 q -396 -289 -353 -289 q -470 -258 -439 -289 z "},"ऽ":{"ha":810,"x_min":93,"x_max":726,"o":"m 726 249 q 647 66 726 136 q 405 -4 567 -4 q 93 81 243 -4 l 93 282 q 244 208 154 242 q 410 175 333 175 q 524 253 524 175 q 492 312 524 281 q 414 369 461 343 q 311 433 367 396 q 208 507 256 469 q 130 600 161 544 q 99 718 99 656 q 168 874 99 817 q 360 932 238 932 l 678 932 l 678 753 l 382 753 q 315 703 315 753 q 358 634 315 669 q 460 564 400 599 q 581 488 521 529 q 684 385 642 447 q 726 249 726 322 z "},"ा":{"ha":390,"x_min":-42,"x_max":432,"o":"m -42 776 l -42 932 l 432 932 l 432 776 l 293 776 l 293 0 l 97 0 l 97 776 l -42 776 z "},"ि":{"ha":390,"x_min":-42,"x_max":932,"o":"m 932 1014 q 640 1099 786 1067 q 424 1131 494 1131 q 293 1019 293 1131 l 293 932 l 432 932 l 432 776 l 293 776 l 293 0 l 97 0 l 97 776 l -42 776 l -42 932 l 97 932 l 97 1021 q 178 1218 97 1143 q 404 1293 260 1293 q 740 1243 560 1293 q 932 1186 806 1225 l 932 1014 z "},"ी":{"ha":390,"x_min":-303,"x_max":432,"o":"m 292 932 l 432 932 l 432 776 l 293 776 l 293 0 l 97 0 l 97 776 l -42 776 l -42 932 l 96 932 l 96 1015 q 69 1094 96 1067 q -8 1122 42 1122 q -106 1015 -106 1122 l -106 981 l -303 981 l -303 1022 q -219 1219 -303 1153 q -8 1286 -136 1286 q 206 1220 121 1286 q 292 1024 292 1154 l 292 932 z "},"ु":{"ha":0,"x_min":-608,"x_max":65,"o":"m -214 -267 q -147 -248 -171 -267 q -124 -200 -124 -229 q -147 -156 -124 -171 q -225 -140 -171 -140 q -357 -178 -279 -140 l -357 -8 q -206 17 -285 17 q -7 -41 -79 17 q 65 -197 65 -99 q -7 -361 65 -296 q -201 -426 -79 -426 q -429 -376 -322 -426 q -608 -264 -536 -325 l -608 -50 q -421 -199 -531 -131 q -214 -267 -311 -267 z "},"ू":{"ha":0,"x_min":-453,"x_max":168,"o":"m -200 -403 q -382 -348 -311 -403 q -453 -195 -453 -293 q -385 -36 -453 -97 q -217 25 -318 25 q -40 -16 -115 25 q 81 -122 36 -57 q 168 -406 168 -251 l -14 -406 q -67 -212 -14 -292 q -203 -132 -119 -132 q -250 -149 -232 -132 q -268 -192 -268 -165 q -246 -237 -268 -218 q -187 -256 -224 -256 q -115 -240 -150 -256 l -115 -387 q -200 -403 -153 -403 z "},"ृ":{"ha":0,"x_min":-489,"x_max":-87,"o":"m -233 -443 q -417 -381 -346 -443 q -489 -228 -489 -318 q -437 -85 -489 -139 q -293 -18 -385 -32 l -293 17 l -97 17 l -97 -160 l -165 -160 q -267 -176 -235 -160 q -299 -228 -299 -193 q -217 -296 -299 -296 q -87 -258 -149 -296 l -87 -407 q -233 -443 -153 -443 z "},"ॅ":{"ha":0,"x_min":-508,"x_max":117,"o":"m 117 1281 q 28 1089 117 1160 q -201 1018 -60 1018 q -425 1085 -342 1018 q -508 1281 -508 1151 l -319 1281 q -287 1190 -319 1224 q -194 1157 -256 1157 q -103 1190 -133 1157 q -72 1281 -72 1224 l 117 1281 z "},"ॆ":{"ha":0,"x_min":-687,"x_max":-97,"o":"m -381 1172 l -346 1172 q -97 925 -97 1172 l -293 925 q -310 997 -294 978 q -368 1015 -325 1015 l -406 1015 q -476 1017 -447 1015 q -548 1033 -504 1019 q -619 1072 -592 1047 q -667 1144 -646 1096 q -687 1261 -687 1193 l -489 1261 q -466 1189 -489 1206 q -381 1172 -443 1172 z "},"े":{"ha":0,"x_min":-593,"x_max":-89,"o":"m -504 1125 q -593 1111 -547 1125 l -593 1275 q -472 1283 -543 1285 q -242 1157 -324 1282 l -89 922 l -299 922 l -399 1068 q -504 1125 -436 1125 z "},"ै":{"ha":0,"x_min":-662,"x_max":-103,"o":"m -585 1008 q -662 999 -626 1008 l -662 1138 q -562 1150 -619 1150 q -442 1117 -506 1150 q -249 974 -379 1085 l -381 1129 q -462 1200 -422 1178 q -559 1222 -501 1222 q -662 1208 -617 1222 l -662 1354 q -547 1367 -625 1367 q -269 1197 -372 1367 l -103 922 l -326 922 q -585 1008 -487 1008 z "},"ॉ":{"ha":389,"x_min":-125,"x_max":500,"o":"m 500 1281 q 412 1089 500 1160 q 183 1018 324 1018 q -42 1085 42 1018 q -125 1281 -125 1151 l 64 1281 q 96 1190 64 1224 q 189 1157 128 1157 q 281 1190 250 1157 q 311 1281 311 1224 l 500 1281 m -42 776 l -42 932 l 431 932 l 431 776 l 292 776 l 292 0 l 97 0 l 97 776 l -42 776 z "},"ॊ":{"ha":389,"x_min":-297,"x_max":431,"o":"m 431 932 l 431 776 l 292 776 l 292 0 l 97 0 l 97 776 l -42 776 l -42 932 l 97 932 q 79 998 94 981 q 22 1015 64 1015 l -15 1015 q -85 1017 -57 1015 q -158 1033 -114 1019 q -228 1072 -201 1047 q -276 1144 -256 1096 q -297 1261 -297 1193 l -99 1261 q -76 1189 -99 1206 q 10 1172 -53 1172 l 44 1172 q 293 932 290 1172 l 431 932 z "},"ो":{"ha":389,"x_min":-204,"x_max":431,"o":"m 431 932 l 431 776 l 292 776 l 292 0 l 97 0 l 97 776 l -42 776 l -42 932 l 83 932 l -10 1068 q -115 1125 -47 1125 q -204 1111 -158 1125 l -204 1275 q -83 1283 -154 1285 q 147 1157 65 1282 l 293 932 l 431 932 z "},"ौ":{"ha":390,"x_min":-269,"x_max":432,"o":"m 432 932 l 432 776 l 293 776 l 293 0 l 97 0 l 97 776 l -42 776 l -42 932 l 49 932 q -192 1008 -99 1008 q -269 999 -233 1008 l -269 1138 q -169 1150 -226 1150 q -49 1117 -112 1150 q 144 974 14 1085 l 13 1129 q -69 1200 -29 1178 q -166 1222 -108 1222 q -269 1208 -224 1222 l -269 1354 q -154 1367 -232 1367 q 124 1197 21 1367 l 285 932 l 432 932 z "},"्":{"ha":0,"x_min":-286,"x_max":114,"o":"m 114 -335 l -119 -335 l -286 -90 l -87 -90 l 114 -335 z "},"ॐ":{"ha":1718,"x_min":136,"x_max":1622,"o":"m 1307 972 q 1213 781 1307 851 q 976 710 1118 710 q 744 777 833 710 q 654 972 654 844 l 843 972 q 881 883 843 918 q 982 849 919 849 q 1081 883 1044 849 q 1118 972 1118 918 l 1307 972 m 913 980 q 899 994 913 980 q 885 1049 885 1008 q 913 1117 885 1089 q 982 1146 942 1146 q 1051 1117 1022 1146 q 1079 1049 1079 1089 q 1051 980 1079 1008 q 982 951 1022 951 q 913 980 942 951 m 860 83 q 693 179 751 83 q 581 49 663 100 q 399 -1 500 -1 q 136 57 250 -1 l 136 238 q 389 163 263 163 q 482 192 446 163 q 518 271 518 221 q 392 363 518 363 l 279 363 l 279 518 l 319 518 q 434 552 400 518 q 468 631 468 586 q 442 700 468 675 q 369 725 415 725 q 163 658 254 725 l 163 822 q 264 867 200 850 q 393 885 328 885 q 590 822 517 885 q 664 651 664 758 q 635 546 664 593 q 556 475 606 499 q 713 374 661 458 q 745 324 732 343 q 783 287 758 306 q 835 268 807 268 q 895 296 864 268 q 962 372 926 324 q 1039 484 997 421 q 1103 576 1081 547 q 1165 644 1126 606 q 1339 717 1238 717 q 1544 631 1467 717 q 1622 403 1622 544 q 1542 164 1622 263 q 1326 65 1461 65 q 1186 90 1250 65 l 1186 257 q 1301 225 1238 225 q 1397 273 1364 225 q 1429 392 1429 321 q 1409 499 1429 463 q 1351 535 1389 535 q 1283 499 1314 535 q 1181 359 1251 464 q 1086 221 1110 254 q 860 83 992 83 z "},"॑":{"ha":0,"x_min":-260,"x_max":-108,"o":"m -260 1349 l -108 1349 l -108 988 l -260 988 l -260 1349 z "},"॒":{"ha":0,"x_min":-697,"x_max":-76,"o":"m -76 -333 l -697 -333 l -697 -182 l -76 -182 l -76 -333 z "},"॓":{"ha":0,"x_min":-442,"x_max":-93,"o":"m -442 1258 l -325 1356 l -93 1078 l -210 981 l -442 1258 z "},"॔":{"ha":0,"x_min":-310,"x_max":39,"o":"m -78 1356 l 39 1258 l -193 981 l -310 1078 l -78 1356 z "},"क़":{"ha":1124,"x_min":-42,"x_max":1165,"o":"m 1165 776 l 660 776 l 660 625 q 807 679 721 679 q 1006 602 931 679 q 1082 401 1082 525 q 996 199 1082 276 q 775 122 910 122 q 743 124 754 122 l 743 281 q 765 279 751 279 q 853 314 822 279 q 885 401 885 349 q 856 488 885 453 q 774 524 826 524 q 691 488 722 524 q 660 394 660 453 l 660 0 l 463 0 l 463 161 q 315 108 403 108 q 116 185 192 108 q 40 387 40 263 q 126 588 40 511 q 347 665 213 665 q 379 664 367 665 l 379 507 q 357 508 371 508 q 269 474 300 508 q 238 387 238 439 q 267 299 238 335 q 348 264 296 264 q 431 299 400 264 q 463 393 463 335 l 463 776 l -42 776 l -42 932 l 1165 932 l 1165 776 m 169 3 q 184 18 169 3 q 243 33 200 33 q 317 3 286 33 q 349 -72 349 -28 q 317 -147 349 -117 q 243 -178 286 -178 q 169 -147 200 -178 q 138 -72 138 -117 q 169 3 138 -28 z "},"ख़":{"ha":1168,"x_min":-42,"x_max":1210,"o":"m 1210 932 l 1210 776 l 1071 776 l 1071 0 l 874 0 l 874 183 q 742 147 818 147 q 559 220 632 147 q 486 407 486 293 q 564 594 486 521 q 757 667 642 667 q 796 664 776 667 l 796 521 l 782 521 q 700 488 731 521 q 669 403 669 454 q 699 322 669 353 q 774 292 729 292 q 874 393 874 292 l 874 776 l 476 776 l 476 604 q 428 447 476 510 q 278 361 376 379 l 560 0 l 324 0 l 49 356 l 49 508 l 154 508 q 282 615 282 508 l 282 776 l -42 776 l -42 932 l 1210 932 m 58 -11 q 73 4 58 -11 q 132 19 89 19 q 206 -11 175 19 q 238 -86 238 -42 q 206 -161 238 -131 q 132 -192 175 -192 q 58 -161 89 -192 q 26 -86 26 -131 q 58 -11 26 -42 z "},"ग़":{"ha":813,"x_min":-42,"x_max":854,"o":"m -42 932 l 854 932 l 854 776 l 715 776 l 715 0 l 521 0 l 521 776 l 367 776 l 367 479 q 310 331 367 379 q 176 282 254 282 q 42 301 99 282 l 42 454 q 110 438 72 438 q 171 501 171 438 l 171 776 l -42 776 l -42 932 m 155 100 q 170 115 155 100 q 229 131 186 131 q 303 100 272 131 q 335 25 335 69 q 303 -50 335 -19 q 229 -81 272 -81 q 155 -50 186 -81 q 124 25 124 -19 q 155 100 124 69 z "},"ज़":{"ha":914,"x_min":-42,"x_max":957,"o":"m -42 932 l 957 932 l 957 776 l 817 776 l 817 0 l 619 0 l 619 483 l 424 483 q 504 318 504 431 q 426 141 504 206 q 235 76 349 76 q 42 106 121 76 l 42 278 q 182 243 107 243 q 319 357 319 243 q 269 450 319 417 q 121 483 219 483 l 121 643 l 619 643 l 619 776 l -42 776 l -42 932 m 166 -39 q 182 -24 166 -39 q 240 -8 197 -8 q 315 -39 283 -8 q 346 -114 346 -69 q 315 -189 346 -158 q 240 -219 283 -219 q 166 -189 197 -219 q 135 -114 135 -158 q 166 -39 135 -69 z "},"ड़":{"ha":742,"x_min":-42,"x_max":783,"o":"m 601 776 l 601 565 l 600 565 l 601 561 l 311 561 q 240 507 240 561 q 278 465 240 474 q 401 456 315 456 q 679 243 679 456 q 588 69 676 138 q 340 0 500 0 q 49 72 179 0 l 49 253 q 350 163 196 163 q 450 182 415 163 q 485 235 485 201 q 453 281 485 269 q 351 293 421 293 q 234 303 282 293 q 142 335 186 313 q 73 400 99 357 q 47 503 47 443 q 126 663 47 610 q 313 717 204 717 l 407 717 l 407 776 l -42 776 l -42 932 l 783 932 l 783 776 l 601 776 m 266 -108 q 282 -93 266 -108 q 340 -78 297 -78 q 415 -108 383 -78 q 446 -183 446 -139 q 415 -258 446 -228 q 340 -289 383 -289 q 266 -258 297 -289 q 235 -183 235 -228 q 266 -108 235 -139 z "},"ढ़":{"ha":783,"x_min":-42,"x_max":825,"o":"m 369 415 q 521 447 431 447 q 673 396 611 447 q 735 245 735 344 q 649 79 735 146 q 406 13 564 13 q 145 109 249 13 q 42 358 42 206 q 151 592 42 511 q 438 675 261 672 l 450 675 l 450 776 l -42 776 l -42 932 l 825 932 l 825 776 l 644 776 l 644 510 q 506 525 579 525 q 377 510 433 525 q 281 453 321 494 q 240 344 240 411 q 292 223 240 276 q 425 169 343 169 q 513 190 478 169 q 549 244 549 211 q 469 308 549 308 q 369 278 411 308 l 369 415 m 324 -258 q 309 -243 324 -258 q 293 -183 293 -228 q 324 -108 293 -139 q 399 -78 356 -78 q 473 -108 442 -78 q 504 -183 504 -139 q 473 -258 504 -228 q 399 -289 442 -289 q 324 -258 356 -289 z "},"फ़":{"ha":1172,"x_min":-42,"x_max":1214,"o":"m 1214 776 l 704 776 l 704 638 q 867 694 771 694 q 1056 616 988 694 q 1124 424 1124 538 q 1038 212 1124 285 q 821 139 951 139 q 786 140 797 139 l 786 297 q 808 296 794 296 q 928 422 928 296 q 901 505 928 471 q 824 539 874 539 q 739 505 774 539 q 704 410 704 471 l 704 0 l 507 0 l 507 294 q 344 238 440 238 q 152 307 221 238 q 83 521 83 376 l 83 776 l -42 776 l -42 932 l 1214 932 l 1214 776 m 507 522 l 507 776 l 281 776 l 281 513 q 383 393 281 393 q 472 427 438 393 q 507 522 507 461 m 127 114 q 143 129 127 114 q 201 144 158 144 q 276 114 244 144 q 307 39 307 83 q 276 -36 307 -6 q 201 -67 244 -67 q 127 -36 158 -67 q 96 39 96 -6 q 127 114 96 83 z "},"य़":{"ha":881,"x_min":-42,"x_max":922,"o":"m 131 -101 q 115 -85 131 -101 q 100 -26 100 -69 q 131 48 100 17 q 206 79 161 79 q 281 48 250 79 q 311 -26 311 17 q 281 -101 311 -69 q 206 -132 250 -132 q 131 -101 161 -132 m 417 319 q 542 365 496 319 q 588 503 588 411 l 588 776 l 407 776 q 436 649 436 732 q 385 509 436 567 q 254 425 335 451 q 417 319 286 319 m 383 147 q 147 247 246 147 q 26 522 47 347 q 243 667 243 553 q 203 776 243 736 l -42 776 l -42 932 l 922 932 l 922 776 l 783 776 l 783 0 l 588 0 l 588 236 q 508 172 564 196 q 383 147 453 147 z "},"ॠ":{"ha":1122,"x_min":-42,"x_max":1164,"o":"m 669 776 l 669 526 l 765 575 l 765 692 l 953 692 l 953 632 q 994 472 953 538 q 1029 419 1011 444 q 1075 303 1072 360 q 1015 133 1081 186 q 831 79 950 79 q 756 86 790 79 l 758 250 q 804 243 782 243 q 889 313 889 240 q 875 354 889 338 q 847 389 861 371 q 824 417 832 407 l 669 342 l 669 0 l 479 0 l 479 283 l 63 81 l 63 272 l 293 379 q 153 521 281 521 q 61 501 107 521 l 61 672 q 172 689 111 689 q 444 450 408 689 l 479 467 l 479 776 l -42 776 l -42 932 l 1164 932 l 1164 776 l 669 776 z "},"ॡ":{"ha":1174,"x_min":-42,"x_max":1157,"o":"m 1010 776 l 1010 442 q 985 342 1010 388 q 931 269 961 296 q 853 150 853 200 q 873 113 853 126 q 925 99 893 99 l 1007 99 l 1007 -51 l 1010 -57 l 892 -57 q 845 -74 861 -57 q 829 -119 829 -92 q 848 -167 829 -147 q 906 -187 867 -187 q 1053 -143 944 -187 l 1053 -314 q 897 -344 976 -344 q 705 -281 779 -344 q 631 -122 631 -218 q 706 31 631 -26 q 658 149 658 78 q 683 229 658 192 q 735 290 707 267 q 788 353 764 314 q 813 442 813 393 l 813 568 l 754 568 q 662 535 690 568 q 633 422 633 501 l 633 317 l 438 317 l 438 422 q 346 571 438 571 q 263 530 293 571 q 233 410 233 489 q 458 149 233 192 l 456 -12 q 147 128 260 19 q 35 413 35 236 q 115 638 35 550 q 331 725 196 725 q 536 657 465 725 q 747 722 601 722 l 813 722 l 813 776 l -42 776 l -42 932 l 1157 932 l 1157 776 l 1010 776 z "},"।":{"ha":663,"x_min":299,"x_max":496,"o":"m 299 0 l 299 932 l 496 932 l 496 0 l 299 0 z "},"॥":{"ha":1010,"x_min":299,"x_max":843,"o":"m 646 0 l 646 932 l 843 932 l 843 0 l 646 0 m 299 0 l 299 932 l 496 932 l 496 0 l 299 0 z "},"०":{"ha":760,"x_min":49,"x_max":711,"o":"m 380 747 q 318 747 380 747 q 256 458 256 747 q 380 169 256 169 q 504 458 504 169 q 380 747 504 747 m 379 -11 q 297 -11 379 -11 q 132 116 215 -11 q 49 459 49 243 q 132 801 49 675 q 379 928 215 928 q 627 801 543 928 q 711 460 711 675 q 627 117 711 244 q 379 -11 543 -11 z "},"१":{"ha":569,"x_min":56,"x_max":486,"o":"m 486 908 l 486 0 l 285 0 l 285 690 l 56 553 l 56 760 l 311 908 l 486 908 z "},"२":{"ha":717,"x_min":56,"x_max":661,"o":"m 661 172 l 661 0 l 56 0 l 56 157 q 320 385 206 260 q 435 606 435 510 q 400 698 435 664 q 294 732 365 732 q 71 644 176 732 l 71 840 q 190 897 117 874 q 335 921 264 921 q 560 847 476 921 q 644 639 644 772 q 339 172 644 399 l 661 172 z "},"३":{"ha":685,"x_min":56,"x_max":636,"o":"m 299 921 q 532 851 446 921 q 618 668 618 781 q 478 456 618 514 q 636 250 636 418 q 548 63 636 133 q 306 -7 460 -7 q 56 40 153 -7 l 56 235 q 285 174 167 174 q 391 203 353 174 q 429 276 429 232 q 242 378 429 378 l 193 378 l 193 544 l 242 544 q 363 569 315 544 q 410 644 410 594 q 285 740 410 740 q 92 681 189 740 l 92 869 q 299 921 194 921 z "},"४":{"ha":801,"x_min":49,"x_max":760,"o":"m 760 365 l 760 193 l 649 193 l 649 0 l 447 0 l 447 193 l 49 193 l 49 365 l 326 911 l 649 911 l 649 365 l 760 365 m 447 365 l 447 776 l 247 365 l 447 365 z "},"५":{"ha":715,"x_min":63,"x_max":667,"o":"m 299 739 l 299 585 q 360 589 331 589 q 588 513 508 589 q 667 299 667 436 q 573 77 667 163 q 317 -8 479 -8 q 63 40 156 -8 l 63 232 q 274 174 157 174 q 460 307 460 174 q 422 386 460 357 q 292 415 383 415 q 101 369 200 415 l 101 911 l 611 911 l 611 739 l 299 739 z "},"६":{"ha":774,"x_min":63,"x_max":725,"o":"m 528 744 q 366 684 429 744 q 281 522 303 624 q 467 586 356 586 q 652 507 579 586 q 725 292 725 428 q 638 65 725 157 q 392 -28 551 -28 q 148 92 233 -28 q 63 415 63 213 q 190 786 63 647 q 511 925 317 925 q 654 903 585 925 l 654 715 q 528 744 600 744 m 403 153 q 488 190 457 153 q 518 288 518 228 q 488 381 518 347 q 404 415 458 415 q 272 356 329 415 q 403 153 288 153 z "},"७":{"ha":681,"x_min":35,"x_max":646,"o":"m 35 910 l 646 910 l 646 738 l 293 0 l 79 0 l 433 738 l 35 738 l 35 910 z "},"८":{"ha":757,"x_min":49,"x_max":708,"o":"m 708 253 q 616 60 708 133 q 374 -14 524 -14 q 137 56 225 -14 q 49 246 49 126 q 181 458 49 393 q 63 654 63 526 q 151 853 63 782 q 378 925 239 925 q 605 857 517 925 q 693 659 693 789 q 579 463 693 529 q 708 253 708 403 m 375 764 q 293 733 319 764 q 267 653 267 701 q 299 575 267 604 q 378 546 331 546 q 458 575 426 546 q 490 657 490 604 q 375 764 490 764 m 251 253 q 251 231 251 253 q 281 178 251 208 q 376 147 311 147 q 473 178 440 147 q 506 257 506 210 q 472 336 506 304 q 376 368 438 368 q 283 333 314 368 q 251 253 251 299 z "},"९":{"ha":768,"x_min":56,"x_max":719,"o":"m 264 172 q 432 222 372 172 q 510 376 492 271 q 328 317 450 317 q 131 395 207 317 q 56 607 56 474 q 141 831 56 740 q 381 921 226 921 q 627 803 535 921 q 719 483 719 686 q 601 112 719 235 q 286 -11 483 -11 q 121 15 192 -11 l 121 207 q 264 172 193 172 m 381 481 q 515 543 464 481 q 382 740 499 740 q 295 706 328 740 q 263 612 263 671 q 294 517 263 553 q 381 481 326 481 z "},"॰":{"ha":697,"x_min":88,"x_max":615,"o":"m 280 516 q 265 501 280 516 q 250 444 250 486 q 280 373 250 403 q 351 343 310 343 q 423 373 393 343 q 453 444 453 403 q 423 516 453 486 q 351 546 393 546 q 280 516 310 546 m 165 258 q 126 296 165 258 q 88 444 88 335 q 165 631 88 554 q 351 708 242 708 q 538 631 461 708 q 615 444 615 554 q 538 258 615 335 q 351 181 461 181 q 165 258 242 181 z "},"ॽ":{"ha":857,"x_min":154,"x_max":672,"o":"m 154 946 q 383 990 250 990 q 594 922 515 990 q 672 735 672 853 q 592 536 672 636 q 525 456 558 496 q 446 258 446 357 l 446 0 l 253 0 l 253 281 q 275 400 253 343 q 328 497 297 457 q 392 572 360 538 q 467 709 467 658 q 437 790 467 760 q 349 821 407 821 q 154 757 251 821 l 154 946 z "},"Ẁ":{"ha":1349,"x_min":26,"x_max":1322,"o":"m 599 922 l 757 922 q 940 233 910 374 q 1018 593 958 357 l 1104 936 l 1322 936 l 1072 0 l 833 0 q 678 592 690 517 q 603 296 674 535 l 517 0 l 278 0 l 26 936 l 251 936 q 383 391 365 481 q 411 233 401 301 q 599 922 433 335 m 639 1247 l 758 1001 l 590 1001 l 436 1247 l 639 1247 z "},"ẁ":{"ha":1119,"x_min":7,"x_max":1113,"o":"m 233 0 l 7 704 l 217 704 q 338 192 324 299 q 406 472 347 275 l 474 704 l 649 704 q 782 192 764 303 q 847 472 792 274 l 913 704 l 1113 704 l 888 0 l 679 0 q 561 492 578 385 q 503 231 547 399 l 442 0 l 233 0 m 521 1015 l 640 769 l 472 769 l 318 1015 l 521 1015 z "},"Ẃ":{"ha":1349,"x_min":26,"x_max":1322,"o":"m 615 1001 l 735 1247 l 938 1247 l 783 1001 l 615 1001 m 599 922 l 757 922 q 940 233 910 374 q 1018 593 958 357 l 1104 936 l 1322 936 l 1072 0 l 833 0 q 678 592 690 517 q 603 296 674 535 l 517 0 l 278 0 l 26 936 l 251 936 q 383 391 365 481 q 411 233 401 301 q 599 922 433 335 z "},"ẃ":{"ha":1119,"x_min":7,"x_max":1113,"o":"m 492 768 l 611 1014 l 814 1014 l 660 768 l 492 768 m 233 0 l 7 704 l 217 704 q 338 192 324 299 q 406 472 347 275 l 474 704 l 649 704 q 782 192 764 303 q 847 472 792 274 l 913 704 l 1113 704 l 888 0 l 679 0 q 561 492 578 385 q 503 231 547 399 l 442 0 l 233 0 z "},"Ẅ":{"ha":1349,"x_min":26,"x_max":1322,"o":"m 492 1011 q 468 1011 492 1011 q 410 1044 443 1011 q 378 1124 378 1076 q 410 1205 378 1172 q 492 1238 443 1238 q 574 1205 542 1238 q 607 1124 607 1172 q 574 1044 607 1076 q 492 1011 542 1011 m 865 1011 q 840 1011 865 1011 q 783 1044 815 1011 q 750 1124 750 1076 q 783 1205 750 1172 q 865 1238 815 1238 q 947 1205 914 1238 q 981 1124 981 1172 q 947 1044 981 1076 q 865 1011 914 1011 m 599 922 l 757 922 q 940 233 910 374 q 1018 593 958 357 l 1104 936 l 1322 936 l 1072 0 l 833 0 q 678 592 690 517 q 603 296 674 535 l 517 0 l 278 0 l 26 936 l 251 936 q 383 391 365 481 q 411 233 401 301 q 599 922 433 335 z "},"ẅ":{"ha":1119,"x_min":7,"x_max":1113,"o":"m 374 778 q 350 778 374 778 q 292 810 325 778 q 260 891 260 843 q 292 972 260 939 q 374 1004 325 1004 q 456 972 424 1004 q 489 891 489 939 q 456 810 489 843 q 374 778 424 778 m 747 778 q 722 778 747 778 q 665 810 697 778 q 632 891 632 843 q 665 972 632 939 q 747 1004 697 1004 q 829 972 796 1004 q 863 891 863 939 q 829 810 863 843 q 747 778 796 778 m 233 0 l 7 704 l 217 704 q 338 192 324 299 q 406 472 347 275 l 474 704 l 649 704 q 782 192 764 303 q 847 472 792 274 l 913 704 l 1113 704 l 888 0 l 679 0 q 561 492 578 385 q 503 231 547 399 l 442 0 l 233 0 z "},"Ỳ":{"ha":893,"x_min":18,"x_max":875,"o":"m 551 0 l 338 0 l 338 343 l 18 936 l 268 936 q 443 500 408 600 q 565 800 457 563 l 626 936 l 875 936 l 551 344 l 551 0 m 536 1001 l 368 1001 l 214 1247 l 417 1247 l 536 1001 z "},"ỳ":{"ha":739,"x_min":7,"x_max":732,"o":"m 143 -275 q 65 -268 100 -275 l 65 -107 q 113 -112 88 -112 q 279 11 228 -112 l 7 704 l 228 704 q 379 239 363 318 q 524 704 397 307 l 732 704 l 478 21 q 143 -275 368 -275 m 344 1015 l 464 769 l 296 769 l 142 1015 l 344 1015 z "},"​":{"ha":0,"x_min":0,"x_max":0,"o":""},"‌":{"ha":0,"x_min":-32,"x_max":33,"o":"m 33 -319 l -32 -319 l -32 1126 l 33 1126 l 33 -319 z "},"‍":{"ha":0,"x_min":-176,"x_max":179,"o":"m 33 -319 l -32 -319 l -32 882 l -128 781 l -174 826 l -44 956 l -176 1088 l -131 1133 l 1 1001 l 135 1133 l 179 1089 l 46 956 l 179 824 l 133 778 l 33 882 l 33 -319 z "},"–":{"ha":771,"x_min":63,"x_max":708,"o":"m 63 299 l 63 447 l 708 447 l 708 299 l 63 299 z "},"—":{"ha":1161,"x_min":63,"x_max":1099,"o":"m 63 303 l 63 451 l 1099 451 l 1099 303 l 63 303 z "},"‘":{"ha":371,"x_min":38,"x_max":401,"o":"m 401 964 l 261 601 l 38 601 l 226 964 l 401 964 z "},"’":{"ha":371,"x_min":39,"x_max":403,"o":"m 39 601 l 179 964 l 403 964 l 214 601 l 39 601 z "},"‚":{"ha":371,"x_min":-10,"x_max":354,"o":"m -10 -176 l 131 186 l 354 186 l 165 -176 l -10 -176 z "},"“":{"ha":628,"x_min":38,"x_max":658,"o":"m 658 964 l 525 601 l 322 601 l 490 964 l 658 964 m 401 964 l 257 601 l 38 601 l 233 964 l 401 964 z "},"”":{"ha":628,"x_min":39,"x_max":660,"o":"m 39 601 l 172 964 l 375 964 l 207 601 l 39 601 m 296 601 l 440 964 l 660 964 l 464 601 l 296 601 z "},"„":{"ha":628,"x_min":-3,"x_max":618,"o":"m -3 -176 l 131 186 l 333 186 l 165 -176 l -3 -176 m 254 -176 l 399 186 l 618 186 l 422 -176 l 254 -176 z "},"†":{"ha":776,"x_min":42,"x_max":735,"o":"m 735 726 l 735 563 l 478 563 l 478 0 l 297 0 l 297 563 l 42 563 l 42 726 l 297 726 l 297 936 l 478 936 l 478 726 l 735 726 z "},"‡":{"ha":818,"x_min":63,"x_max":756,"o":"m 756 563 l 499 563 l 499 374 l 756 374 l 756 210 l 499 210 l 499 0 l 318 0 l 318 210 l 63 210 l 63 374 l 318 374 l 318 563 l 63 563 l 63 726 l 318 726 l 318 936 l 499 936 l 499 726 l 756 726 l 756 563 z "},"•":{"ha":590,"x_min":111,"x_max":479,"o":"m 164 363 q 138 389 164 363 q 111 494 111 415 q 163 626 111 574 q 294 679 215 679 q 426 626 372 679 q 479 494 479 572 q 426 363 479 417 q 295 310 374 310 q 164 363 217 310 z "},"…":{"ha":1303,"x_min":83,"x_max":1219,"o":"m 1008 25 q 990 43 1008 25 q 972 113 972 61 q 1008 200 972 164 q 1096 236 1044 236 q 1183 200 1147 236 q 1219 113 1219 164 q 1183 25 1219 61 q 1096 -11 1147 -11 q 1008 25 1044 -11 m 564 25 q 546 43 564 25 q 528 113 528 61 q 564 200 528 164 q 651 236 600 236 q 739 200 703 236 q 775 113 775 164 q 739 25 775 61 q 651 -11 703 -11 q 564 25 600 -11 m 119 25 q 101 43 119 25 q 83 113 83 61 q 119 200 83 164 q 207 236 156 236 q 294 200 258 236 q 331 113 331 164 q 294 25 331 61 q 207 -11 258 -11 q 119 25 156 -11 z "},"‰":{"ha":1961,"x_min":63,"x_max":1900,"o":"m 1565 324 q 1550 309 1565 324 q 1535 253 1535 294 q 1565 181 1535 211 q 1636 151 1594 151 q 1708 181 1678 151 q 1738 253 1738 211 q 1708 324 1738 294 q 1636 354 1678 354 q 1565 324 1594 354 m 1449 66 q 1411 105 1449 66 q 1372 253 1372 143 q 1449 440 1372 363 q 1636 517 1526 517 q 1823 440 1746 517 q 1900 253 1900 363 q 1823 66 1900 143 q 1636 -11 1746 -11 q 1449 66 1526 -11 m 953 324 q 939 309 953 324 q 924 253 924 294 q 953 181 924 211 q 1025 151 983 151 q 1097 181 1067 151 q 1126 253 1126 211 q 1097 324 1126 294 q 1025 354 1067 354 q 953 324 983 354 m 255 810 q 240 795 255 810 q 225 739 225 781 q 255 667 225 697 q 326 638 285 638 q 398 667 368 638 q 428 739 428 697 q 398 810 428 781 q 326 840 368 840 q 255 810 285 840 m 140 552 q 101 591 140 552 q 63 739 63 629 q 140 926 63 849 q 326 1003 217 1003 q 513 926 436 1003 q 590 739 590 849 q 513 552 590 629 q 326 475 436 475 q 140 552 217 475 m 838 66 q 800 105 838 66 q 761 253 761 143 q 838 440 761 363 q 1025 517 915 517 q 1212 440 1135 517 q 1289 253 1289 363 q 1212 66 1289 143 q 1025 -11 1135 -11 q 838 66 915 -11 m 315 -1 l 842 982 l 1025 982 l 497 -1 l 315 -1 z "},"‹":{"ha":515,"x_min":36,"x_max":458,"o":"m 458 576 l 256 351 l 458 126 l 247 126 l 36 351 l 247 576 l 458 576 z "},"›":{"ha":515,"x_min":57,"x_max":479,"o":"m 268 576 l 479 351 l 268 126 l 57 126 l 260 351 l 57 576 l 268 576 z "},"⁄":{"ha":367,"x_min":-246,"x_max":500,"o":"m 500 988 l -94 0 l -246 0 l 350 988 l 500 988 z "},"⁴":{"ha":567,"x_min":49,"x_max":518,"o":"m 518 788 l 518 674 l 444 674 l 444 546 l 311 546 l 311 674 l 49 674 l 49 788 l 232 1147 l 444 1147 l 444 788 l 518 788 m 311 788 l 311 1064 l 176 788 l 311 788 z "},"€":{"ha":864,"x_min":56,"x_max":808,"o":"m 618 731 q 415 618 482 731 l 663 618 l 663 493 l 376 493 q 374 438 374 460 q 375 404 374 417 l 663 404 l 663 279 l 414 279 q 611 175 476 175 q 808 243 725 175 l 808 38 q 581 -11 719 -11 q 335 67 443 -11 q 185 279 228 146 l 56 279 l 56 404 l 161 404 q 160 448 160 418 q 161 493 160 478 l 56 493 l 56 618 l 183 618 q 336 842 226 763 q 583 921 446 921 q 808 868 721 921 l 808 664 q 618 731 726 731 z "},"₹":{"ha":776,"x_min":83,"x_max":719,"o":"m 719 785 l 504 785 q 556 700 539 746 l 719 700 l 719 549 l 569 549 q 491 389 554 450 q 319 310 428 328 l 585 0 l 329 0 l 83 304 l 83 464 l 204 464 q 361 549 333 464 l 83 549 l 83 700 l 353 700 q 200 785 311 785 l 83 785 l 83 936 l 719 936 l 719 785 z "},"™":{"ha":1046,"x_min":14,"x_max":1019,"o":"m 14 822 l 14 936 l 376 936 l 376 822 l 261 822 l 261 460 l 131 460 l 131 822 l 14 822 m 879 792 q 826 614 865 714 l 771 465 l 663 465 q 558 792 576 701 q 565 711 561 769 q 563 614 568 653 l 550 460 l 424 460 l 464 936 l 601 936 q 715 614 701 678 q 833 936 731 672 l 971 936 l 1019 460 l 893 460 q 875 705 875 663 q 879 792 875 747 z "},"Ω":{"ha":1097,"x_min":63,"x_max":1035,"o":"m 1035 172 l 1035 0 l 611 0 l 611 172 q 726 276 688 193 q 764 484 764 358 q 709 683 764 610 q 551 757 654 757 q 394 683 449 757 q 339 485 339 610 q 375 277 339 360 q 486 172 411 194 l 486 0 l 63 0 l 63 172 l 242 172 q 110 488 110 282 q 227 823 110 694 q 551 951 344 951 q 876 824 758 951 q 993 478 993 696 q 858 172 993 285 l 1035 172 z "},"∂":{"ha":767,"x_min":49,"x_max":697,"o":"m 697 394 q 611 93 697 200 q 371 -14 525 -14 q 133 75 217 -14 q 49 300 49 164 q 131 519 49 436 q 332 601 214 601 q 483 558 419 601 q 140 936 404 772 l 419 936 q 622 686 546 839 q 697 394 697 533 m 371 167 q 513 381 506 167 q 376 429 460 429 q 290 392 324 429 q 256 296 256 356 q 285 201 256 236 q 371 167 315 167 z "},"∆":{"ha":946,"x_min":49,"x_max":897,"o":"m 897 0 l 49 0 l 49 140 l 340 936 l 610 936 l 897 140 l 897 0 m 275 172 l 669 172 l 472 781 l 275 172 z "},"∏":{"ha":899,"x_min":-21,"x_max":808,"o":"m 808 936 l 808 -250 l 593 -250 l 593 754 l 333 754 l 333 60 q 81 -258 333 -258 q -21 -240 31 -258 l -21 -56 q 49 -74 13 -74 q 103 -42 86 -74 q 119 58 119 -11 l 119 936 l 808 936 z "},"∑":{"ha":672,"x_min":42,"x_max":686,"o":"m 686 936 l 686 764 l 267 764 l 464 339 l 265 -106 l 686 -106 l 686 -278 l 42 -278 l 42 -106 l 244 339 l 42 764 l 42 936 l 686 936 z "},"−":{"ha":818,"x_min":63,"x_max":756,"o":"m 63 382 l 63 561 l 756 561 l 756 382 l 63 382 z "},"∕":{"ha":1157,"x_min":171,"x_max":917,"o":"m 917 988 l 322 0 l 171 0 l 767 988 l 917 988 z "},"∙":{"ha":439,"x_min":96,"x_max":343,"o":"m 132 381 q 114 399 132 381 q 96 468 96 417 q 132 556 96 519 q 219 592 168 592 q 307 556 271 592 q 343 468 343 519 q 307 381 343 417 q 219 344 271 344 q 132 381 168 344 z "},"√":{"ha":1146,"x_min":38,"x_max":1210,"o":"m 393 640 l 507 299 q 610 -69 579 83 q 700 299 653 147 l 996 1260 l 1210 1260 l 725 -264 l 489 -264 l 219 483 l 38 483 l 79 640 l 393 640 z "},"∞":{"ha":1153,"x_min":63,"x_max":1090,"o":"m 913 478 q 889 540 913 515 q 827 565 865 565 q 758 547 789 565 q 715 513 728 528 q 682 471 703 499 q 725 431 710 444 q 767 403 740 417 q 819 389 794 389 q 913 478 913 389 m 321 229 q 129 291 196 229 q 63 467 63 353 q 135 648 63 581 q 335 715 207 715 q 575 590 463 715 q 833 719 688 719 q 1023 656 956 719 q 1090 481 1090 593 q 1018 301 1090 369 q 828 233 946 233 q 576 360 685 233 q 517 299 542 321 q 439 253 493 278 q 321 229 385 229 m 264 536 q 251 524 264 536 q 239 471 239 513 q 264 406 239 429 q 333 383 289 383 q 471 478 406 383 q 339 560 389 560 q 264 536 289 560 z "},"≈":{"ha":818,"x_min":29,"x_max":785,"o":"m 565 500 q 412 531 493 500 q 288 563 331 563 q 217 544 246 563 q 157 489 189 526 l 29 590 q 247 728 128 728 q 413 697 331 728 q 532 665 496 665 q 596 683 568 665 q 657 740 624 701 l 785 638 q 565 500 689 500 m 565 217 q 412 248 493 217 q 288 279 331 279 q 217 261 246 279 q 157 206 189 243 l 29 307 q 247 444 128 444 q 413 413 331 444 q 532 382 496 382 q 596 400 568 382 q 657 457 624 418 l 785 354 q 565 217 689 217 z "},"≠":{"ha":818,"x_min":63,"x_max":756,"o":"m 756 553 l 499 553 l 424 392 l 756 392 l 756 231 l 347 231 l 296 119 l 192 119 l 243 231 l 63 231 l 63 392 l 319 392 l 394 553 l 63 553 l 63 714 l 471 714 l 522 825 l 626 825 l 575 714 l 756 714 l 756 553 z "},"≤":{"ha":811,"x_min":56,"x_max":749,"o":"m 749 826 l 749 651 l 199 582 l 749 513 l 749 338 l 56 457 l 56 707 l 749 826 m 56 115 l 56 276 l 749 276 l 749 115 l 56 115 z "},"≥":{"ha":811,"x_min":63,"x_max":756,"o":"m 63 826 l 756 707 l 756 457 l 63 338 l 63 513 l 613 582 l 63 651 l 63 826 m 63 115 l 63 276 l 756 276 l 756 115 l 63 115 z "},"◊":{"ha":839,"x_min":40,"x_max":799,"o":"m 522 936 l 799 468 l 522 0 l 314 0 l 40 468 l 314 936 l 522 936 m 419 157 q 597 468 457 240 q 419 779 474 668 q 246 468 381 694 q 419 157 368 264 z "},"◌":{"ha":974,"x_min":100,"x_max":894,"o":"m 413 749 q 405 758 413 749 q 396 793 396 767 q 413 837 396 819 q 457 854 431 854 q 501 837 483 854 q 518 793 518 819 q 501 749 518 767 q 457 732 483 732 q 413 749 431 732 m 633 711 q 620 711 633 711 q 589 729 607 711 q 571 774 571 747 q 588 817 571 800 q 633 835 606 835 q 676 817 660 835 q 693 774 693 800 q 676 729 693 747 q 633 711 658 711 m 720 634 q 711 643 720 634 q 703 678 703 651 q 720 722 703 704 q 764 740 738 740 q 808 723 790 740 q 825 678 825 706 q 808 634 825 651 q 764 617 790 617 q 720 634 738 617 m 789 469 q 781 478 789 469 q 772 514 772 486 q 789 558 772 542 q 833 575 806 575 q 877 558 860 575 q 894 514 894 540 q 877 470 894 488 q 833 453 860 453 q 789 469 806 453 m 820 267 q 807 267 820 267 q 776 284 794 267 q 758 328 758 301 q 776 373 758 356 q 820 390 794 390 q 863 372 846 390 q 881 328 881 354 q 863 284 881 301 q 820 267 846 267 m 674 148 q 666 157 674 148 q 657 192 657 165 q 674 235 657 218 q 718 253 692 253 q 763 235 744 253 q 781 192 781 218 q 763 148 781 165 q 718 131 744 131 q 674 148 692 131 m 506 74 q 497 83 506 74 q 489 118 489 92 q 506 162 489 144 q 550 179 522 179 q 595 162 578 179 q 613 118 613 144 q 595 74 613 92 q 550 57 578 57 q 506 74 522 57 m 375 76 q 362 76 375 76 q 331 94 349 76 q 313 139 313 113 q 331 183 313 165 q 375 201 349 201 q 419 183 401 201 q 436 139 436 165 q 419 94 436 113 q 375 76 401 76 m 233 183 q 219 183 233 183 q 189 200 206 183 q 172 244 172 217 q 190 288 172 271 q 233 306 207 306 q 277 288 260 306 q 294 244 294 271 q 277 201 294 218 q 233 183 260 183 m 117 363 q 109 371 117 363 q 100 406 100 379 q 117 450 100 432 q 161 468 135 468 q 205 451 188 468 q 222 406 222 433 q 205 363 222 379 q 161 346 188 346 q 117 363 135 346 m 136 537 q 127 545 136 537 q 118 581 118 554 q 136 624 118 607 q 181 642 154 642 q 225 624 207 642 q 243 581 243 607 q 225 537 243 554 q 181 519 207 519 q 136 537 154 519 m 293 671 q 280 671 293 671 q 249 688 267 671 q 232 733 232 706 q 249 777 232 760 q 293 794 267 794 q 337 777 319 794 q 354 733 354 760 q 337 688 354 706 q 293 671 319 671 z "},"":{"ha":671,"x_min":193,"x_max":501,"o":"m 193 -364 l 292 -71 l 501 -71 l 340 -364 l 193 -364 z "},"ﬀ":{"ha":883,"x_min":42,"x_max":911,"o":"m 911 822 q 831 838 874 838 q 738 731 738 838 l 738 704 l 869 704 l 869 556 l 738 556 l 738 0 l 536 0 l 536 556 l 335 556 l 335 0 l 133 0 l 133 556 l 42 556 l 42 704 l 133 704 l 133 731 q 205 929 133 858 q 400 1000 276 1000 q 633 951 524 1000 q 806 1000 701 1000 q 911 986 871 1000 l 911 822 m 536 704 l 536 731 q 546 817 536 779 q 430 838 475 838 q 360 814 385 838 q 335 731 335 790 l 335 704 l 536 704 z "},"ﬁ":{"ha":799,"x_min":42,"x_max":739,"o":"m 739 704 l 739 0 l 536 0 l 536 556 l 335 556 l 335 0 l 133 0 l 133 556 l 42 556 l 42 704 l 133 704 l 133 731 q 205 929 133 858 q 408 1000 276 1000 q 665 942 539 1000 l 665 778 q 436 838 533 838 q 360 814 385 838 q 335 731 335 790 l 335 704 l 739 704 z "},"ﬂ":{"ha":824,"x_min":42,"x_max":740,"o":"m 133 704 l 133 731 q 205 929 133 858 q 416 1000 276 1000 q 740 913 556 1000 l 740 0 l 538 0 l 538 824 q 435 838 482 838 q 361 815 388 838 q 335 731 335 793 l 335 704 l 467 704 l 467 556 l 335 556 l 335 0 l 133 0 l 133 556 l 42 556 l 42 704 l 133 704 z "},"ﬃ":{"ha":1347,"x_min":42,"x_max":1142,"o":"m 1142 704 l 1142 0 l 939 0 l 939 556 l 738 556 l 738 0 l 536 0 l 536 556 l 335 556 l 335 0 l 133 0 l 133 556 l 42 556 l 42 704 l 133 704 l 133 731 q 205 929 133 858 q 400 1000 276 1000 q 633 951 524 1000 q 822 1000 701 1000 q 1068 942 942 1000 l 1068 778 q 839 838 936 838 q 763 814 788 838 q 738 731 738 790 l 738 704 l 1142 704 m 536 704 l 536 731 q 546 817 536 779 q 430 838 475 838 q 360 814 385 838 q 335 731 335 790 l 335 704 l 536 704 z "},"ﬄ":{"ha":1226,"x_min":42,"x_max":1143,"o":"m 133 704 l 133 731 q 205 929 133 858 q 400 1000 276 1000 q 633 951 524 1000 q 806 1000 701 1000 q 1143 913 958 1000 l 1143 0 l 940 0 l 940 824 q 838 838 885 838 q 764 815 790 838 q 738 731 738 793 l 738 704 l 869 704 l 869 556 l 738 556 l 738 0 l 536 0 l 536 556 l 335 556 l 335 0 l 133 0 l 133 556 l 42 556 l 42 704 l 133 704 m 536 704 l 536 731 q 546 817 536 779 q 430 838 475 838 q 360 814 385 838 q 335 731 335 790 l 335 704 l 536 704 z "}}}
